<svg width="19" height="18" viewBox="0 0 19 18" fill="none" xmlns="http://www.w3.org/2000/svg">
<g clip-path="url(#clip0_541_245)">
<path d="M10.5035 0.62473C10.2281 0.376808 9.87059 0.239624 9.5 0.239624C9.12941 0.239624 8.77194 0.376808 8.4965 0.62473L0.5 7.82173V15.6217C0.5 16.2583 0.752856 16.8687 1.20294 17.3188C1.65303 17.7689 2.26348 18.0217 2.9 18.0217H16.1C16.7365 18.0217 17.347 17.7689 17.7971 17.3188C18.2471 16.8687 18.5 16.2583 18.5 15.6217V7.82173L10.5035 0.62473ZM11.75 16.5195H7.25V12.75C7.25 12.1532 7.48705 11.5809 7.90901 11.159C8.33097 10.737 8.90326 10.5 9.5 10.5C10.0967 10.5 10.669 10.737 11.091 11.159C11.5129 11.5809 11.75 12.1532 11.75 12.75V16.5195ZM17 15.6195C17 15.8582 16.9052 16.0871 16.7364 16.2559C16.5676 16.4247 16.3387 16.5195 16.1 16.5195H13.25V12.75C13.25 11.7554 12.8549 10.8016 12.1517 10.0983C11.4484 9.39507 10.4946 8.99998 9.5 8.99998C8.50544 8.99998 7.55161 9.39507 6.84835 10.0983C6.14509 10.8016 5.75 11.7554 5.75 12.75V16.5195H2.9C2.66131 16.5195 2.43239 16.4247 2.2636 16.2559C2.09482 16.0871 2 15.8582 2 15.6195V8.48923L9.5 1.73923L17 8.48923V15.6195Z" fill="#333333"/>
</g>
<defs>
<clipPath id="clip0_541_245">
<rect width="18" height="18" fill="white" transform="translate(0.5)"/>
</clipPath>
</defs>
</svg>
