<svg width="19" height="18" viewBox="0 0 19 18" fill="none" xmlns="http://www.w3.org/2000/svg">
<g clip-path="url(#clip0_67_769)">
<path d="M0.5 13.5C0.5 15.5677 2.18225 17.25 4.25 17.25H14.75C16.8177 17.25 18.5 15.5677 18.5 13.5V7.5H0.5V13.5ZM11 9.75H14C14.4148 9.75 14.75 10.086 14.75 10.5C14.75 10.914 14.4148 11.25 14 11.25H11C10.5852 11.25 10.25 10.9148 10.25 10.5C10.25 10.0852 10.5852 9.75 11 9.75ZM11 13.5H14C14.4148 13.5 14.75 13.8352 14.75 14.25C14.75 14.6648 14.4148 15 14 15H11C10.5852 15 10.25 14.6648 10.25 14.25C10.25 13.8352 10.5852 13.5 11 13.5ZM4.27025 9.74625C4.55525 9.44475 5.03 9.43275 5.33 9.717L6.09125 10.437L7.46975 9.0585C7.763 8.76525 8.237 8.76525 8.53025 9.0585C8.8235 9.35175 8.8235 9.82575 8.53025 10.119L7.04375 11.6055C6.77975 11.8695 6.437 12.0015 6.09425 12.0015C5.7635 12.0015 5.432 11.8785 5.17175 11.6318L4.2995 10.8045C3.99875 10.5203 3.986 10.0455 4.271 9.74475L4.27025 9.74625ZM4.27025 13.4963C4.55525 13.1955 5.03 13.1828 5.33 13.4678L6.09125 14.1877L7.46975 12.8092C7.763 12.516 8.237 12.516 8.53025 12.8092C8.8235 13.1025 8.8235 13.5765 8.53025 13.8698L7.04375 15.3563C6.77975 15.6203 6.437 15.7523 6.09425 15.7523C5.7635 15.7523 5.432 15.6293 5.17175 15.3825L4.2995 14.5553C3.99875 14.271 3.986 13.7955 4.271 13.4955L4.27025 13.4963ZM14.75 0.75H4.25C2.18225 0.75 0.5 2.43225 0.5 4.5V6H18.5V4.5C18.5 2.43225 16.8177 0.75 14.75 0.75ZM3.875 4.5C3.254 4.5 2.75 3.996 2.75 3.375C2.75 2.754 3.254 2.25 3.875 2.25C4.496 2.25 5 2.754 5 3.375C5 3.996 4.496 4.5 3.875 4.5ZM6.875 4.5C6.254 4.5 5.75 3.996 5.75 3.375C5.75 2.754 6.254 2.25 6.875 2.25C7.496 2.25 8 2.754 8 3.375C8 3.996 7.496 4.5 6.875 4.5Z" fill="#1A237E"/>
</g>
<defs>
<clipPath id="clip0_67_769">
<rect width="18" height="18" fill="white" transform="translate(0.5)"/>
</clipPath>
</defs>
</svg>
