<svg width="19" height="18" viewBox="0 0 19 18" fill="none" xmlns="http://www.w3.org/2000/svg">
<g clip-path="url(#clip0_541_241)">
<path d="M15.125 0.75H3.875C2.01425 0.75 0.5 2.26425 0.5 4.125V13.875C0.5 15.7358 2.01425 17.25 3.875 17.25H15.125C16.9858 17.25 18.5 15.7358 18.5 13.875V4.125C18.5 2.26425 16.9858 0.75 15.125 0.75ZM3.875 1.5H15.125C16.5725 1.5 17.75 2.6775 17.75 4.125V6H1.25V4.125C1.25 2.6775 2.4275 1.5 3.875 1.5ZM15.125 16.5H3.875C2.4275 16.5 1.25 15.3225 1.25 13.875V6.75H17.75V13.875C17.75 15.3225 16.5725 16.5 15.125 16.5ZM2.75 3.75C2.75 3.336 3.086 3 3.5 3C3.914 3 4.25 3.336 4.25 3.75C4.25 4.164 3.914 4.5 3.5 4.5C3.086 4.5 2.75 4.164 2.75 3.75ZM5 3.75C5 3.336 5.336 3 5.75 3C6.164 3 6.5 3.336 6.5 3.75C6.5 4.164 6.164 4.5 5.75 4.5C5.336 4.5 5 4.164 5 3.75ZM15.5 10.125C15.5 10.332 15.332 10.5 15.125 10.5H9.875C9.668 10.5 9.5 10.332 9.5 10.125C9.5 9.918 9.668 9.75 9.875 9.75H15.125C15.332 9.75 15.5 9.918 15.5 10.125ZM15.5 13.875C15.5 14.082 15.332 14.25 15.125 14.25H9.875C9.668 14.25 9.5 14.082 9.5 13.875C9.5 13.668 9.668 13.5 9.875 13.5H15.125C15.332 13.5 15.5 13.668 15.5 13.875ZM8.64125 11.9062C8.78675 12.0533 8.78525 12.291 8.63825 12.4365L6.434 14.6145C6.17525 14.8695 5.83625 14.9977 5.4965 14.9977C5.15675 14.9977 4.82 14.871 4.562 14.6182L3.5495 13.6252C3.4025 13.4805 3.3995 13.2427 3.545 13.095C3.689 12.948 3.92675 12.945 4.07525 13.0905L5.087 14.0828C5.31275 14.304 5.681 14.304 5.90675 14.0812L8.111 11.9032C8.25875 11.7578 8.4965 11.76 8.64125 11.9062ZM8.64125 8.15625C8.78675 8.304 8.78525 8.541 8.63825 8.6865L6.434 10.8645C6.17525 11.1195 5.83625 11.2477 5.4965 11.2477C5.15675 11.2477 4.82 11.121 4.562 10.8682L3.5495 9.87525C3.4025 9.7305 3.40025 9.49275 3.545 9.345C3.689 9.19725 3.92675 9.19575 4.07525 9.33975L5.087 10.3328C5.31275 10.554 5.681 10.554 5.90675 10.3312L8.111 8.15325C8.25875 8.007 8.4965 8.00925 8.64125 8.15625Z" fill="black"/>
</g>
<defs>
<clipPath id="clip0_541_241">
<rect width="18" height="18" fill="white" transform="translate(0.5)"/>
</clipPath>
</defs>
</svg>
