<svg width="19" height="18" viewBox="0 0 19 18" fill="none" xmlns="http://www.w3.org/2000/svg">
<g clip-path="url(#clip0_541_221)">
<path d="M9.5 11.2444C8.25737 11.2444 7.25 12.2518 7.25 13.4944V17.9944H11.75V13.4944C11.75 12.2518 10.7426 11.2444 9.5 11.2444Z" fill="#1A237E"/>
<path d="M13.25 13.4944V17.9944H16.25C17.4926 17.9944 18.5 16.987 18.5 15.7444V8.90367C18.5002 8.51403 18.3488 8.13962 18.0777 7.85967L11.7043 0.969396C10.5797 -0.247362 8.68167 -0.322069 7.46491 0.802509C7.40711 0.855946 7.35143 0.911599 7.29802 0.969396L0.935762 7.85742C0.656551 8.13853 0.499895 8.51871 0.5 8.91492V15.7444C0.5 16.987 1.50737 17.9944 2.75 17.9944H5.74999V13.4944C5.76402 11.4493 7.4152 9.77924 9.4088 9.73114C11.4691 9.68143 13.2343 11.3799 13.25 13.4944Z" fill="#1A237E"/>
<path d="M9.5 11.2444C8.25737 11.2444 7.25 12.2518 7.25 13.4944V17.9944H11.75V13.4944C11.75 12.2518 10.7426 11.2444 9.5 11.2444Z" fill="#1A237E"/>
</g>
<defs>
<clipPath id="clip0_541_221">
<rect width="18" height="18" fill="white" transform="translate(0.5)"/>
</clipPath>
</defs>
</svg>
