<svg width="32" height="32" viewBox="0 0 32 32" fill="none" xmlns="http://www.w3.org/2000/svg">
<g clip-path="url(#clip0_541_341)">
<path d="M9.38999 21H22.4367C22.8382 21 23.2338 20.9033 23.5901 20.7181C23.9463 20.5328 24.2527 20.2645 24.4833 19.9358C24.7139 19.6071 24.8619 19.2277 24.9149 18.8297C24.9678 18.4316 24.9241 18.0267 24.7875 17.6492L22.4108 11.0783C22.0049 9.61809 21.1319 8.33099 19.9252 7.41389C18.7186 6.49679 17.2448 6.00018 15.7292 6C14.1514 5.99998 12.6209 6.53799 11.3902 7.52521C10.1595 8.51244 9.30223 9.88984 8.95999 11.43L7.00166 17.7633C6.88636 18.1372 6.86043 18.533 6.92598 18.9188C6.99152 19.3045 7.1467 19.6695 7.37903 19.9844C7.61136 20.2992 7.91435 20.5551 8.26362 20.7315C8.6129 20.9079 8.9987 20.9999 9.38999 21Z" fill="#333333"/>
<path d="M11.9167 22.6666C12.1079 23.6085 12.6189 24.4554 13.3631 25.0636C14.1073 25.6719 15.0389 26.0041 16 26.0041C16.9611 26.0041 17.8927 25.6719 18.6369 25.0636C19.381 24.4554 19.8921 23.6085 20.0833 22.6666H11.9167Z" fill="#333333"/>
</g>
<defs>
<clipPath id="clip0_541_341">
<rect width="20" height="20" fill="white" transform="translate(6 6)"/>
</clipPath>
</defs>
</svg>
