<svg width="20" height="20" viewBox="0 0 20 20" fill="none" xmlns="http://www.w3.org/2000/svg">
<path d="M8.19083 6.46833C8.07333 6.46833 7.95583 6.43083 7.8575 6.3575C7.66833 6.21583 7.59 5.97083 7.66083 5.74583L8.18333 4.07L6.8625 2.995C6.685 2.84417 6.62 2.59833 6.70083 2.38C6.78083 2.16167 6.98917 2.01583 7.2225 2.01583H8.89L9.48 0.36C9.56 0.144167 9.76833 0 10 0C10.2317 0 10.44 0.144167 10.5208 0.361667L11.1108 2.0175H12.7783C13.0117 2.0175 13.22 2.16333 13.3 2.3825C13.38 2.60167 13.3142 2.8475 13.1358 2.99833L11.8217 4.06917L12.365 5.725C12.4392 5.94917 12.3642 6.19583 12.1767 6.34C11.9892 6.48417 11.7317 6.49417 11.5342 6.36583L10.0042 5.36917L8.5 6.37583C8.40667 6.43833 8.29833 6.47 8.19083 6.47V6.46833ZM10.8333 7.5H9.16667C8.01583 7.5 7.08333 8.4325 7.08333 9.58333V17.9167C7.08333 19.0675 8.01583 20 9.16667 20H10.8333C11.9842 20 12.9167 19.0675 12.9167 17.9167V9.58333C12.9167 8.4325 11.9842 7.5 10.8333 7.5ZM17.9167 13.3333H16.6667C15.5158 13.3333 14.5833 14.2658 14.5833 15.4167V17.9167C14.5833 19.0675 15.5158 20 16.6667 20H17.9167C19.0675 20 20 19.0675 20 17.9167V15.4167C20 14.2658 19.0675 13.3333 17.9167 13.3333ZM3.33333 10.8333H2.08333C0.9325 10.8333 0 11.7658 0 12.9167V17.9167C0 19.0675 0.9325 20 2.08333 20H3.33333C4.48417 20 5.41667 19.0675 5.41667 17.9167V12.9167C5.41667 11.7658 4.48417 10.8333 3.33333 10.8333Z" fill="#333333"/>
</svg>
