<svg width="18" height="18" viewBox="0 0 18 18" fill="none" xmlns="http://www.w3.org/2000/svg">
<g clip-path="url(#clip0_541_425)">
<path d="M17.856 15.1478L11.8057 1.16776C11.4158 0.210756 10.3215 -0.253494 9.3615 0.139506L8.667 0.423006C8.3985 0.532506 8.16375 0.699006 7.97625 0.909756C7.64775 0.365256 7.05075 0.000755994 6.36975 0.000755994H1.875C0.8415 5.99393e-06 0 0.840756 0 1.87501V16.125C0 17.1593 0.8415 18 1.875 18H6.36975C7.40325 18 8.24475 17.1593 8.24475 16.125V4.26676L13.6935 16.8593C14.085 17.8238 15.204 18.273 16.1378 17.8845L16.8315 17.601C17.7773 17.2365 18.261 16.0815 17.856 15.1478ZM9.37875 4.99951L12.1567 3.86701L16.1842 13.1753L13.4062 14.3085L9.37875 4.99951ZM0.75 4.50001H3.74475V13.5H0.75V4.50001ZM4.49475 4.50001H7.49475V13.5H4.49475V4.50001ZM7.49475 1.87501V3.75001H4.49475V0.750006H6.36975C6.99 0.750006 7.49475 1.25476 7.49475 1.87501ZM1.875 0.750006H3.74475V3.75001H0.75V1.87501C0.75 1.25476 1.25475 0.750006 1.875 0.750006ZM0.75 16.125V14.25H3.74475V17.25H1.875C1.25475 17.25 0.75 16.7453 0.75 16.125ZM6.36975 17.25H4.49475V14.25H7.49475V16.125C7.49475 16.7453 6.99 17.25 6.36975 17.25ZM8.9505 1.11676L9.645 0.833256C10.2083 0.600756 10.8765 0.871506 11.1143 1.45726L11.859 3.17776L9.081 4.31026L8.33325 2.58226C8.09925 2.00776 8.376 1.35076 8.9505 1.11676ZM17.1608 16.3005C17.0445 16.5773 16.827 16.7925 16.5487 16.9065L15.855 17.19C15.2812 17.424 14.6228 17.148 14.3857 16.5683L13.7055 14.9963L16.4835 13.863L17.1652 15.4388C17.2792 15.717 17.277 16.023 17.1608 16.3005Z" fill="#333333"/>
</g>
<defs>
<clipPath id="clip0_541_425">
<rect width="18" height="18" fill="white"/>
</clipPath>
</defs>
</svg>
