<svg width="18" height="18" viewBox="0 0 18 18" fill="none" xmlns="http://www.w3.org/2000/svg">
<g clip-path="url(#clip0_541_332)">
<path d="M9 12H5.25V6H9V12ZM3.75 6H0V12H3.75V6ZM9 3.75V1.5C9 0.67125 8.32875 0 7.5 0H6.75C5.92125 0 5.25 0.67125 5.25 1.5V3.75H9ZM5.25 14.25V16.5C5.25 17.3288 5.92125 18 6.75 18H7.5C8.32875 18 9 17.3288 9 16.5V14.25H5.25ZM0 14.25V16.5C0 17.3288 0.67125 18 1.5 18H2.25C3.07875 18 3.75 17.3288 3.75 16.5V14.25H0ZM3.75 3.75V1.5C3.75 0.67125 3.07875 0 2.25 0H1.5C0.67125 0 0 0.67125 0 1.5V3.75H3.75ZM14.3415 5.42775L10.77 6.57075L12.7425 12.7118L16.314 11.5688L14.3415 5.42775ZM13.6553 3.285L12.9113 1.04325C12.6585 0.25425 11.814 -0.18075 11.025 0.072L10.311 0.30075C9.522 0.5535 9.087 1.398 9.33975 2.187L10.0838 4.42875L13.6553 3.285ZM13.428 14.8545L14.0573 16.9567C14.31 17.7458 15.1545 18.1807 15.9435 17.928L16.6575 17.6993C17.4465 17.4465 17.8815 16.602 17.6287 15.813L16.9995 13.7108L13.428 14.8545Z" fill="#1A237E"/>
</g>
<defs>
<clipPath id="clip0_541_332">
<rect width="18" height="18" fill="white"/>
</clipPath>
</defs>
</svg>
