<svg width="150" height="150" viewBox="0 0 150 150" fill="none" xmlns="http://www.w3.org/2000/svg">
<path d="M132.54 59.6477L128.065 104.633C126.136 123.998 109.845 138.75 90.3823 138.75H68.8066C47.7005 138.75 29.3646 126.849 20.1599 109.393C46.2775 120.248 71.9824 120.056 93.6482 96.839C108.23 81.2092 114.318 69.9601 132.54 59.6477Z" fill="#009FE3"/>
<path d="M132.54 59.6477L128.065 104.633C126.136 123.998 109.845 138.75 90.3823 138.75H68.8066C47.7005 138.75 29.3646 126.849 20.1599 109.393C46.2775 120.248 71.9824 120.056 93.6482 96.839C108.23 81.2092 114.318 69.9601 132.54 59.6477Z" fill="url(#paint0_linear_35_500)"/>
<path d="M135.547 29.4152L134.95 35.4133L134.174 43.2139C123.017 51.0027 115.283 62.1523 106.947 73.5983C100.457 82.5066 93.5984 91.6022 84.4672 99.4408C73.6545 108.719 62.4859 111.546 52.1855 110.991C36.2331 110.13 22.3537 101.165 15.0891 95.4942C14.8116 94.2135 14.572 92.9137 14.3942 91.6022C14.0242 89.0478 13.8344 86.4294 13.8344 83.7754C13.7799 82.2433 13.7538 80.7396 13.7538 79.2739C13.7538 32.7569 41.3988 20.5354 118.943 11.25H119.116C128.866 11.2524 136.515 19.6815 135.547 29.4152Z" fill="#2D2E83"/>
<path d="M134.95 35.4133L134.174 43.2139C123.017 51.0027 115.283 62.1523 106.947 73.5983C101.596 78.8493 96.1101 84.7241 90.5246 91.2939C79.2826 104.526 66.1194 110.301 52.1855 110.991C36.2331 110.13 22.3537 101.165 15.0891 95.4942C14.8116 94.2135 14.572 92.9137 14.3942 91.6022C27.4909 101.201 55.6103 116.311 81.6615 93.955C103.745 74.9976 112.539 48.6998 134.95 35.4133Z" fill="#242B72"/>
<path d="M104.821 114.283C103.353 110.733 99.2669 109.039 95.714 110.51C93.2308 111.537 91.5872 113.842 91.4188 116.524C91.3524 117.585 91.5279 118.626 91.9358 119.615C93.4039 123.165 97.4904 124.856 101.043 123.388C103.282 122.461 104.848 120.488 105.253 118.052C105.256 118.04 105.265 118.03 105.267 118.019C105.467 116.759 105.312 115.467 104.821 114.283Z" fill="white"/>
<path d="M84.4933 117.943C84.5549 117.957 84.619 117.95 84.6735 117.926C84.7447 117.895 84.7968 117.834 84.83 117.76C84.8324 117.815 84.8443 117.867 84.8751 117.914C84.9202 117.983 84.989 118.031 85.0696 118.047L86.1274 118.265C86.1891 118.28 86.2531 118.27 86.3076 118.249C86.3978 118.211 86.4689 118.13 86.4903 118.028V118.023C86.4832 118.095 86.495 118.166 86.5353 118.227C86.5804 118.296 86.6492 118.344 86.7298 118.36L87.7876 118.578C87.8493 118.593 87.9133 118.583 87.9679 118.562C88.058 118.524 88.1291 118.443 88.1505 118.341L89.5071 111.814C89.5237 111.734 89.5071 111.651 89.4644 111.582C89.4194 111.513 89.3506 111.466 89.27 111.449L88.2122 111.228C88.1505 111.214 88.0865 111.221 88.0319 111.245C87.9418 111.283 87.8706 111.364 87.8493 111.466L87.8469 111.473C87.8564 111.402 87.8422 111.328 87.8018 111.266C87.7568 111.198 87.688 111.15 87.6074 111.134L86.5496 110.915C86.4879 110.901 86.4239 110.911 86.3693 110.932C86.2982 110.96 86.246 111.022 86.2128 111.096C86.2104 111.041 86.1985 110.989 86.1677 110.941C86.1227 110.873 86.0539 110.825 85.9732 110.809L84.9154 110.59C84.8538 110.576 84.7897 110.586 84.7352 110.607C84.6451 110.645 84.5739 110.726 84.5526 110.828L83.1959 117.355C83.1793 117.435 83.1959 117.518 83.2386 117.587C83.2837 117.656 83.3524 117.703 83.4331 117.72L84.4933 117.943Z" fill="white"/>
<path d="M103.522 108.752C103.61 108.812 103.719 108.819 103.811 108.781C103.825 108.776 103.832 108.759 103.847 108.752C103.835 108.797 103.83 108.845 103.84 108.892C103.856 108.973 103.904 109.044 103.97 109.089L106.505 110.775C106.593 110.835 106.702 110.842 106.795 110.804C106.849 110.78 106.899 110.742 106.932 110.69L107.532 109.791C107.577 109.722 107.594 109.639 107.577 109.559C107.561 109.478 107.516 109.409 107.447 109.364L107.452 109.367C107.539 109.426 107.649 109.433 107.741 109.395C107.796 109.371 107.845 109.333 107.879 109.281L108.479 108.382C108.524 108.313 108.54 108.23 108.524 108.152C108.514 108.1 108.486 108.057 108.453 108.017C108.519 108.036 108.59 108.041 108.654 108.015C108.709 107.991 108.759 107.953 108.792 107.901L109.392 107.002C109.437 106.933 109.453 106.85 109.437 106.772C109.42 106.691 109.373 106.62 109.306 106.575L106.771 104.886C106.683 104.827 106.574 104.82 106.482 104.858C106.477 104.86 106.475 104.865 106.47 104.867C106.477 104.829 106.477 104.791 106.47 104.754C106.453 104.673 106.406 104.602 106.339 104.557L103.754 102.835C103.666 102.775 103.557 102.768 103.465 102.806C103.41 102.83 103.36 102.868 103.327 102.92L102.727 103.819C102.682 103.888 102.666 103.971 102.682 104.049C102.699 104.13 102.746 104.201 102.813 104.246L102.82 104.251C102.734 104.203 102.637 104.196 102.552 104.229C102.497 104.253 102.447 104.291 102.414 104.343L101.814 105.242C101.769 105.311 101.752 105.394 101.769 105.475C101.781 105.534 101.814 105.586 101.857 105.626C101.786 105.603 101.71 105.595 101.641 105.624C101.586 105.645 101.537 105.686 101.503 105.738L100.903 106.637C100.858 106.705 100.842 106.788 100.858 106.869C100.875 106.95 100.922 107.021 100.989 107.066L103.522 108.752ZM104.622 107.647C104.608 107.652 104.601 107.668 104.587 107.675C104.599 107.63 104.603 107.583 104.594 107.536C104.587 107.5 104.572 107.469 104.553 107.438L104.909 107.675C104.821 107.616 104.712 107.609 104.622 107.647ZM105.694 105.984C105.687 106.022 105.687 106.06 105.694 106.098C105.701 106.129 105.716 106.155 105.73 106.184L105.417 105.975C105.502 106.022 105.599 106.03 105.682 105.996C105.687 105.994 105.69 105.987 105.694 105.984Z" fill="white"/>
<path d="M90.2163 123.189C90.1285 123.13 90.0194 123.123 89.9269 123.161C89.8724 123.184 89.8226 123.222 89.7894 123.274L89.1893 124.173C89.1443 124.242 89.1277 124.325 89.1443 124.406C89.1514 124.444 89.168 124.477 89.187 124.508C89.1016 124.46 89.0043 124.453 88.9213 124.486C88.8668 124.51 88.817 124.548 88.7838 124.6L88.1837 125.499C88.1387 125.568 88.122 125.651 88.1387 125.732C88.1553 125.812 88.2027 125.883 88.2691 125.928L88.326 125.966C88.243 125.921 88.1481 125.914 88.0651 125.947C88.0106 125.971 87.9608 126.009 87.9276 126.061L87.3275 126.96C87.2825 127.029 87.2659 127.112 87.2825 127.193C87.2991 127.273 87.3465 127.344 87.4129 127.389L92.8679 131.021C92.9557 131.08 93.0647 131.087 93.1572 131.049C93.2118 131.025 93.2616 130.987 93.2948 130.935L93.8949 130.036C93.9399 129.968 93.9565 129.884 93.9399 129.804C93.9328 129.764 93.9162 129.726 93.8925 129.69C93.966 129.716 94.0419 129.723 94.1107 129.695C94.1652 129.671 94.2151 129.633 94.2483 129.581L94.8483 128.682C94.8934 128.613 94.91 128.53 94.8934 128.45C94.8768 128.369 94.8293 128.298 94.7629 128.253L94.7345 128.234C94.8222 128.291 94.9289 128.298 95.0214 128.262C95.076 128.241 95.1258 128.201 95.159 128.148L95.7591 127.249C95.8041 127.181 95.8207 127.098 95.8041 127.017C95.7875 126.936 95.7401 126.865 95.6737 126.82L90.2163 123.189ZM91.1413 127.676C91.146 127.674 91.1484 127.669 91.1531 127.667C91.146 127.705 91.146 127.743 91.1531 127.781C91.1579 127.809 91.1721 127.835 91.1863 127.861L90.8804 127.657C90.9634 127.7 91.0583 127.71 91.1413 127.676ZM91.924 126.545C91.9311 126.507 91.9311 126.469 91.924 126.431C91.9168 126.398 91.9026 126.367 91.886 126.339L92.2228 126.562C92.135 126.505 92.0283 126.498 91.9358 126.533C91.9311 126.536 91.9287 126.543 91.924 126.545Z" fill="white"/>
<path d="M113.213 116.214L112.155 115.993C112.093 115.979 112.029 115.986 111.975 116.01C111.885 116.048 111.813 116.128 111.792 116.23V116.235C111.799 116.164 111.787 116.093 111.747 116.034C111.702 115.965 111.633 115.917 111.552 115.901L110.495 115.683C110.433 115.668 110.369 115.678 110.314 115.699C110.243 115.728 110.191 115.789 110.158 115.863C110.156 115.808 110.144 115.756 110.113 115.709C110.068 115.64 109.999 115.592 109.918 115.576L108.861 115.358C108.799 115.343 108.735 115.35 108.68 115.374C108.59 115.412 108.519 115.493 108.498 115.595L107.879 118.571C107.862 118.652 107.879 118.737 107.924 118.804C107.95 118.844 107.988 118.872 108.028 118.896C108 118.899 107.971 118.894 107.947 118.903C107.857 118.941 107.786 119.022 107.765 119.124L107.143 122.119C107.127 122.2 107.143 122.283 107.186 122.352C107.231 122.421 107.3 122.468 107.381 122.485L108.438 122.703C108.5 122.717 108.564 122.708 108.619 122.686C108.69 122.655 108.742 122.594 108.775 122.52C108.778 122.575 108.789 122.627 108.82 122.674C108.865 122.743 108.934 122.791 109.015 122.807L110.072 123.028C110.134 123.042 110.198 123.035 110.253 123.011C110.343 122.973 110.414 122.893 110.435 122.791L110.438 122.783C110.428 122.855 110.442 122.928 110.483 122.99C110.528 123.059 110.597 123.106 110.677 123.123L111.735 123.343C111.797 123.357 111.861 123.35 111.915 123.327C112.005 123.289 112.077 123.208 112.098 123.106L112.724 120.096C112.741 120.016 112.724 119.93 112.679 119.864C112.653 119.824 112.615 119.795 112.575 119.771C112.601 119.769 112.632 119.774 112.655 119.764C112.745 119.726 112.817 119.646 112.838 119.544L113.452 116.584C113.469 116.503 113.452 116.42 113.41 116.351C113.362 116.278 113.291 116.23 113.213 116.214ZM109.51 118.963C109.513 119.02 109.525 119.074 109.555 119.122C109.582 119.162 109.619 119.19 109.66 119.214C109.631 119.216 109.603 119.212 109.579 119.221C109.508 119.25 109.458 119.311 109.425 119.382C109.423 119.325 109.411 119.271 109.38 119.224C109.354 119.183 109.316 119.155 109.276 119.131C109.304 119.129 109.333 119.133 109.356 119.124C109.425 119.095 109.477 119.036 109.51 118.963ZM111.059 119.757C111.071 119.681 111.057 119.605 111.014 119.541C110.988 119.501 110.95 119.473 110.91 119.449C110.938 119.446 110.967 119.451 110.99 119.442C111.078 119.406 111.147 119.328 111.171 119.228C111.159 119.304 111.173 119.38 111.216 119.444C111.242 119.484 111.28 119.513 111.32 119.537C111.292 119.539 111.263 119.534 111.239 119.544C111.152 119.579 111.083 119.658 111.059 119.757Z" fill="white"/>
<path d="M107.438 122.188L108.498 122.406L109.121 119.397L108.061 119.193L107.438 122.188Z" fill="#1F191A"/>
<path d="M109.852 115.879L108.794 115.661L108.175 118.638L109.238 118.842L109.852 115.879Z" fill="#1F191A"/>
<path d="M111.486 116.204L110.428 115.984L109.812 118.951L110.874 119.155L111.486 116.204Z" fill="#1F191A"/>
<path d="M109.072 122.511L110.129 122.731L110.758 119.712L109.695 119.508L109.072 122.511Z" fill="#1F191A"/>
<path d="M113.149 116.515L112.091 116.297L111.472 119.271L112.534 119.475L113.149 116.515Z" fill="#1F191A"/>
<path d="M110.734 122.824L111.792 123.042L112.418 120.032L111.358 119.828L110.734 122.824Z" fill="#1F191A"/>
<path d="M95.8326 110.794C93.3992 111.802 91.8789 114.082 91.7271 116.543C91.8647 117.516 92.4007 119.162 94.4475 119.56C97.4027 120.134 98.3039 117.35 98.3893 116.643C98.4747 115.936 99.5728 114.243 101.762 114.274C103.878 114.302 104.945 116.154 104.964 117.971C105.146 116.804 105.021 115.573 104.537 114.402C103.13 111.003 99.2337 109.388 95.8326 110.794Z" fill="#E6042D"/>
<path d="M101.764 114.274C99.5752 114.243 98.4771 115.936 98.3917 116.643C98.3063 117.35 97.405 120.137 94.4498 119.56C92.403 119.162 91.867 117.516 91.7295 116.543C91.6678 117.523 91.8243 118.529 92.2251 119.496C93.6316 122.895 97.5284 124.51 100.929 123.101C103.159 122.179 104.62 120.189 104.969 117.969C104.945 116.152 103.88 114.302 101.764 114.274Z" fill="#00317B"/>
<path d="M84.8488 110.885L83.4961 117.413L84.5551 117.632L85.9078 111.104L84.8488 110.885Z" fill="#1F191A"/>
<path d="M86.4826 111.209L85.1299 117.737L86.1889 117.957L87.5416 111.429L86.4826 111.209Z" fill="#1F191A"/>
<path d="M88.1536 111.528L86.8002 118.056L87.8592 118.276L89.2126 111.748L88.1536 111.528Z" fill="#1F191A"/>
<path d="M101.762 105.91L101.162 106.81L103.696 108.499L104.296 107.599L101.762 105.91Z" fill="#1F191A"/>
<path d="M104.743 107.934L104.143 108.834L106.677 110.522L107.277 109.622L104.743 107.934Z" fill="#1F191A"/>
<path d="M102.671 104.507L102.072 105.407L107.62 109.104L108.219 108.204L102.671 104.507Z" fill="#1F191A"/>
<path d="M103.581 103.081L102.982 103.981L105.565 105.702L106.165 104.802L103.581 103.081Z" fill="#1F191A"/>
<path d="M106.602 105.142L106.003 106.042L108.539 107.732L109.138 106.832L106.602 105.142Z" fill="#1F191A"/>
<path d="M88.1865 126.229L87.5868 127.129L93.0383 130.762L93.638 129.862L88.1865 126.229Z" fill="#1F191A"/>
<path d="M90.0508 123.435L89.4511 124.335L94.9027 127.967L95.5023 127.067L90.0508 123.435Z" fill="#1F191A"/>
<path d="M89.0422 124.762L88.4425 125.662L91.0261 127.383L91.6258 126.483L89.0422 124.762Z" fill="#1F191A"/>
<path d="M92.0527 126.835L91.4529 127.735L93.9889 129.425L94.5887 128.525L92.0527 126.835Z" fill="#1F191A"/>
<path fill-rule="evenodd" clip-rule="evenodd" d="M44.7002 88.7988L44.6386 88.8486L43.2203 87.1575C41.9205 85.6064 41.3086 83.0995 41.3086 81.1072C41.3086 76.2452 44.029 72.2583 47.2404 68.8572L38.8231 34.2535L40.8888 33.6511C42.8503 33.0795 45.3999 32.9846 47.4135 33.3167C52.304 34.1231 55.5035 37.3297 56.9265 41.9972C57.695 44.5208 58.2381 47.1131 58.7789 49.6935C59.2556 51.9609 59.7039 54.2354 60.1379 56.5123L83.6063 34.1065L85.1597 35.5959C86.635 37.0095 87.9916 39.1701 88.7126 41.0794C90.4558 45.7114 89.2771 50.0991 85.9495 53.6567C85.7432 53.8773 85.5321 54.0979 85.321 54.3137C85.3495 54.2568 85.3851 54.2022 85.4325 54.1524C88.5845 50.7798 89.6945 46.6743 88.0485 42.3056C87.375 40.5149 86.0681 38.423 84.6688 37.083L83.6039 36.0631L59.6825 58.9006C59.175 56.2016 58.6484 53.5049 58.084 50.8177C57.5527 48.2918 56.9977 45.6521 56.2459 43.1831C54.8987 38.7598 51.908 35.7548 47.2949 34.9935C45.407 34.6828 42.9428 34.7658 41.0833 35.3089L39.6674 35.7216L48.0159 70.0454C44.8259 73.3659 42.013 77.2911 42.013 82.0868C42.013 83.8916 42.5633 86.2563 43.7586 87.6817L44.7002 88.7988ZM56.1225 92.7382C53.5445 90.3926 52.0123 87.1646 50.945 83.8063L51.2984 83.5169C52.2803 86.9061 53.6725 90.2693 56.1225 92.7382ZM63.2544 73.9541C64.3454 80.3601 65.3984 86.7709 66.404 93.1889L66.7456 95.3709L65.8988 95.5203L65.7044 94.2775C64.6608 87.6271 63.5698 80.9839 62.4361 74.3478C62.6543 74.1651 62.8749 73.9825 63.0931 73.7999L63.2544 73.9541ZM75.0206 63.7129C76.6737 65.1478 78.3173 66.5969 79.9372 68.0674C81.5713 69.5497 83.2078 71.0416 84.7139 72.6544C88.0414 76.2143 89.2202 80.602 87.4746 85.2341C86.7559 87.1433 85.3993 89.304 83.9241 90.7175L83.4355 91.1871C84.8348 89.8471 86.1393 87.7552 86.8152 85.9646C88.4612 81.5958 87.3512 77.4903 84.1992 74.1177C82.7192 72.5358 81.0661 71.0273 79.4628 69.5711C77.6342 67.9132 75.7795 66.2838 73.913 64.6687C74.283 64.3485 74.6529 64.0307 75.0206 63.7129Z" fill="white"/>
<mask id="mask0_35_500" style="mask-type:luminance" maskUnits="userSpaceOnUse" x="41" y="35" width="24" height="59">
<path d="M51.0351 74.9336L41.5197 35.8094C41.5197 35.8094 51.7822 32.8162 54.7754 42.6518C57.7685 52.4874 64.1817 93.5375 64.1817 93.5375C64.1817 93.5375 62.059 93.9122 59.5022 92.4347C53.6559 89.062 52.5032 80.9744 51.0351 74.9336Z" fill="white"/>
</mask>
<g mask="url(#mask0_35_500)">
<path d="M64.1817 32.8162H41.5174V93.9123H64.1817V32.8162Z" fill="url(#paint1_linear_35_500)"/>
</g>
<path opacity="0.3" fill-rule="evenodd" clip-rule="evenodd" d="M51.0351 74.9336L49.4793 68.5346C50.8596 67.1899 52.2779 65.9139 53.5705 64.6806L58.499 59.975C59.3955 64.8157 60.2992 69.9932 61.115 74.7984C58.3116 77.1251 55.4988 79.4423 52.6788 81.7476C52.0265 79.4185 51.5498 77.0515 51.0351 74.9336Z" fill="#870000"/>
<path opacity="0.3" fill-rule="evenodd" clip-rule="evenodd" d="M47.1052 40.5339C50.1623 47.2649 51.0897 54.2093 52.304 63.9192C52.7309 67.3274 53.1934 71.0748 53.7958 75.2727C53.8433 75.6024 53.8907 75.9368 53.9405 76.2736C55.105 84.2356 57.4697 89.3419 59.6303 92.5082C62.1301 93.898 64.1817 93.5375 64.1817 93.5375C59.8082 91.5049 57.3274 83.9818 55.3612 74.7794C54.607 71.2432 53.9263 67.4579 53.2456 63.6441C52.5531 59.7616 51.8558 55.8458 51.0755 52.1269C49.9157 46.6079 48.495 42.953 47.1052 40.5339Z" fill="#870000"/>
<path opacity="0.3" fill-rule="evenodd" clip-rule="evenodd" d="M56.2838 78.7924C58.1124 86.114 60.4628 91.8109 64.1817 93.5375C64.1817 93.5375 62.8488 85.0111 61.115 74.7984C59.507 76.1337 57.8966 77.4642 56.2838 78.7924ZM51.0755 52.1269C51.8558 55.8458 52.5507 59.7616 53.2456 63.6441L53.4519 64.792L53.5705 64.6782L58.499 59.9726C57.121 52.5325 55.762 45.894 54.7754 42.6495C51.7822 32.8139 41.5197 35.807 41.5197 35.807C41.5197 35.807 44.2448 35.5485 47.1075 40.5291C48.495 42.953 49.9157 46.6079 51.0755 52.1269Z" fill="#FFFF00"/>
<path opacity="0.3" fill-rule="evenodd" clip-rule="evenodd" d="M60.7355 75.1138C61.6748 80.1396 62.6021 84.9139 63.3658 88.4122C62.8132 84.9755 62.0187 80.1158 61.115 74.8008L60.7355 75.1138ZM51.0755 52.1269C51.8558 55.8458 52.5507 59.7616 53.2456 63.6441L53.4519 64.792L53.5705 64.6782L53.6583 64.5952C53.0677 60.6035 52.3325 55.7604 51.8937 53.3531C51.0755 48.8516 48.6183 43.1214 51.0755 41.8929C53.5302 40.6643 55.1691 45.5762 55.9873 49.2595C56.2957 50.647 57.0736 54.9635 58.0531 60.3996L58.499 59.9726C57.121 52.5325 55.762 45.894 54.7754 42.6495C51.7822 32.8139 41.5197 35.807 41.5197 35.807C41.5197 35.807 44.2448 35.5485 47.1075 40.5291C48.495 42.953 49.9157 46.6079 51.0755 52.1269Z" fill="white"/>
<mask id="mask1_35_500" style="mask-type:luminance" maskUnits="userSpaceOnUse" x="57" y="57" width="30" height="33">
<path d="M57.982 65.8071L82.3706 89.0881C82.3706 89.0881 90.0954 81.6978 83.0726 74.1865C80.0724 70.9775 72.4543 64.3817 64.7082 57.8784L57.982 65.8071Z" fill="white"/>
</mask>
<g mask="url(#mask1_35_500)">
<path d="M90.093 57.8812H57.982V89.0909H90.093V57.8812Z" fill="url(#paint2_linear_35_500)"/>
</g>
<path opacity="0.3" fill-rule="evenodd" clip-rule="evenodd" d="M57.982 65.8071L64.4711 72.0021C65.1968 71.395 65.9226 70.7878 66.646 70.1806C68.7426 68.4208 70.8368 66.6515 72.9168 64.8679C70.3435 62.6385 67.533 60.2549 64.7082 57.8808L57.982 65.8071Z" fill="#01052D"/>
<path opacity="0.3" fill-rule="evenodd" clip-rule="evenodd" d="M81.0732 81.8899C76.7733 75.8752 71.2234 71.6013 63.4204 65.6933C62.3768 64.9035 61.2953 64.0853 60.1687 63.2291L60.9395 62.3207C61.9926 63.2148 63.0575 64.1161 64.1271 65.0174C67.144 67.5599 70.1846 70.119 73.0164 72.6544C77.2191 76.4183 79.6739 79.4779 81.0732 81.8899Z" fill="#01052D"/>
<path opacity="0.3" fill-rule="evenodd" clip-rule="evenodd" d="M73.0188 72.6544C71.5412 71.3309 70.0043 69.998 68.4437 68.6675C69.9403 67.4057 71.4321 66.1416 72.9168 64.8679C77.397 68.7481 81.1657 72.1516 83.0726 74.1889C90.093 81.6978 82.3706 89.0905 82.3706 89.0905C82.3706 89.0905 83.9573 86.8611 81.0732 81.8899C79.6739 79.4779 77.2192 76.4183 73.0188 72.6544Z" fill="#00FFFF"/>
<path opacity="0.3" fill-rule="evenodd" clip-rule="evenodd" d="M73.0188 72.6544C71.5412 71.3309 70.0043 69.998 68.4437 68.6675L68.7758 68.3876C70.2178 69.5521 71.5009 70.6004 72.3642 71.3309C75.853 74.2909 79.5885 79.2834 81.8796 77.7702C84.1707 76.257 80.7365 72.384 77.9544 69.8344C77.1907 69.1323 75.2008 67.4365 72.5445 65.1881L72.9168 64.8679C77.397 68.7481 81.1657 72.1516 83.0726 74.1889C90.093 81.6978 82.3706 89.0905 82.3706 89.0905C82.3706 89.0905 83.9573 86.8611 81.0732 81.8899C79.6739 79.4779 77.2192 76.4183 73.0188 72.6544Z" fill="white"/>
<mask id="mask2_35_500" style="mask-type:luminance" maskUnits="userSpaceOnUse" x="43" y="37" width="45" height="49">
<path d="M54.4813 65.0221L83.6039 37.2182C83.6039 37.2182 91.3263 44.6085 84.3059 52.1198C77.2856 59.6288 44.9421 85.7084 44.9421 85.7084C44.9421 85.7084 43.557 84.0577 43.557 81.1049C43.557 74.3573 49.9845 69.3149 54.4813 65.0221Z" fill="white"/>
</mask>
<g mask="url(#mask2_35_500)">
<path d="M91.3286 37.221H43.557V85.7113H91.3286V37.221Z" fill="url(#paint3_linear_35_500)"/>
</g>
<path opacity="0.3" fill-rule="evenodd" clip-rule="evenodd" d="M82.3089 44.4188C78.0089 50.4335 72.4591 54.7074 64.656 60.6154C61.919 62.6883 58.9046 64.9628 55.5675 67.5836C55.3043 67.7899 55.041 67.9986 54.773 68.2097C48.4594 73.1999 45.2196 77.7987 43.557 81.2543C43.6021 84.1146 44.9421 85.7108 44.9421 85.7108C44.5152 80.9056 49.79 74.9953 56.7771 68.6935C59.4619 66.272 62.4005 63.7912 65.3628 61.2937C68.3797 58.7512 71.4202 56.1921 74.2521 53.6567C78.4548 49.8928 80.9096 46.8332 82.3089 44.4188Z" fill="#020C6A"/>
<path opacity="0.3" fill-rule="evenodd" clip-rule="evenodd" d="M74.2545 53.6543C71.4226 56.1897 68.3797 58.7512 65.3652 61.2913C62.4005 63.7888 59.4643 66.2696 56.7795 68.6912C49.7923 74.9929 44.5176 80.9033 44.9445 85.7084C44.9445 85.7084 52.4819 79.632 61.0676 72.5002C63.8757 70.1664 66.7977 67.7211 69.6035 65.3375C75.9906 59.9134 81.7847 54.8165 84.3083 52.1174C91.3286 44.6085 83.6062 37.2158 83.6062 37.2158C83.6062 37.2158 85.1929 39.4452 82.3089 44.4164C80.9096 46.8332 78.4548 49.8928 74.2545 53.6543Z" fill="#00FFFF"/>
<path opacity="0.3" fill-rule="evenodd" clip-rule="evenodd" d="M74.2545 53.6543C71.4227 56.1897 68.3797 58.7512 65.3652 61.2913C63.4607 62.897 61.5681 64.4932 59.7466 66.0728C59.8272 66.0087 70.1253 57.9235 73.6023 54.9754C77.0911 52.0155 80.8266 47.0229 83.1177 48.5361C85.4088 50.0493 81.9745 53.9223 79.1925 56.472C76.4128 59.0216 57.446 74.7249 48.9765 82.4354C51.9839 79.9878 56.3692 76.3993 61.0676 72.4978C63.8758 70.164 66.7977 67.7187 69.6035 65.3351C75.9906 59.911 81.7848 54.8141 84.3083 52.1151C91.3287 44.6061 83.6063 37.2134 83.6063 37.2134C83.6063 37.2134 85.193 39.4429 82.3089 44.414C80.9096 46.8332 78.4549 49.8928 74.2545 53.6543Z" fill="white"/>
<path d="M94.2412 65.1976C94.9029 65.0553 95.5931 65.2593 96.3141 65.8095C97.0351 66.3621 97.4027 66.974 97.4146 67.65C97.4264 68.3259 97.1039 69.0944 96.4422 69.9577L95.8492 70.7332L97.4786 71.9784L96.4825 73.2805L90.6456 68.8145L92.2228 66.7511C92.9083 65.8617 93.5818 65.3423 94.2412 65.1976ZM95.8065 67.9109C95.7496 67.6215 95.5551 67.3464 95.216 67.0903C94.8792 66.8317 94.5614 66.7511 94.2649 66.846C93.9684 66.9408 93.6554 67.2017 93.3257 67.631L92.7565 68.3734L94.7203 69.8747L95.3915 68.9971C95.7259 68.5631 95.8635 68.2026 95.8065 67.9109Z" fill="white"/>
<path d="M103.64 64.1185L102.715 65.2782L102.182 64.8513C102.329 65.4893 102.215 66.0419 101.84 66.5092C101.465 66.9788 101.017 67.2634 100.493 67.3654C99.9689 67.4674 99.4803 67.3369 99.0273 66.9764C98.5743 66.6159 98.368 66.1819 98.4059 65.6743C98.4439 65.1668 98.6906 64.6284 99.1436 64.0568L99.8788 63.1366L99.8551 63.1176C99.3831 62.7429 98.9491 62.8022 98.5506 63.3026C98.3799 63.516 98.2423 63.7769 98.1379 64.0829C98.0336 64.3888 97.9767 64.6734 97.9719 64.9391L96.7362 64.8537C96.7766 63.9358 97.0944 63.1057 97.6897 62.3586C98.119 61.8226 98.6028 61.4906 99.1412 61.3649C99.6796 61.2392 100.242 61.4076 100.823 61.8724L103.64 64.1185ZM100.965 64.0165L100.752 63.8457L100.135 64.6189C99.7412 65.1122 99.6985 65.4822 100.004 65.7265C100.163 65.8522 100.332 65.8925 100.512 65.8403C100.69 65.7905 100.868 65.6554 101.043 65.4372C101.219 65.219 101.304 64.9723 101.304 64.6972C101.304 64.422 101.19 64.1944 100.965 64.0165Z" fill="white"/>
<path d="M102.208 58.7465L104.162 60.3592C104.331 60.4968 104.497 60.5632 104.663 60.5537C104.829 60.5466 104.961 60.4826 105.059 60.3616C105.246 60.1339 105.303 59.8588 105.227 59.5315L106.453 59.7805C106.486 60.4446 106.33 60.9854 105.986 61.4052C105.64 61.825 105.21 62.0645 104.696 62.1262C104.181 62.1879 103.685 62.0218 103.211 61.6305L101.2 59.9703L100.778 60.4802L99.9025 59.7568L100.325 59.2469L99.0202 58.1701L100.031 56.9463L101.335 58.0231L102.205 56.97L103.081 57.6934L102.208 58.7465Z" fill="white"/>
<path d="M106.138 56.351L108.45 58.3385L107.423 59.5339L101.506 54.4489L102.533 53.2535L104.639 55.0632C104.582 54.3872 104.748 53.8227 105.132 53.3745C105.519 52.9262 106.003 52.6843 106.586 52.6487C107.17 52.6155 107.729 52.8266 108.261 53.282L110.869 55.5233L109.842 56.7186L107.497 54.705C106.837 54.1382 106.299 54.0979 105.884 54.5817C105.678 54.8212 105.585 55.1035 105.607 55.4308C105.626 55.7557 105.801 56.064 106.138 56.351Z" fill="white"/>
<path d="M113.336 50.1465C113.749 50.5189 113.943 50.9719 113.919 51.5008C113.893 52.0297 113.67 52.5301 113.248 52.9974C112.966 53.3104 112.617 53.5832 112.2 53.8204C111.783 54.0575 111.341 54.2117 110.879 54.2852L110.611 53.1065C111.344 52.976 111.934 52.663 112.38 52.1673C112.515 52.0155 112.594 51.8708 112.615 51.7285C112.634 51.5862 112.596 51.47 112.496 51.3799C112.397 51.2897 112.252 51.2707 112.058 51.3158C111.863 51.3632 111.626 51.47 111.344 51.636C111.062 51.802 110.839 51.923 110.677 51.9965C110.516 52.0724 110.314 52.1436 110.075 52.21C109.591 52.3499 109.155 52.2432 108.768 51.8921C108.381 51.5411 108.206 51.1 108.244 50.5687C108.282 50.0351 108.524 49.5228 108.97 49.0271C109.416 48.5338 110.03 48.1899 110.808 47.9954L111.194 49.1362C110.616 49.2737 110.163 49.5251 109.838 49.8857C109.51 50.2462 109.446 50.5165 109.643 50.6968C109.752 50.7964 109.89 50.8154 110.056 50.7585C110.222 50.7015 110.466 50.5758 110.789 50.3861C111.111 50.1964 111.346 50.0659 111.491 49.9924C111.636 49.9212 111.825 49.8477 112.06 49.7766C112.494 49.6532 112.921 49.7742 113.336 50.1465Z" fill="white"/>
<path d="M114.316 47.2293L116.514 49.3425L115.421 50.4786L109.795 45.071L110.888 43.935L112.89 45.8584C112.871 45.1801 113.068 44.6275 113.478 44.2006C113.889 43.7737 114.387 43.5602 114.973 43.5578C115.558 43.5555 116.104 43.7974 116.609 44.2836L119.088 46.6672L117.994 47.8033L115.765 45.6616C115.139 45.0592 114.603 44.988 114.161 45.4481C113.943 45.6758 113.834 45.9533 113.836 46.2806C113.836 46.6055 113.995 46.9233 114.316 47.2293Z" fill="white"/>
<path d="M123.523 42.3981L122.448 43.4203L121.976 42.9246C122.036 43.5768 121.846 44.1081 121.412 44.5208C120.978 44.9334 120.494 45.1564 119.96 45.1849C119.427 45.2133 118.959 45.0188 118.561 44.599C118.163 44.1792 118.015 43.7215 118.122 43.2234C118.229 42.7254 118.547 42.2249 119.073 41.7221L119.927 40.911L119.906 40.8873C119.491 40.4509 119.052 40.4532 118.589 40.892C118.393 41.0794 118.219 41.3189 118.075 41.6083C117.928 41.8976 117.835 42.1727 117.795 42.4336L116.581 42.1799C116.747 41.2762 117.174 40.4959 117.866 39.8389C118.364 39.3646 118.888 39.1037 119.441 39.0515C119.993 39.0017 120.525 39.2436 121.037 39.782L123.523 42.3981ZM120.885 41.9308L120.698 41.734L119.982 42.4147C119.524 42.8487 119.431 43.2092 119.702 43.4938C119.842 43.6408 120.003 43.7025 120.188 43.6764C120.373 43.6503 120.565 43.5412 120.769 43.3491C120.973 43.157 121.092 42.9222 121.127 42.6518C121.165 42.3791 121.085 42.1395 120.885 41.9308Z" fill="white"/>
<path d="M125.738 40.4675L124.55 41.5039L119.424 35.6196L120.613 34.5832L125.738 40.4675Z" fill="white"/>
<path d="M130.588 36.6229L129.412 37.5241L128.997 36.981C128.985 37.6356 128.74 38.1432 128.266 38.5084C127.789 38.8737 127.287 39.042 126.753 39.0136C126.219 38.9851 125.776 38.7408 125.425 38.2831C125.074 37.823 124.977 37.3534 125.135 36.8695C125.294 36.3857 125.664 35.9232 126.243 35.4797L127.178 34.7634L127.159 34.7373C126.793 34.2582 126.355 34.2132 125.849 34.6021C125.631 34.7682 125.437 34.9864 125.259 35.2591C125.083 35.5319 124.96 35.7951 124.891 36.0513L123.712 35.6694C123.973 34.7895 124.483 34.059 125.24 33.4803C125.785 33.0629 126.336 32.8589 126.888 32.866C127.443 32.8755 127.946 33.1744 128.397 33.7626L130.588 36.6229ZM128.017 35.8781L127.851 35.66L127.066 36.26C126.566 36.6442 126.433 36.9905 126.672 37.3036C126.796 37.4648 126.95 37.5431 127.137 37.5384C127.322 37.5336 127.526 37.4459 127.749 37.2751C127.972 37.1043 128.117 36.8861 128.181 36.6205C128.247 36.3525 128.193 36.1058 128.017 35.8781Z" fill="white"/>
<defs>
<linearGradient id="paint0_linear_35_500" x1="20.1589" y1="99.1971" x2="132.539" y2="99.1971" gradientUnits="userSpaceOnUse">
<stop stop-color="white"/>
<stop offset="1" stop-color="#009FE3"/>
</linearGradient>
<linearGradient id="paint1_linear_35_500" x1="78.0593" y1="112.032" x2="30.9947" y2="21.174" gradientUnits="userSpaceOnUse">
<stop stop-color="#FF0000"/>
<stop offset="1" stop-color="#FFFF00"/>
</linearGradient>
<linearGradient id="paint2_linear_35_500" x1="49.7486" y1="45.9789" x2="131.274" y2="138.305" gradientUnits="userSpaceOnUse">
<stop stop-color="#0000FF"/>
<stop offset="1" stop-color="#00FFFF"/>
</linearGradient>
<linearGradient id="paint3_linear_35_500" x1="37.6076" y1="108.093" x2="92.7584" y2="21.903" gradientUnits="userSpaceOnUse">
<stop stop-color="#0000FF"/>
<stop offset="1" stop-color="#00FFFF"/>
</linearGradient>
</defs>
</svg>
