<svg xmlns="http://www.w3.org/2000/svg" xmlns:xlink="http://www.w3.org/1999/xlink" width="1080" zoomAndPan="magnify" viewBox="0 0 810 809.999993" height="1080" preserveAspectRatio="xMidYMid meet" version="1.0"><defs><clipPath id="3e1cc16195"><path d="M 575 534 L 702.835938 534 L 702.835938 587 L 575 587 Z M 575 534 " clip-rule="nonzero"/></clipPath><clipPath id="54d0462861"><path d="M 575 560 L 702.835938 560 L 702.835938 605 L 575 605 Z M 575 560 " clip-rule="nonzero"/></clipPath><clipPath id="e628a35786"><path d="M 355 566 L 634 566 L 634 701.957031 L 355 701.957031 Z M 355 566 " clip-rule="nonzero"/></clipPath><clipPath id="aa3fce05e3"><path d="M 355 565 L 634 565 L 634 701.957031 L 355 701.957031 Z M 355 565 " clip-rule="nonzero"/></clipPath><clipPath id="fcb82224ef"><path d="M 395 618 L 478 618 L 478 701.957031 L 395 701.957031 Z M 395 618 " clip-rule="nonzero"/></clipPath><clipPath id="62abfed1f1"><path d="M 111 662 L 189 662 L 189 701.957031 L 111 701.957031 Z M 111 662 " clip-rule="nonzero"/></clipPath></defs><path fill="#1a237e" d="M 691.992188 590.726562 C 691.992188 605.289062 663.546875 617.097656 628.464844 617.097656 C 593.378906 617.097656 564.933594 605.289062 564.933594 590.726562 C 564.933594 576.160156 593.378906 564.351562 628.464844 564.351562 C 663.546875 564.351562 691.992188 576.160156 691.992188 590.726562 Z M 691.992188 590.726562 " fill-opacity="1" fill-rule="nonzero"/><path fill="#253036" d="M 628.464844 617.097656 C 663.546875 617.097656 691.992188 605.289062 691.992188 590.726562 L 691.992188 608.050781 C 691.992188 622.617188 663.546875 634.421875 628.464844 634.421875 C 593.378906 634.421875 564.933594 622.617188 564.933594 608.050781 L 564.933594 590.726562 C 564.933594 605.289062 593.378906 617.097656 628.464844 617.097656 Z M 628.464844 617.097656 " fill-opacity="1" fill-rule="nonzero"/><path fill="#759df5" d="M 680.441406 588.414062 C 680.441406 598.726562 657.082031 607.085938 628.269531 607.085938 C 599.457031 607.085938 576.101562 598.726562 576.101562 588.414062 C 576.101562 578.101562 599.457031 569.738281 628.269531 569.738281 C 657.082031 569.738281 680.441406 578.101562 680.441406 588.414062 Z M 680.441406 588.414062 " fill-opacity="1" fill-rule="nonzero"/><path fill="#253036" d="M 628.269531 569.738281 C 599.457031 569.738281 576.101562 578.101562 576.101562 588.414062 C 576.101562 589.394531 576.3125 590.359375 576.71875 591.300781 C 580.597656 582.359375 602.203125 575.515625 628.269531 575.515625 C 654.339844 575.515625 675.941406 582.359375 679.820312 591.300781 C 680.230469 590.359375 680.441406 589.394531 680.441406 588.414062 C 680.441406 578.101562 657.082031 569.738281 628.269531 569.738281 Z M 628.269531 569.738281 " fill-opacity="1" fill-rule="nonzero"/><g clip-path="url(#3e1cc16195)"><path fill="#1a237e" d="M 702.6875 560.421875 C 702.6875 574.988281 674.246094 586.792969 639.160156 586.792969 C 604.074219 586.792969 575.632812 574.988281 575.632812 560.421875 C 575.632812 545.855469 604.074219 534.046875 639.160156 534.046875 C 674.246094 534.046875 702.6875 545.855469 702.6875 560.421875 Z M 702.6875 560.421875 " fill-opacity="1" fill-rule="nonzero"/></g><g clip-path="url(#54d0462861)"><path fill="#253036" d="M 639.160156 586.792969 C 674.246094 586.792969 702.6875 574.988281 702.6875 560.421875 L 702.6875 577.746094 C 702.6875 592.3125 674.246094 604.121094 639.160156 604.121094 C 604.074219 604.121094 575.632812 592.3125 575.632812 577.746094 L 575.632812 560.421875 C 575.632812 574.988281 604.074219 586.792969 639.160156 586.792969 Z M 639.160156 586.792969 " fill-opacity="1" fill-rule="nonzero"/></g><path fill="#759df5" d="M 691.136719 558.109375 C 691.136719 568.425781 667.78125 576.785156 638.96875 576.785156 C 610.152344 576.785156 586.796875 568.425781 586.796875 558.109375 C 586.796875 547.796875 610.152344 539.4375 638.96875 539.4375 C 667.78125 539.4375 691.136719 547.796875 691.136719 558.109375 Z M 691.136719 558.109375 " fill-opacity="1" fill-rule="nonzero"/><path fill="#253036" d="M 638.96875 539.4375 C 610.152344 539.4375 586.796875 547.796875 586.796875 558.109375 C 586.796875 559.09375 587.007812 560.058594 587.414062 561 C 591.292969 552.058594 612.898438 545.210938 638.96875 545.210938 C 665.035156 545.210938 686.640625 552.058594 690.515625 561 C 690.925781 560.058594 691.136719 559.09375 691.136719 558.109375 C 691.136719 547.796875 667.78125 539.4375 638.96875 539.4375 Z M 638.96875 539.4375 " fill-opacity="1" fill-rule="nonzero"/><path fill="#1a237e" d="M 700.902344 533.683594 C 700.902344 548.25 672.460938 560.058594 637.375 560.058594 C 602.289062 560.058594 573.847656 548.25 573.847656 533.683594 C 573.847656 519.117188 602.289062 507.308594 637.375 507.308594 C 672.460938 507.308594 700.902344 519.117188 700.902344 533.683594 Z M 700.902344 533.683594 " fill-opacity="1" fill-rule="nonzero"/><path fill="#253036" d="M 637.375 560.058594 C 672.460938 560.058594 700.902344 548.25 700.902344 533.683594 L 700.902344 551.011719 C 700.902344 565.578125 672.460938 577.382812 637.375 577.382812 C 602.289062 577.382812 573.847656 565.578125 573.847656 551.011719 L 573.847656 533.683594 C 573.847656 548.25 602.289062 560.058594 637.375 560.058594 Z M 637.375 560.058594 " fill-opacity="1" fill-rule="nonzero"/><path fill="#759df5" d="M 689.351562 531.375 C 689.351562 541.6875 665.996094 550.046875 637.183594 550.046875 C 608.371094 550.046875 585.011719 541.6875 585.011719 531.375 C 585.011719 521.058594 608.371094 512.699219 637.183594 512.699219 C 665.996094 512.699219 689.351562 521.058594 689.351562 531.375 Z M 689.351562 531.375 " fill-opacity="1" fill-rule="nonzero"/><path fill="#253036" d="M 637.183594 512.699219 C 608.371094 512.699219 585.011719 521.058594 585.011719 531.375 C 585.011719 532.355469 585.222656 533.320312 585.632812 534.261719 C 589.511719 525.320312 611.113281 518.476562 637.183594 518.476562 C 663.25 518.476562 684.855469 525.320312 688.730469 534.261719 C 689.140625 533.320312 689.351562 532.355469 689.351562 531.375 C 689.351562 521.058594 665.996094 512.699219 637.183594 512.699219 Z M 637.183594 512.699219 " fill-opacity="1" fill-rule="nonzero"/><path fill="#1a237e" d="M 692.3125 476.117188 C 692.3125 507.125 670.195312 532.265625 642.910156 532.265625 C 615.628906 532.265625 593.511719 507.125 593.511719 476.117188 C 593.511719 445.105469 615.628906 419.96875 642.910156 419.96875 C 670.195312 419.96875 692.3125 445.105469 692.3125 476.117188 Z M 692.3125 476.117188 " fill-opacity="1" fill-rule="nonzero"/><path fill="#759df5" d="M 684.117188 476.839844 C 684.117188 502.660156 665.882812 523.589844 643.394531 523.589844 C 620.898438 523.589844 602.667969 502.660156 602.667969 476.839844 C 602.667969 451.019531 620.898438 430.089844 643.394531 430.089844 C 665.882812 430.089844 684.117188 451.019531 684.117188 476.839844 Z M 684.117188 476.839844 " fill-opacity="1" fill-rule="nonzero"/><path fill="#253036" d="M 642.910156 532.265625 C 641.082031 532.265625 639.273438 532.152344 637.496094 531.933594 L 633.71875 531.699219 C 620.816406 530.902344 607.265625 528.839844 598.144531 519.675781 C 587.628906 509.117188 580.980469 493.519531 580.980469 476.117188 C 580.980469 458.886719 587.5 443.425781 597.835938 432.867188 C 606.960938 423.546875 620.632812 421.402344 633.652344 420.566406 L 637.246094 420.332031 C 639.105469 420.089844 640.996094 419.96875 642.910156 419.96875 L 637.246094 420.332031 C 612.628906 423.527344 593.507812 447.285156 593.507812 476.117188 C 593.507812 505.046875 612.761719 528.867188 637.496094 531.933594 Z M 642.910156 532.265625 " fill-opacity="1" fill-rule="nonzero"/><path fill="#253036" d="M 646.527344 449.707031 C 654.238281 451.285156 660.019531 458.15625 660.019531 466.300781 L 653.273438 466.300781 C 653.273438 460.691406 648.71875 456.113281 643.152344 456.113281 L 641.222656 456.113281 C 636.699219 456.113281 633.03125 459.78125 633.03125 464.308594 C 633.03125 468.832031 636.699219 472.5 641.222656 472.5 L 645.078125 472.5 C 653.332031 472.5 660.019531 479.191406 660.019531 487.441406 C 660.019531 495.207031 654.097656 501.585938 646.527344 502.316406 L 646.527344 507.203125 L 639.777344 507.203125 L 639.777344 502.042969 C 632.0625 500.464844 626.285156 493.589844 626.285156 485.449219 L 633.03125 485.449219 C 633.03125 491.058594 637.582031 495.636719 643.152344 495.636719 L 645.078125 495.636719 C 649.605469 495.636719 653.273438 491.96875 653.273438 487.441406 C 653.273438 482.917969 649.605469 479.25 645.078125 479.25 L 641.222656 479.25 C 632.972656 479.25 626.285156 472.558594 626.285156 464.308594 C 626.285156 456.542969 632.203125 450.164062 639.777344 449.4375 L 639.777344 444.789062 L 646.527344 444.789062 Z M 646.527344 449.707031 " fill-opacity="1" fill-rule="evenodd"/><path fill="#253036" d="M 290.597656 134.492188 C 290.597656 119.878906 302.445312 108.03125 317.058594 108.03125 L 545.839844 108.03125 C 560.453125 108.03125 572.300781 119.878906 572.300781 134.492188 L 572.300781 608.519531 C 572.300781 623.132812 560.453125 634.980469 545.839844 634.980469 L 317.058594 634.980469 C 302.445312 634.980469 290.597656 623.132812 290.597656 608.519531 Z M 290.597656 134.492188 " fill-opacity="1" fill-rule="nonzero"/><path fill="#f2f2f2" d="M 562.359375 582.339844 L 562.359375 142.441406 C 562.359375 131.675781 553.628906 122.945312 542.863281 122.945312 L 473.601562 122.945312 C 471.671875 122.945312 470.105469 124.507812 470.105469 126.4375 C 470.105469 135.445312 462.808594 142.742188 453.804688 142.742188 L 409.09375 142.742188 C 400.089844 142.742188 392.792969 135.445312 392.792969 126.4375 C 392.792969 124.507812 391.226562 122.945312 389.296875 122.945312 L 320.039062 122.945312 C 309.269531 122.945312 300.542969 131.675781 300.542969 142.441406 L 300.542969 582.339844 C 300.542969 593.109375 309.269531 601.835938 320.039062 601.835938 L 542.863281 601.835938 C 553.628906 601.835938 562.359375 593.109375 562.359375 582.339844 Z M 562.359375 582.339844 " fill-opacity="1" fill-rule="nonzero"/><path fill="#253036" d="M 349.902344 558.753906 L 521.890625 558.753906 L 521.890625 572.097656 L 349.902344 572.097656 Z M 349.902344 558.753906 " fill-opacity="1" fill-rule="nonzero"/><g clip-path="url(#e628a35786)"><path fill="#f2f2f2" d="M 374.367188 601.007812 C 374.367188 577.980469 366.210938 568.390625 355.835938 566.167969 L 513.734375 566.167969 C 534.492188 577.285156 534.492188 597.304688 534.492188 618.445312 L 590.09375 618.445312 C 597.753906 621.777344 613.070312 632.589844 613.070312 649.195312 C 613.070312 669.953125 621.226562 698.121094 633.828125 701.085938 L 400.632812 701.085938 C 399.160156 701.320312 397.574219 701.332031 395.867188 701.085938 C 369.917969 697.378906 374.367188 624.039062 374.367188 601.007812 Z M 374.367188 601.007812 " fill-opacity="1" fill-rule="nonzero"/></g><g clip-path="url(#aa3fce05e3)"><path fill="#253036" d="M 355.6875 566.847656 L 355.835938 565.46875 L 513.910156 565.46875 L 514.066406 565.554688 C 524.628906 571.210938 529.925781 579.15625 532.566406 588.355469 C 535.136719 597.304688 535.1875 607.441406 535.191406 617.75 L 590.238281 617.75 L 590.367188 617.804688 C 594.277344 619.507812 600.105469 623.09375 604.96875 628.371094 C 609.832031 633.648438 613.769531 640.664062 613.769531 649.195312 C 613.769531 659.496094 615.792969 671.648438 619.378906 681.574219 C 621.171875 686.539062 623.34375 690.921875 625.828125 694.230469 C 628.3125 697.546875 631.0625 699.722656 633.988281 700.410156 L 633.828125 701.785156 L 400.6875 701.785156 C 399.15625 702.023438 397.515625 702.027344 395.769531 701.777344 C 388.914062 700.796875 384.183594 695.226562 380.917969 687.394531 C 377.648438 679.539062 375.761719 669.222656 374.695312 658.363281 C 373.023438 641.382812 373.339844 622.914062 373.558594 610.183594 C 373.617188 606.625 373.671875 603.515625 373.671875 601.007812 C 373.671875 589.566406 371.644531 581.550781 368.394531 576.144531 C 365.164062 570.761719 360.695312 567.921875 355.6875 566.847656 Z M 400.578125 700.390625 L 395.917969 700.390625 C 389.824219 699.5 385.394531 694.515625 382.203125 686.855469 C 379.011719 679.195312 377.144531 669.042969 376.082031 658.226562 C 374.421875 641.339844 374.730469 622.996094 374.949219 610.261719 C 375.011719 606.683594 375.0625 603.546875 375.0625 601.007812 C 375.0625 589.421875 373.015625 581.128906 369.589844 575.425781 C 367.085938 571.257812 363.859375 568.5 360.214844 566.863281 L 513.558594 566.863281 C 523.652344 572.320312 528.695312 579.910156 531.230469 588.742188 C 533.734375 597.46875 533.796875 607.402344 533.796875 617.75 L 440.332031 617.75 C 439.582031 617.699219 438.828125 617.699219 438.074219 617.75 C 434.023438 618.019531 430.054688 619.746094 426.867188 623.1875 C 423.683594 626.625 421.3125 631.730469 420.378906 638.722656 C 420.140625 640.523438 419.996094 643.441406 419.820312 647.03125 C 419.738281 648.699219 419.648438 650.511719 419.539062 652.421875 C 419.191406 658.480469 418.640625 665.597656 417.484375 672.484375 C 416.328125 679.382812 414.570312 686.003906 411.835938 691.085938 C 409.113281 696.144531 405.476562 699.589844 400.578125 700.390625 Z M 404.980469 700.390625 L 475.464844 700.390625 C 468.816406 694.789062 464.359375 688.949219 461.550781 680.171875 C 458.550781 670.792969 457.441406 658.097656 457.441406 638.816406 C 457.441406 627.332031 448.972656 619.726562 440.285156 619.140625 L 438.144531 619.140625 C 434.449219 619.394531 430.820312 620.96875 427.886719 624.132812 C 424.945312 627.3125 422.664062 632.132812 421.761719 638.910156 C 421.53125 640.644531 421.390625 643.46875 421.214844 647.007812 C 421.132812 648.691406 421.039062 650.535156 420.929688 652.5 C 420.578125 658.574219 420.027344 665.75 418.855469 672.714844 C 417.691406 679.671875 415.902344 686.464844 413.0625 691.746094 C 411.007812 695.566406 408.371094 698.644531 404.980469 700.390625 Z M 446.230469 619.140625 C 453.21875 622.046875 458.832031 629.183594 458.832031 638.816406 C 458.832031 658.085938 459.949219 670.59375 462.878906 679.746094 C 465.765625 688.777344 470.429688 694.574219 477.65625 700.390625 L 630.339844 700.390625 C 628.292969 699.171875 626.414062 697.332031 624.710938 695.0625 C 622.121094 691.609375 619.890625 687.09375 618.070312 682.050781 C 614.429688 671.964844 612.378906 659.652344 612.378906 649.195312 C 612.378906 641.117188 608.652344 634.425781 603.941406 629.3125 C 599.285156 624.257812 593.699219 620.796875 589.945312 619.140625 Z M 446.230469 619.140625 " fill-opacity="1" fill-rule="evenodd"/></g><path fill="#253036" d="M 532.882812 618.394531 L 587.128906 618.394531 C 587.511719 618.394531 587.824219 618.707031 587.824219 619.089844 C 587.824219 619.472656 587.511719 619.785156 587.128906 619.785156 L 532.882812 619.785156 L 438.863281 619.917969 C 438.480469 619.917969 438.167969 619.609375 438.167969 619.222656 C 438.164062 618.839844 438.476562 618.527344 438.863281 618.527344 Z M 532.882812 618.394531 " fill-opacity="1" fill-rule="evenodd"/><g clip-path="url(#fcb82224ef)"><path fill="#253036" d="M 400.632812 701.085938 C 399.160156 701.320312 397.574219 701.332031 395.867188 701.085938 L 400.632812 701.085938 C 421.535156 697.761719 419.6875 649.203125 421.070312 638.816406 C 422.90625 625.046875 430.367188 618.960938 438.121094 618.445312 C 447.898438 617.792969 458.136719 626 458.136719 638.816406 C 458.136719 677.363281 462.585938 689.226562 477.410156 701.085938 Z M 400.632812 701.085938 " fill-opacity="1" fill-rule="nonzero"/></g><path fill="#759df5" d="M 329.148438 230.550781 C 329.148438 225.933594 332.886719 222.195312 337.503906 222.195312 L 534.292969 222.195312 C 538.90625 222.195312 542.648438 225.933594 542.648438 230.550781 L 542.648438 330.96875 C 542.648438 335.582031 538.90625 339.324219 534.292969 339.324219 L 337.503906 339.324219 C 332.886719 339.324219 329.148438 335.582031 329.148438 330.96875 Z M 329.148438 230.550781 " fill-opacity="1" fill-rule="nonzero"/><path fill="#1a237e" d="M 475.929688 256.113281 C 475.929688 254.578125 477.175781 253.328125 478.714844 253.328125 L 528 253.328125 C 529.539062 253.328125 530.785156 254.578125 530.785156 256.113281 L 530.785156 305.402344 C 530.785156 306.941406 529.539062 308.1875 528 308.1875 L 478.714844 308.1875 C 477.175781 308.1875 475.929688 306.941406 475.929688 305.402344 Z M 475.929688 256.113281 " fill-opacity="1" fill-rule="nonzero"/><path fill="#253036" d="M 358.800781 258.519531 C 358.800781 255.652344 361.125 253.328125 363.988281 253.328125 L 426.261719 253.328125 C 429.125 253.328125 431.449219 255.652344 431.449219 258.519531 C 431.449219 261.386719 429.125 263.707031 426.261719 263.707031 L 363.988281 263.707031 C 361.125 263.707031 358.800781 261.386719 358.800781 258.519531 Z M 358.800781 258.519531 " fill-opacity="1" fill-rule="nonzero"/><path fill="#253036" d="M 424.035156 387.507812 C 424.035156 384.644531 426.359375 382.320312 429.226562 382.320312 L 506.324219 382.320312 C 509.1875 382.320312 511.511719 384.644531 511.511719 387.507812 C 511.511719 390.375 509.1875 392.699219 506.324219 392.699219 L 429.226562 392.699219 C 426.359375 392.699219 424.035156 390.375 424.035156 387.507812 Z M 424.035156 387.507812 " fill-opacity="1" fill-rule="nonzero"/><path fill="#253036" d="M 358.800781 280.757812 C 358.800781 277.894531 361.125 275.570312 363.988281 275.570312 L 442.570312 275.570312 C 445.4375 275.570312 447.757812 277.894531 447.757812 280.757812 C 447.757812 283.625 445.4375 285.949219 442.570312 285.949219 L 363.988281 285.949219 C 361.125 285.949219 358.800781 283.625 358.800781 280.757812 Z M 358.800781 280.757812 " fill-opacity="1" fill-rule="nonzero"/><path fill="#253036" d="M 424.035156 409.75 C 424.035156 406.882812 426.359375 404.558594 429.226562 404.558594 L 525.597656 404.558594 C 528.464844 404.558594 530.785156 406.882812 530.785156 409.75 C 530.785156 412.613281 528.464844 414.9375 525.597656 414.9375 L 429.226562 414.9375 C 426.359375 414.9375 424.035156 412.613281 424.035156 409.75 Z M 424.035156 409.75 " fill-opacity="1" fill-rule="nonzero"/><path fill="#759df5" d="M 329.148438 382.320312 L 394.382812 382.320312 L 394.382812 447.554688 L 329.148438 447.554688 Z M 329.148438 382.320312 " fill-opacity="1" fill-rule="nonzero"/><path fill="#253036" d="M 337.195312 400.804688 C 337.195312 400.226562 337.664062 399.757812 338.242188 399.757812 L 349.359375 399.757812 L 350.292969 404.582031 L 376.832031 404.582031 L 372.65625 424.035156 L 354.386719 424.035156 L 354.984375 427.734375 L 373.675781 427.734375 C 374.253906 427.734375 374.71875 428.203125 374.71875 428.777344 C 374.71875 429.355469 374.253906 429.824219 373.675781 429.824219 L 353.203125 429.824219 L 352.132812 423.183594 L 348.40625 405.835938 L 347.636719 401.847656 L 338.242188 401.847656 C 337.664062 401.847656 337.195312 401.378906 337.195312 400.804688 Z M 354.003906 421.945312 L 358.460938 421.945312 L 357.398438 415.351562 L 352.589844 415.351562 Z M 352.140625 413.265625 L 357.0625 413.265625 L 356 406.671875 L 350.722656 406.671875 Z M 358.117188 406.671875 L 359.179688 413.265625 L 366.515625 413.265625 L 367.753906 406.671875 Z M 369.878906 406.671875 L 368.640625 413.265625 L 372.832031 413.265625 L 374.246094 406.671875 Z M 372.382812 415.351562 L 368.25 415.351562 L 367.007812 421.945312 L 370.964844 421.945312 Z M 364.882812 421.945312 L 366.121094 415.351562 L 359.515625 415.351562 L 360.578125 421.945312 Z M 364.882812 421.945312 " fill-opacity="1" fill-rule="evenodd"/><path fill="#253036" d="M 359.222656 433.441406 C 359.222656 434.730469 358.175781 435.773438 356.890625 435.773438 C 355.601562 435.773438 354.558594 434.730469 354.558594 433.441406 C 354.558594 432.152344 355.601562 431.109375 356.890625 431.109375 C 358.175781 431.109375 359.222656 432.152344 359.222656 433.441406 Z M 359.222656 433.441406 " fill-opacity="1" fill-rule="nonzero"/><path fill="#253036" d="M 370.878906 433.441406 C 370.878906 434.730469 369.835938 435.773438 368.550781 435.773438 C 367.261719 435.773438 366.21875 434.730469 366.21875 433.441406 C 366.21875 432.152344 367.261719 431.109375 368.550781 431.109375 C 369.835938 431.109375 370.878906 432.152344 370.878906 433.441406 Z M 370.878906 433.441406 " fill-opacity="1" fill-rule="nonzero"/><path fill="#1a237e" d="M 379.558594 507.515625 C 379.558594 496.511719 388.480469 487.589844 399.484375 487.589844 L 477.207031 487.589844 C 488.210938 487.589844 497.136719 496.511719 497.136719 507.515625 C 497.136719 518.523438 488.210938 527.445312 477.207031 527.445312 L 399.484375 527.445312 C 388.480469 527.445312 379.558594 518.523438 379.558594 507.515625 Z M 379.558594 507.515625 " fill-opacity="1" fill-rule="nonzero"/><path fill="#253036" d="M 477.207031 488.980469 L 399.484375 488.980469 C 389.25 488.980469 380.949219 497.277344 380.949219 507.515625 C 380.949219 517.753906 389.25 526.050781 399.484375 526.050781 L 477.207031 526.050781 C 487.445312 526.050781 495.742188 517.753906 495.742188 507.515625 C 495.742188 497.277344 487.445312 488.980469 477.207031 488.980469 Z M 399.484375 487.589844 C 388.480469 487.589844 379.558594 496.511719 379.558594 507.515625 C 379.558594 518.523438 388.480469 527.445312 399.484375 527.445312 L 477.207031 527.445312 C 488.210938 527.445312 497.136719 518.523438 497.136719 507.515625 C 497.136719 496.511719 488.210938 487.589844 477.207031 487.589844 Z M 399.484375 487.589844 " fill-opacity="1" fill-rule="evenodd"/><path fill="#f2f2f2" d="M 418.371094 493.566406 C 418.371094 492.988281 418.835938 492.523438 419.414062 492.523438 L 429.042969 492.523438 L 429.84375 496.644531 L 452.59375 496.644531 L 448.953125 513.578125 L 433.394531 513.578125 L 433.855469 516.433594 L 449.707031 516.433594 C 450.28125 516.433594 450.75 516.902344 450.75 517.480469 C 450.75 518.054688 450.28125 518.523438 449.707031 518.523438 L 432.074219 518.523438 L 431.140625 512.726562 L 427.957031 497.898438 L 427.320312 494.609375 L 419.414062 494.609375 C 418.835938 494.609375 418.371094 494.144531 418.371094 493.566406 Z M 433.011719 511.488281 L 436.523438 511.488281 L 435.664062 506.15625 L 431.867188 506.15625 Z M 431.417969 504.066406 L 435.328125 504.066406 L 434.46875 498.734375 L 430.273438 498.734375 Z M 436.582031 498.734375 L 437.441406 504.066406 L 443.457031 504.066406 L 444.460938 498.734375 Z M 446.585938 498.734375 L 445.582031 504.066406 L 448.863281 504.066406 L 450.007812 498.734375 Z M 448.414062 506.15625 L 445.191406 506.15625 L 444.1875 511.488281 L 447.265625 511.488281 Z M 442.0625 511.488281 L 443.066406 506.15625 L 437.78125 506.15625 L 438.636719 511.488281 Z M 442.0625 511.488281 " fill-opacity="1" fill-rule="evenodd"/><path fill="#f2f2f2" d="M 437.347656 521.464844 C 437.347656 522.566406 436.457031 523.460938 435.355469 523.460938 C 434.253906 523.460938 433.363281 522.566406 433.363281 521.464844 C 433.363281 520.363281 434.253906 519.472656 435.355469 519.472656 C 436.457031 519.472656 437.347656 520.363281 437.347656 521.464844 Z M 437.347656 521.464844 " fill-opacity="1" fill-rule="nonzero"/><path fill="#f2f2f2" d="M 447.316406 521.464844 C 447.316406 522.566406 446.421875 523.460938 445.324219 523.460938 C 444.222656 523.460938 443.332031 522.566406 443.332031 521.464844 C 443.332031 520.363281 444.222656 519.472656 445.324219 519.472656 C 446.421875 519.472656 447.316406 520.363281 447.316406 521.464844 Z M 447.316406 521.464844 " fill-opacity="1" fill-rule="nonzero"/><path fill="#759df5" d="M 329.148438 179.199219 C 329.148438 171.011719 335.785156 164.371094 343.972656 164.371094 L 469.996094 164.371094 C 478.1875 164.371094 484.824219 171.011719 484.824219 179.199219 C 484.824219 187.386719 478.1875 194.027344 469.996094 194.027344 L 343.972656 194.027344 C 335.785156 194.027344 329.148438 187.386719 329.148438 179.199219 Z M 329.148438 179.199219 " fill-opacity="1" fill-rule="nonzero"/><path fill="#f2f2f2" d="M 345.738281 172.480469 C 342.722656 172.480469 340.222656 175.058594 340.222656 178.308594 C 340.222656 181.558594 342.722656 184.136719 345.738281 184.136719 C 347.375 184.136719 348.851562 183.386719 349.867188 182.175781 C 350.726562 181.148438 351.257812 179.796875 351.257812 178.308594 C 351.257812 175.058594 348.753906 172.480469 345.738281 172.480469 Z M 338.832031 178.308594 C 338.832031 174.355469 341.890625 171.089844 345.738281 171.089844 C 349.585938 171.089844 352.648438 174.355469 352.648438 178.308594 C 352.648438 179.898438 352.15625 181.367188 351.320312 182.5625 L 356.328125 187.601562 L 355.34375 188.585938 L 350.414062 183.625 C 349.1875 184.804688 347.546875 185.527344 345.738281 185.527344 C 341.890625 185.527344 338.832031 182.265625 338.832031 178.308594 Z M 338.832031 178.308594 " fill-opacity="1" fill-rule="evenodd"/><path fill="#f2f2f2" d="M 550.0625 168.078125 C 550.0625 170.125 548.402344 171.785156 546.355469 171.785156 C 544.308594 171.785156 542.648438 170.125 542.648438 168.078125 C 542.648438 166.03125 544.308594 164.371094 546.355469 164.371094 C 548.402344 164.371094 550.0625 166.03125 550.0625 168.078125 Z M 550.0625 168.078125 " fill-opacity="1" fill-rule="nonzero"/><path fill="#f2f2f2" d="M 550.0625 178.457031 C 550.0625 180.503906 548.402344 182.164062 546.355469 182.164062 C 544.308594 182.164062 542.648438 180.503906 542.648438 178.457031 C 542.648438 176.410156 544.308594 174.75 546.355469 174.75 C 548.402344 174.75 550.0625 176.410156 550.0625 178.457031 Z M 550.0625 178.457031 " fill-opacity="1" fill-rule="nonzero"/><path fill="#f2f2f2" d="M 550.0625 188.835938 C 550.0625 190.882812 548.402344 192.542969 546.355469 192.542969 C 544.308594 192.542969 542.648438 190.882812 542.648438 188.835938 C 542.648438 186.789062 544.308594 185.128906 546.355469 185.128906 C 548.402344 185.128906 550.0625 186.789062 550.0625 188.835938 Z M 550.0625 188.835938 " fill-opacity="1" fill-rule="nonzero"/><path fill="#fcbfbc" d="M 239.226562 643.832031 C 239.414062 643.632812 239.589844 643.628906 239.75 643.785156 L 270.710938 641.164062 C 270.75 641.871094 268.042969 667.085938 278.144531 670.804688 C 270.179688 680.84375 245.535156 678.644531 238.144531 677.144531 C 241.894531 673.671875 241.78125 645.78125 239.75 643.785156 Z M 239.226562 643.832031 " fill-opacity="1" fill-rule="nonzero"/><path fill="#759df5" d="M 265.75 661.464844 C 260.558594 663.558594 262.503906 666.199219 257.9375 670.632812 C 249.265625 679.050781 244.160156 663.15625 238.265625 668.160156 C 234.589844 671.285156 235.171875 687.730469 236.488281 695.953125 C 250.460938 698.167969 277.304688 700.375 295.570312 700.421875 C 301.058594 700.433594 307.546875 700.699219 311.0625 696.5 C 316.292969 690.242188 300.34375 680.679688 289.714844 675.894531 C 287.914062 674.566406 286.179688 673.210938 284.578125 671.9375 L 284.121094 671.574219 C 283.050781 670.722656 282.007812 669.855469 280.996094 669.003906 C 279.449219 667.707031 277.964844 666.445312 276.542969 665.324219 C 272.550781 662.1875 269.015625 660.152344 265.75 661.464844 Z M 265.75 661.464844 " fill-opacity="1" fill-rule="nonzero"/><path fill="#253036" d="M 270.699219 662.464844 C 269.015625 661.769531 267.511719 661.636719 266.101562 662.207031 C 264.867188 662.703125 264.097656 663.214844 263.5625 663.746094 C 263.023438 664.277344 262.679688 664.859375 262.324219 665.574219 C 262.230469 665.765625 262.132812 665.960938 262.035156 666.167969 C 261.390625 667.527344 260.585938 669.214844 258.511719 671.226562 C 256.230469 673.441406 254.085938 674.140625 252.035156 673.878906 C 250.050781 673.625 248.289062 672.480469 246.738281 671.328125 C 246.355469 671.046875 246.003906 670.777344 245.664062 670.519531 C 245.269531 670.210938 244.882812 669.917969 244.476562 669.621094 C 243.746094 669.089844 243.066406 668.644531 242.410156 668.347656 C 241.757812 668.050781 241.164062 667.914062 240.597656 667.964844 C 240.042969 668.007812 239.449219 668.238281 238.808594 668.785156 L 237.90625 667.722656 C 238.738281 667.019531 239.59375 666.652344 240.480469 666.574219 C 241.355469 666.5 242.195312 666.71875 242.984375 667.078125 C 243.773438 667.4375 244.542969 667.945312 245.296875 668.496094 C 245.691406 668.78125 246.117188 669.109375 246.542969 669.4375 C 246.894531 669.703125 247.238281 669.96875 247.566406 670.210938 C 249.109375 671.355469 250.617188 672.292969 252.210938 672.496094 C 253.746094 672.691406 255.488281 672.21875 257.542969 670.226562 C 259.429688 668.394531 260.136719 666.914062 260.777344 665.574219 C 260.878906 665.363281 260.976562 665.15625 261.078125 664.953125 C 261.457031 664.191406 261.882812 663.445312 262.585938 662.753906 C 263.285156 662.0625 264.222656 661.460938 265.582031 660.914062 C 267.433594 660.167969 269.332031 660.394531 271.230469 661.175781 C 273.113281 661.949219 275.058594 663.292969 277.0625 664.871094 C 278.273438 665.824219 279.523438 666.875 280.808594 667.957031 C 281.046875 668.15625 281.289062 668.359375 281.53125 668.5625 C 282.546875 669.414062 283.582031 670.273438 284.648438 671.125 L 285.101562 671.488281 M 283.429688 671.933594 C 282.578125 671.25 281.746094 670.558594 280.933594 669.878906 C 280.832031 669.910156 280.722656 669.9375 280.613281 669.96875 C 280.476562 670.003906 280.324219 670.046875 280.164062 670.089844 L 280.109375 670.101562 C 279.925781 670.148438 279.730469 670.203125 279.523438 670.257812 C 278.6875 670.484375 277.675781 670.777344 276.652344 671.15625 C 275.628906 671.535156 274.621094 671.992188 273.796875 672.539062 C 272.964844 673.089844 272.375 673.695312 272.101562 674.34375 L 270.820312 673.796875 C 271.246094 672.792969 272.085938 672.003906 273.027344 671.378906 C 273.976562 670.75 275.09375 670.246094 276.167969 669.847656 C 277.25 669.449219 278.3125 669.144531 279.160156 668.914062 C 279.324219 668.871094 279.484375 668.828125 279.636719 668.789062 C 278.558594 667.882812 277.519531 667.011719 276.511719 666.207031 C 276.460938 666.226562 276.410156 666.246094 276.355469 666.265625 C 275.550781 666.558594 274.113281 667.082031 272.585938 667.800781 C 271.601562 668.261719 270.613281 668.796875 269.78125 669.375 C 268.9375 669.960938 268.316406 670.554688 267.992188 671.128906 L 266.777344 670.445312 C 267.253906 669.601562 268.078125 668.863281 268.984375 668.230469 C 269.90625 667.589844 270.96875 667.023438 271.992188 666.539062 C 273.183594 665.980469 274.363281 665.515625 275.210938 665.203125 C 273.605469 664 272.109375 663.042969 270.699219 662.464844 M 284.625 672.886719 C 284.195312 673.128906 283.660156 673.363281 283.113281 673.597656 C 282.929688 673.675781 282.746094 673.753906 282.554688 673.832031 C 281.890625 674.109375 281.179688 674.410156 280.464844 674.75 C 279.546875 675.183594 278.664062 675.671875 277.933594 676.238281 C 277.199219 676.804688 276.65625 677.417969 276.367188 678.097656 L 275.085938 677.550781 C 275.5 676.578125 276.238281 675.785156 277.082031 675.136719 C 277.925781 674.484375 278.910156 673.945312 279.867188 673.492188 C 280.613281 673.136719 281.367188 672.820312 282.03125 672.539062 C 282.21875 672.464844 282.398438 672.386719 282.566406 672.316406 C 282.898438 672.175781 283.183594 672.050781 283.429688 671.933594 M 284.625 672.886719 C 285.757812 673.785156 286.957031 674.722656 288.199219 675.65625 C 286.890625 676.007812 285.328125 676.507812 283.871094 677.144531 C 282.84375 677.59375 281.847656 678.117188 281.027344 678.710938 C 280.214844 679.300781 279.511719 680.003906 279.160156 680.832031 L 280.441406 681.378906 C 280.652344 680.886719 281.125 680.363281 281.84375 679.839844 C 282.554688 679.324219 283.453125 678.847656 284.429688 678.421875 C 286.277344 677.613281 288.328125 677.027344 289.726562 676.714844 C 294.980469 679.097656 301.453125 682.609375 305.988281 686.277344 C 308.292969 688.144531 310.035156 690 310.894531 691.714844 C 311.320312 692.566406 311.515625 693.351562 311.476562 694.070312 C 311.441406 694.777344 311.179688 695.472656 310.617188 696.144531 L 311.683594 697.039062 C 312.429688 696.148438 312.816406 695.171875 312.867188 694.140625 C 312.917969 693.121094 312.640625 692.09375 312.140625 691.09375 C 311.148438 689.109375 309.21875 687.101562 306.863281 685.195312 C 302.15625 681.386719 295.488281 677.785156 290.160156 675.382812 M 272.566406 689.910156 C 260.25 689.011719 247.96875 687.542969 239.828125 686.367188 L 240.027344 684.988281 C 248.140625 686.160156 260.386719 687.625 272.667969 688.519531 C 284.964844 689.417969 297.234375 689.738281 305.417969 688.648438 L 305.605469 690.027344 C 297.261719 691.140625 284.867188 690.804688 272.566406 689.910156 Z M 272.566406 689.910156 " fill-opacity="1" fill-rule="evenodd"/><path fill="#fcbfbc" d="M 185.671875 678.964844 C 181.6875 675.148438 185.671875 661.578125 187.953125 645.636719 L 158.304688 642.082031 C 155.910156 659.847656 155.949219 668.386719 145.785156 671.925781 C 153.574219 682.105469 178.253906 680.335938 185.671875 678.964844 Z M 185.671875 678.964844 " fill-opacity="1" fill-rule="nonzero"/><g clip-path="url(#62abfed1f1)"><path fill="#759df5" d="M 158.339844 662.808594 C 163.496094 664.992188 161.503906 667.59375 165.996094 672.109375 C 174.515625 680.675781 179.898438 664.875 185.703125 669.980469 C 189.324219 673.167969 188.460938 689.601562 186.996094 697.800781 C 172.988281 699.773438 146.109375 701.511719 127.84375 701.234375 C 122.359375 701.152344 115.867188 701.308594 112.425781 697.042969 C 107.304688 690.695312 123.421875 681.414062 134.128906 676.816406 C 135.953125 675.519531 137.710938 674.195312 139.332031 672.949219 L 139.796875 672.59375 C 140.882812 671.757812 141.941406 670.910156 142.96875 670.078125 C 144.539062 668.808594 146.039062 667.574219 147.484375 666.480469 C 151.527344 663.410156 155.101562 661.4375 158.339844 662.808594 Z M 158.339844 662.808594 " fill-opacity="1" fill-rule="nonzero"/></g><path fill="#253036" d="M 153.375 663.71875 C 155.070312 663.054688 156.574219 662.949219 157.976562 663.539062 C 159.203125 664.058594 159.960938 664.585938 160.488281 665.125 C 161.019531 665.664062 161.355469 666.257812 161.695312 666.976562 C 161.785156 667.167969 161.878906 667.367188 161.972656 667.574219 C 162.597656 668.941406 163.371094 670.644531 165.410156 672.691406 C 167.652344 674.949219 169.785156 675.683594 171.835938 675.457031 C 173.824219 675.238281 175.605469 674.125 177.179688 673 C 177.566406 672.726562 177.921875 672.464844 178.265625 672.207031 C 178.667969 671.910156 179.058594 671.621094 179.472656 671.332031 C 180.207031 670.8125 180.898438 670.382812 181.558594 670.09375 C 182.214844 669.808594 182.8125 669.683594 183.375 669.742188 C 183.929688 669.800781 184.519531 670.039062 185.152344 670.59375 L 186.070312 669.550781 C 185.253906 668.832031 184.402344 668.445312 183.519531 668.355469 C 182.644531 668.265625 181.800781 668.472656 181.003906 668.816406 C 180.210938 669.160156 179.429688 669.65625 178.671875 670.191406 C 178.269531 670.472656 177.835938 670.792969 177.40625 671.109375 C 177.050781 671.371094 176.699219 671.632812 176.371094 671.867188 C 174.804688 672.988281 173.28125 673.898438 171.683594 674.074219 C 170.148438 674.242188 168.414062 673.738281 166.394531 671.710938 C 164.542969 669.847656 163.859375 668.351562 163.242188 667 C 163.144531 666.789062 163.050781 666.582031 162.953125 666.375 C 162.585938 665.605469 162.171875 664.855469 161.484375 664.152344 C 160.796875 663.449219 159.871094 662.832031 158.519531 662.257812 C 156.679688 661.480469 154.78125 661.671875 152.867188 662.421875 C 150.96875 663.164062 149.003906 664.472656 146.96875 666.015625 C 145.746094 666.945312 144.476562 667.976562 143.171875 669.03125 C 142.929688 669.230469 142.683594 669.429688 142.4375 669.628906 C 141.410156 670.460938 140.359375 671.304688 139.28125 672.132812 L 138.816406 672.488281 M 140.480469 672.964844 C 141.34375 672.296875 142.191406 671.617188 143.011719 670.953125 C 143.113281 670.984375 143.222656 671.015625 143.332031 671.050781 C 143.46875 671.089844 143.617188 671.132812 143.78125 671.175781 L 143.832031 671.191406 C 144.015625 671.242188 144.210938 671.296875 144.417969 671.359375 C 145.246094 671.601562 146.257812 671.910156 147.273438 672.304688 C 148.289062 672.703125 149.289062 673.175781 150.105469 673.738281 C 150.925781 674.304688 151.503906 674.917969 151.769531 675.570312 L 153.058594 675.050781 C 152.648438 674.039062 151.824219 673.234375 150.894531 672.589844 C 149.957031 671.945312 148.847656 671.425781 147.777344 671.007812 C 146.707031 670.589844 145.648438 670.265625 144.804688 670.023438 C 144.636719 669.972656 144.480469 669.929688 144.332031 669.886719 C 145.425781 669 146.476562 668.148438 147.5 667.363281 C 147.550781 667.382812 147.601562 667.402344 147.65625 667.421875 C 148.453125 667.726562 149.882812 668.277344 151.398438 669.023438 C 152.371094 669.503906 153.351562 670.050781 154.171875 670.644531 C 155.003906 671.246094 155.617188 671.851562 155.933594 672.429688 L 157.15625 671.769531 C 156.695312 670.917969 155.886719 670.164062 154.988281 669.515625 C 154.082031 668.859375 153.027344 668.269531 152.011719 667.773438 C 150.832031 667.1875 149.65625 666.707031 148.820312 666.378906 C 150.441406 665.203125 151.953125 664.273438 153.375 663.71875 M 139.269531 673.898438 C 139.695312 674.148438 140.226562 674.390625 140.769531 674.632812 C 140.949219 674.714844 141.136719 674.796875 141.324219 674.878906 C 141.984375 675.167969 142.691406 675.480469 143.398438 675.832031 C 144.304688 676.28125 145.179688 676.785156 145.902344 677.363281 C 146.628906 677.941406 147.160156 678.566406 147.4375 679.25 L 148.726562 678.726562 C 148.328125 677.746094 147.605469 676.941406 146.773438 676.277344 C 145.941406 675.613281 144.964844 675.054688 144.019531 674.582031 C 143.277344 674.214844 142.53125 673.886719 141.867188 673.597656 C 141.683594 673.515625 141.507812 673.4375 141.335938 673.359375 C 141.011719 673.214844 140.722656 673.085938 140.480469 672.964844 M 139.269531 673.898438 C 138.121094 674.773438 136.90625 675.691406 135.648438 676.605469 C 136.949219 676.976562 138.503906 677.507812 139.949219 678.167969 C 140.96875 678.632812 141.953125 679.175781 142.765625 679.785156 C 143.566406 680.386719 144.257812 681.105469 144.59375 681.9375 L 143.304688 682.460938 C 143.101562 681.964844 142.640625 681.433594 141.929688 680.898438 C 141.226562 680.367188 140.335938 679.875 139.371094 679.433594 C 137.535156 678.59375 135.496094 677.96875 134.101562 677.636719 C 128.808594 679.925781 122.277344 683.328125 117.675781 686.914062 C 115.339844 688.738281 113.5625 690.5625 112.675781 692.265625 C 112.234375 693.109375 112.027344 693.890625 112.054688 694.609375 C 112.074219 695.316406 112.324219 696.015625 112.875 696.699219 L 111.792969 697.574219 C 111.0625 696.671875 110.695312 695.6875 110.660156 694.65625 C 110.628906 693.632812 110.921875 692.613281 111.441406 691.621094 C 112.46875 689.65625 114.429688 687.679688 116.820312 685.816406 C 121.59375 682.089844 128.324219 678.605469 133.695312 676.296875 M 151.03125 691.128906 C 163.359375 690.445312 175.664062 689.191406 183.824219 688.160156 L 183.648438 686.777344 C 175.519531 687.804688 163.246094 689.058594 150.953125 689.738281 C 138.644531 690.417969 126.371094 690.527344 118.203125 689.292969 L 117.996094 690.671875 C 126.316406 691.925781 138.714844 691.808594 151.03125 691.128906 Z M 151.03125 691.128906 " fill-opacity="1" fill-rule="evenodd"/><path fill="#253036" d="M 187.546875 655.3125 C 197.296875 584.988281 202.171875 597.519531 211.917969 537.640625 C 216.480469 520.089844 227.269531 478.214844 233.285156 455.324219 L 241.164062 537.890625 C 237.679688 589.859375 241.859375 571.757812 239.769531 651.132812 C 246.734375 654.617188 263.445312 653.917969 271.800781 649.742188 C 273.886719 594.039062 277.371094 578.023438 279.195312 537.890625 C 279.707031 526.59375 279.195312 431.113281 279.195312 390.363281 C 251.632812 386.59375 195.070312 376.804688 185.460938 385.847656 C 182.039062 394.320312 176.957031 414.277344 176.335938 430.394531 C 175.953125 440.414062 177.390625 450.527344 176.5 460.511719 C 174.136719 487.136719 169.445312 526.28125 169.445312 530.925781 C 159 606.570312 158.304688 621.890625 155.519531 646.957031 C 171.914062 654.871094 183.308594 656.019531 187.546875 655.3125 Z M 187.546875 655.3125 " fill-opacity="1" fill-rule="nonzero"/><path fill="#f2f2f2" d="M 255.496094 429.394531 C 255.320312 429.050781 254.898438 428.921875 254.558594 429.097656 C 251.804688 430.535156 247.515625 433.25 243.554688 436.753906 C 239.605469 440.246094 235.898438 444.589844 234.429688 449.296875 C 234.066406 450.457031 233.519531 452.410156 232.832031 454.976562 C 232.730469 455.347656 232.949219 455.730469 233.320312 455.828125 C 233.695312 455.929688 234.074219 455.707031 234.175781 455.335938 C 234.863281 452.769531 235.402344 450.839844 235.757812 449.710938 C 237.113281 445.367188 240.59375 441.230469 244.476562 437.796875 C 248.34375 434.378906 252.539062 431.722656 255.203125 430.332031 C 255.542969 430.15625 255.675781 429.734375 255.496094 429.394531 Z M 255.496094 429.394531 " fill-opacity="1" fill-rule="evenodd"/><path fill="#253036" d="M 167.992188 316.875 L 191.75 252.035156 L 190.441406 251.558594 L 166.6875 316.398438 Z M 167.992188 316.875 " fill-opacity="1" fill-rule="evenodd"/><path fill="#253036" d="M 221.210938 264.023438 L 168.359375 316.597656 L 169.339844 317.585938 L 222.191406 265.007812 Z M 221.210938 264.023438 " fill-opacity="1" fill-rule="evenodd"/><path fill="#253036" d="M 287.007812 319.128906 L 281.136719 250.324219 L 279.746094 250.441406 L 285.621094 319.246094 Z M 287.007812 319.128906 " fill-opacity="1" fill-rule="evenodd"/><path fill="#fcbfbc" d="M 209.234375 232.71875 C 220.09375 227.835938 222.835938 201.957031 221.226562 192.875 C 222.988281 196.683594 234.332031 215.015625 249.578125 214.480469 C 249.785156 217.03125 250.707031 224.78125 252.195312 229.472656 C 252.886719 231.636719 253.527344 234.085938 252.777344 236.230469 C 245.492188 257.1875 220.367188 241.035156 209.234375 232.71875 Z M 209.234375 232.71875 " fill-opacity="1" fill-rule="nonzero"/><path fill="#fcbfbc" d="M 225.542969 177.90625 C 243.511719 174.972656 248.765625 161.601562 249.230469 154.789062 C 253.359375 155.71875 261.957031 159.664062 263.300781 167.988281 C 264.980469 178.390625 271.132812 209.253906 253.796875 213.851562 C 252.359375 214.230469 250.953125 214.433594 249.578125 214.480469 C 234.332031 215.015625 222.984375 196.683594 221.226562 192.875 C 211.953125 189.105469 210.601562 179.539062 213.816406 175.96875 C 216.390625 173.109375 222.707031 176.070312 225.542969 177.90625 Z M 225.542969 177.90625 " fill-opacity="1" fill-rule="nonzero"/><path fill="#253036" d="M 220.03125 182.207031 C 218.953125 181.285156 217.710938 180.683594 216.921875 180.425781 L 217.355469 179.101562 C 218.296875 179.410156 219.703125 180.09375 220.9375 181.148438 C 222.171875 182.207031 223.296875 183.695312 223.527344 185.621094 L 222.144531 185.785156 C 221.972656 184.328125 221.113281 183.132812 220.03125 182.207031 Z M 230.839844 204.816406 C 235.753906 209.757812 242.222656 214.042969 249.554688 213.785156 L 249.601562 215.175781 C 241.691406 215.453125 234.863281 210.839844 229.851562 205.796875 C 224.832031 200.746094 221.507812 195.140625 220.59375 193.167969 L 221.859375 192.582031 C 222.707031 194.414062 225.9375 199.882812 230.839844 204.816406 Z M 230.839844 204.816406 " fill-opacity="1" fill-rule="evenodd"/><path fill="#253036" d="M 225.542969 177.90625 C 243.511719 174.972656 248.769531 161.601562 249.230469 154.789062 C 253.359375 155.71875 261.957031 159.664062 263.300781 167.988281 C 264.980469 178.390625 271.132812 209.253906 253.796875 213.847656 C 252.363281 214.230469 250.953125 214.433594 249.578125 214.480469 C 249.769531 216.886719 251.097656 227.308594 252.339844 230.597656 C 261.210938 234.273438 267.886719 239.074219 272.730469 241.363281 C 275.140625 242.5 276.617188 247.796875 279.050781 252.953125 L 285.96875 240.554688 C 289.898438 231.613281 285.074219 224.191406 279.226562 217.621094 C 273.203125 210.847656 278.339844 206.042969 280.46875 197.992188 C 282.597656 189.941406 276.882812 183.71875 272.941406 178.824219 C 269 173.925781 269.804688 167.644531 267.917969 153.285156 C 266.410156 141.796875 248.195312 137.589844 239.277344 136.925781 C 229.136719 136.414062 207.925781 140.382812 204.210938 160.308594 C 201.378906 176.621094 207.160156 177.777344 195.15625 182.332031 C 180.421875 187.925781 196.074219 199.863281 186.5625 207.734375 C 181.0625 212.746094 176.445312 230.324219 190.859375 241.363281 L 212.058594 230.597656 C 222.917969 225.714844 222.835938 201.957031 221.226562 192.875 C 211.957031 189.105469 210.605469 179.539062 213.820312 175.96875 C 216.390625 173.109375 222.707031 176.070312 225.542969 177.90625 Z M 225.542969 177.90625 " fill-opacity="1" fill-rule="nonzero"/><path fill="#253036" d="M 238.902344 176.492188 C 237.800781 178.371094 237.175781 180.957031 237.324219 183.808594 C 237.472656 186.660156 238.367188 189.167969 239.660156 190.921875 C 240.953125 192.679688 242.582031 193.609375 244.226562 193.523438 C 245.867188 193.4375 247.390625 192.34375 248.492188 190.460938 C 249.59375 188.582031 250.21875 185.992188 250.070312 183.140625 C 249.921875 180.289062 249.027344 177.78125 247.738281 176.027344 C 246.441406 174.269531 244.8125 173.339844 243.171875 173.425781 C 241.527344 173.511719 240.003906 174.605469 238.902344 176.492188 Z M 237.699219 175.789062 C 238.953125 173.648438 240.835938 172.152344 243.097656 172.035156 C 245.359375 171.917969 247.390625 173.207031 248.859375 175.203125 C 250.171875 176.988281 251.085938 179.394531 251.382812 182.082031 C 251.828125 181.917969 252.339844 181.777344 252.863281 181.699219 C 253.386719 181.621094 253.988281 181.601562 254.558594 181.734375 C 254.570312 179.386719 255.117188 177.222656 256.0625 175.554688 C 257.117188 173.683594 258.726562 172.351562 260.6875 172.246094 C 262.648438 172.144531 264.386719 173.304688 265.632812 175.050781 C 266.882812 176.808594 267.703125 179.238281 267.847656 181.925781 C 267.988281 184.613281 267.425781 187.117188 266.363281 188.996094 C 265.308594 190.863281 263.699219 192.195312 261.738281 192.300781 C 259.816406 192.402344 258.101562 191.285156 256.863281 189.589844 C 255.671875 187.960938 254.855469 185.730469 254.625 183.238281 C 254.257812 183.03125 253.726562 182.976562 253.066406 183.074219 C 252.492188 183.160156 251.921875 183.351562 251.480469 183.539062 C 251.550781 186.441406 250.886719 189.125 249.695312 191.164062 C 248.441406 193.300781 246.558594 194.796875 244.296875 194.914062 C 242.035156 195.035156 240.003906 193.742188 238.535156 191.746094 C 237.0625 189.746094 236.09375 186.964844 235.933594 183.882812 C 235.773438 180.796875 236.445312 177.933594 237.699219 175.789062 Z M 257.273438 176.238281 C 256.363281 177.851562 255.839844 180.082031 255.972656 182.546875 C 255.976562 182.636719 255.980469 182.726562 255.988281 182.816406 C 256.160156 185.21875 256.921875 187.3125 257.984375 188.769531 C 259.058594 190.230469 260.371094 190.976562 261.664062 190.910156 C 262.984375 190.839844 264.234375 189.929688 265.152344 188.308594 C 266.0625 186.695312 266.585938 184.464844 266.457031 182 C 266.324219 179.535156 265.574219 177.367188 264.5 175.859375 C 263.417969 174.34375 262.082031 173.570312 260.761719 173.636719 C 259.441406 173.707031 258.191406 174.617188 257.273438 176.238281 Z M 257.273438 176.238281 " fill-opacity="1" fill-rule="evenodd"/><path fill="#253036" d="M 246.175781 184.753906 C 246.246094 186.160156 245.546875 187.339844 244.609375 187.386719 C 243.671875 187.4375 242.855469 186.335938 242.78125 184.933594 C 242.707031 183.527344 243.40625 182.347656 244.34375 182.296875 C 245.28125 182.25 246.101562 183.347656 246.175781 184.753906 Z M 246.175781 184.753906 " fill-opacity="1" fill-rule="nonzero"/><path fill="#253036" d="M 261.472656 184.519531 C 261.546875 185.925781 260.84375 187.101562 259.910156 187.152344 C 258.972656 187.203125 258.152344 186.101562 258.078125 184.695312 C 258.003906 183.292969 258.703125 182.113281 259.640625 182.0625 C 260.578125 182.015625 261.398438 183.113281 261.472656 184.519531 Z M 261.472656 184.519531 " fill-opacity="1" fill-rule="nonzero"/><path fill="#253036" d="M 236.878906 179.421875 L 225.496094 178.597656 L 225.597656 177.210938 L 236.980469 178.03125 Z M 236.878906 179.421875 " fill-opacity="1" fill-rule="evenodd"/><path fill="#1a237e" d="M 238.910156 245.433594 C 248.136719 248.898438 250.257812 235.433594 252.339844 229.183594 C 257.941406 232.226562 275.929688 240.53125 281.3125 249.378906 C 286.257812 261.726562 295.445312 288.257812 292.617188 295.609375 C 290.734375 296.382812 285.871094 297.785156 279.472656 298.269531 C 278.824219 303.109375 277.464844 308.597656 275.039062 314.828125 L 275.097656 315.136719 C 277.644531 327.890625 282.589844 352.648438 282.722656 386.160156 C 282.726562 387.023438 282.308594 387.859375 281.621094 388.382812 C 251.839844 411.074219 241.035156 405.859375 185 388.351562 C 183.558594 387.902344 182.703125 386.382812 183.125 384.9375 C 188.949219 364.984375 198.433594 339.1875 190.507812 308.8125 C 190.449219 308.890625 190.390625 308.964844 190.335938 309.035156 C 177.898438 307.90625 167.539062 303.382812 162.59375 295.609375 C 166.597656 284.480469 175.59375 263.609375 182.378906 249.378906 C 189.164062 235.144531 203.347656 229.984375 213.472656 229.183594 C 216.355469 232.546875 229.6875 241.972656 238.910156 245.433594 Z M 238.910156 245.433594 " fill-opacity="1" fill-rule="nonzero"/><path fill="#253036" d="M 274.851562 266.496094 C 274.480469 266.597656 274.265625 266.984375 274.367188 267.351562 C 274.582031 268.128906 274.921875 269.015625 275.3125 270 C 275.402344 270.21875 275.492188 270.441406 275.582031 270.671875 C 275.910156 271.488281 276.265625 272.375 276.628906 273.347656 C 277.558594 275.847656 278.527344 278.917969 279.105469 282.671875 C 280.261719 290.175781 279.875 300.496094 274.390625 314.574219 L 274.316406 314.765625 L 274.417969 315.269531 C 276.996094 328.1875 282.027344 353.394531 282.027344 387.535156 C 282.027344 387.921875 282.339844 388.230469 282.726562 388.230469 C 283.109375 388.230469 283.421875 387.921875 283.421875 387.535156 C 283.421875 353.253906 278.367188 327.941406 275.78125 315 L 275.761719 314.890625 C 281.257812 300.699219 281.675781 290.191406 280.484375 282.460938 C 279.886719 278.582031 278.882812 275.421875 277.933594 272.863281 C 277.5625 271.867188 277.199219 270.960938 276.875 270.144531 C 276.78125 269.917969 276.691406 269.695312 276.609375 269.484375 C 276.214844 268.496094 275.902344 267.675781 275.710938 266.980469 C 275.605469 266.609375 275.222656 266.394531 274.851562 266.496094 Z M 274.851562 266.496094 " fill-opacity="1" fill-rule="evenodd"/><path fill="#253036" d="M 251.726562 228.851562 C 251.542969 229.1875 251.667969 229.613281 252.007812 229.792969 C 252.796875 230.222656 253.820312 230.753906 255.007812 231.363281 C 258.101562 232.957031 262.320312 235.132812 266.546875 237.699219 C 272.398438 241.25 278.082031 245.445312 280.6875 249.691406 C 283.152344 255.851562 286.664062 265.515625 289.210938 274.558594 C 290.484375 279.089844 291.515625 283.449219 292.050781 287.121094 C 292.320312 288.957031 292.460938 290.609375 292.449219 292.015625 C 292.441406 293.429688 292.277344 294.550781 291.96875 295.359375 L 293.269531 295.859375 C 293.664062 294.828125 293.832031 293.515625 293.84375 292.023438 C 293.851562 290.523438 293.703125 288.796875 293.429688 286.921875 C 292.882812 283.164062 291.835938 278.738281 290.550781 274.179688 C 287.980469 265.050781 284.4375 255.308594 281.957031 249.117188 L 281.9375 249.0625 L 281.90625 249.015625 C 279.121094 244.429688 273.136719 240.070312 267.269531 236.507812 C 262.996094 233.914062 258.6875 231.691406 255.589844 230.097656 C 254.421875 229.496094 253.425781 228.980469 252.671875 228.570312 C 252.332031 228.386719 251.910156 228.511719 251.726562 228.851562 Z M 251.726562 228.851562 " fill-opacity="1" fill-rule="evenodd"/><path fill="#253036" d="M 207.28125 266.492188 C 206.90625 266.398438 206.527344 266.625 206.4375 267 C 205.152344 272.167969 202.101562 281.191406 198.800781 289.636719 C 197.148438 293.855469 195.441406 297.917969 193.871094 301.277344 C 192.285156 304.65625 190.863281 307.257812 189.789062 308.597656 C 189.550781 308.898438 189.601562 309.335938 189.902344 309.578125 C 190.199219 309.816406 190.636719 309.769531 190.878906 309.46875 C 192.066406 307.984375 193.550781 305.242188 195.132812 301.871094 C 196.722656 298.476562 198.441406 294.378906 200.097656 290.140625 C 203.40625 281.675781 206.480469 272.589844 207.789062 267.335938 C 207.882812 266.960938 207.652344 266.585938 207.28125 266.492188 Z M 207.28125 266.492188 " fill-opacity="1" fill-rule="evenodd"/><path fill="#fcbfbc" d="M 233.175781 267.214844 C 230.28125 268.371094 224.898438 277.144531 224.175781 279.308594 C 189.929688 302.074219 190.644531 294.960938 178.148438 305.8125 C 177.910156 305.957031 177.679688 306.097656 177.457031 306.230469 C 171.457031 304.144531 166.53125 300.976562 163.285156 296.761719 C 156.273438 307.683594 160.613281 321.757812 167.101562 327.6875 C 172.890625 332.628906 187.546875 327.6875 227.933594 294.636719 C 229.292969 293.523438 236.304688 292.117188 240.417969 290.910156 C 243.753906 289.933594 242.722656 285.710938 240.417969 285 C 243.4375 285 245.742188 280.671875 241.296875 279.308594 C 244.863281 279.308594 246.292969 275.027344 241.867188 273.09375 C 247.433594 273.046875 257.707031 271.484375 250.554688 269.25 C 248.734375 268.679688 237.015625 265.683594 233.175781 267.214844 Z M 233.175781 267.214844 " fill-opacity="1" fill-rule="nonzero"/><path fill="#253036" d="M 273.878906 262.785156 L 250.9375 262.847656 L 242.839844 308.777344 L 265.78125 308.714844 Z M 273.878906 262.785156 " fill-opacity="1" fill-rule="nonzero"/><path fill="#fcbfbc" d="M 251.652344 282.179688 C 251.867188 283.671875 252.941406 283.726562 254.390625 284.191406 C 253.328125 285.496094 251.695312 288.457031 255.089844 289.761719 C 253.992188 290.800781 253.207031 293.769531 256.601562 294.902344 C 256.601562 295.609375 252.339844 299.847656 259.40625 301.261719 C 261.367188 301.652344 262.671875 301.5 263.644531 301.121094 C 268.121094 311.535156 279.050781 332.355469 286.964844 332.355469 C 301.664062 328.964844 296.859375 305.972656 292.621094 294.902344 L 277.78125 298.828125 C 274.890625 293.628906 272.222656 288.863281 270.8125 286.402344 C 270.820312 286.367188 270.828125 286.332031 270.832031 286.296875 C 271.402344 283.199219 272.640625 276.792969 273.191406 275.140625 C 273.886719 273.050781 271.5 270.960938 268.167969 277.925781 C 263.035156 275.992188 251.082031 278.179688 251.652344 282.179688 Z M 251.652344 282.179688 " fill-opacity="1" fill-rule="nonzero"/><path fill="#253036" d="M 256.402344 202.453125 C 257 202.132812 257.515625 201.746094 257.828125 201.351562 L 256.742188 200.480469 C 256.585938 200.675781 256.25 200.953125 255.742188 201.230469 C 255.242188 201.496094 254.628906 201.738281 253.960938 201.878906 C 252.621094 202.164062 251.148438 202.039062 249.949219 201.078125 L 249.078125 202.167969 C 250.703125 203.46875 252.648438 203.582031 254.25 203.242188 C 255.054688 203.070312 255.792969 202.78125 256.402344 202.453125 Z M 256.402344 202.453125 " fill-opacity="1" fill-rule="evenodd"/></svg>