<svg xmlns="http://www.w3.org/2000/svg" xmlns:xlink="http://www.w3.org/1999/xlink" width="500" zoomAndPan="magnify" viewBox="0 0 375 374.999991" height="500" preserveAspectRatio="xMidYMid meet" version="1.0"><defs><filter x="0%" y="0%" width="100%" height="100%" id="39f128343a"><feColorMatrix values="0 0 0 0 1 0 0 0 0 1 0 0 0 0 1 0 0 0 1 0" color-interpolation-filters="sRGB"/></filter><clipPath id="bdaed63942"><path d="M 51.300781 62.171875 L 323.492188 62.171875 L 323.492188 312.671875 L 51.300781 312.671875 Z M 51.300781 62.171875 " clip-rule="nonzero"/></clipPath><mask id="2a114e94bd"><g filter="url(#39f128343a)"><rect x="-37.5" width="450" fill="#000000" y="-37.499999" height="449.999989" fill-opacity="0.25"/></g></mask><clipPath id="6c3720fd50"><path d="M 0.300781 100 L 272.492188 100 L 272.492188 250.671875 L 0.300781 250.671875 Z M 0.300781 100 " clip-rule="nonzero"/></clipPath><clipPath id="ec5dbedd2e"><path d="M 199 97 L 272.492188 97 L 272.492188 151 L 199 151 Z M 199 97 " clip-rule="nonzero"/></clipPath><clipPath id="087dbd7de2"><path d="M 0.300781 0.171875 L 272.492188 0.171875 L 272.492188 71 L 0.300781 71 Z M 0.300781 0.171875 " clip-rule="nonzero"/></clipPath><clipPath id="6bc51a5383"><rect x="0" width="273" y="0" height="251"/></clipPath><mask id="b3d6ca360c"><g filter="url(#39f128343a)"><rect x="-37.5" width="450" fill="#000000" y="-37.499999" height="449.999989" fill-opacity="0.75"/></g></mask><clipPath id="fd7bfe3e10"><path d="M 0 1 L 46.800781 1 L 46.800781 42.601562 L 0 42.601562 Z M 0 1 " clip-rule="nonzero"/></clipPath><clipPath id="e7d3dd800a"><rect x="0" width="47" y="0" height="43"/></clipPath><mask id="8f55c007a1"><g filter="url(#39f128343a)"><rect x="-37.5" width="450" fill="#000000" y="-37.499999" height="449.999989" fill-opacity="0.75"/></g></mask><clipPath id="b665906f90"><path d="M 0.0390625 1 L 33.878906 1 L 33.878906 40 L 0.0390625 40 Z M 0.0390625 1 " clip-rule="nonzero"/></clipPath><clipPath id="da866776de"><path d="M 0.0390625 1 L 33.878906 1 L 33.878906 40.359375 L 0.0390625 40.359375 Z M 0.0390625 1 " clip-rule="nonzero"/></clipPath><clipPath id="35d04f0b1e"><rect x="0" width="34" y="0" height="41"/></clipPath><mask id="beec8a50c0"><g filter="url(#39f128343a)"><rect x="-37.5" width="450" fill="#000000" y="-37.499999" height="449.999989" fill-opacity="0.75"/></g></mask><clipPath id="ebe5fbff75"><path d="M 1 1 L 109.441406 1 L 109.441406 97.199219 L 1 97.199219 Z M 1 1 " clip-rule="nonzero"/></clipPath><clipPath id="ba8e8cd342"><rect x="0" width="110" y="0" height="98"/></clipPath><mask id="eb7b24fee4"><g filter="url(#39f128343a)"><rect x="-37.5" width="450" fill="#000000" y="-37.499999" height="449.999989" fill-opacity="0.25"/></g></mask><clipPath id="88baf6f03d"><path d="M 0.121094 0.359375 L 92 0.359375 L 92 81 L 0.121094 81 Z M 0.121094 0.359375 " clip-rule="nonzero"/></clipPath><clipPath id="80de40e1d4"><rect x="0" width="93" y="0" height="81"/></clipPath><mask id="f405f3167f"><g filter="url(#39f128343a)"><rect x="-37.5" width="450" fill="#000000" y="-37.499999" height="449.999989" fill-opacity="0.5"/></g></mask><clipPath id="72b362305a"><path d="M 1 33 L 31 33 L 31 76.601562 L 1 76.601562 Z M 1 33 " clip-rule="nonzero"/></clipPath><clipPath id="4da0e52d06"><path d="M 1 33 L 32 33 L 32 76.601562 L 1 76.601562 Z M 1 33 " clip-rule="nonzero"/></clipPath><clipPath id="5050916835"><rect x="0" width="53" y="0" height="77"/></clipPath></defs><rect x="-37.5" width="450" fill="#ffffff" y="-37.499999" height="449.999989" fill-opacity="1"/><rect x="-37.5" width="450" fill="#ffffff" y="-37.499999" height="449.999989" fill-opacity="1"/><g clip-path="url(#bdaed63942)"><g mask="url(#2a114e94bd)"><g transform="matrix(1, 0, 0, 1, 51, 62)"><g clip-path="url(#6bc51a5383)"><g clip-path="url(#6c3720fd50)"><path fill="#b1bec6" d="M 272.492188 225.515625 C 272.492188 232.425781 269.121094 238.679688 263.675781 243.207031 C 258.230469 247.734375 250.699219 250.535156 242.390625 250.535156 L 30.402344 250.535156 C 13.777344 250.535156 0.300781 239.328125 0.300781 225.515625 C 0.300781 218.605469 3.671875 212.347656 9.117188 207.820312 C 14.566406 203.292969 22.09375 200.492188 30.402344 200.492188 L 29.59375 200.492188 C 37.902344 200.492188 45.429688 197.6875 50.878906 193.164062 C 52.40625 191.894531 53.765625 190.488281 54.9375 188.972656 C 55.496094 189.648438 56.15625 190.21875 56.921875 190.6875 C 58.796875 191.835938 60.832031 192.121094 63.019531 191.53125 C 65.207031 190.9375 66.824219 189.679688 67.871094 187.742188 C 68.917969 185.800781 69.117188 183.628906 68.46875 181.222656 C 67.820312 178.8125 66.558594 177.035156 64.679688 175.886719 C 63.117188 174.933594 61.457031 174.574219 59.683594 174.816406 C 59.632812 173.125 59.382812 171.476562 58.9375 169.886719 C 62.035156 168.332031 63.78125 164.832031 63 161.320312 L 55 125.457031 C 53.84375 120.292969 48.625 117.136719 43.519531 118.507812 C 39.359375 119.628906 36.636719 123.390625 36.636719 127.476562 C 36.636719 128.402344 36.777344 129.347656 37.074219 130.277344 L 44.472656 153.703125 C 40.085938 151.625 35.003906 150.441406 29.59375 150.441406 L 30.402344 150.441406 C 13.777344 150.441406 0.300781 139.234375 0.300781 125.417969 C 0.300781 118.507812 3.671875 112.253906 9.117188 107.726562 C 14.566406 103.195312 22.09375 100.390625 30.402344 100.390625 L 61.601562 100.390625 C 62.886719 133.980469 81.285156 174.296875 78.566406 187.472656 C 75.003906 204.742188 60.476562 226.667969 92.546875 237.910156 C 115.695312 246.023438 169.703125 222.132812 203.925781 200.484375 L 242.390625 200.484375 C 259.015625 200.484375 272.492188 211.6875 272.492188 225.507812 Z M 272.492188 225.515625 " fill-opacity="1" fill-rule="nonzero"/><path fill="#b1bec6" d="M 242.390625 250.671875 L 30.402344 250.671875 C 13.730469 250.671875 0.167969 239.382812 0.167969 225.515625 C 0.167969 218.789062 3.316406 212.46875 9.03125 207.714844 C 14.550781 203.125 21.824219 200.53125 29.59375 200.359375 L 29.59375 200.351562 C 37.601562 200.351562 45.125 197.761719 50.789062 193.054688 C 52.300781 191.800781 53.664062 190.398438 54.832031 188.886719 L 54.933594 188.753906 L 55.042969 188.882812 C 55.585938 189.542969 56.242188 190.109375 56.992188 190.570312 C 58.828125 191.695312 60.84375 191.972656 62.980469 191.398438 C 65.121094 190.820312 66.726562 189.570312 67.75 187.679688 C 68.777344 185.777344 68.976562 183.617188 68.339844 181.257812 C 67.703125 178.894531 66.445312 177.128906 64.613281 176.007812 C 63.082031 175.074219 61.433594 174.71875 59.703125 174.957031 L 59.554688 174.980469 L 59.550781 174.828125 C 59.5 173.164062 59.25 171.511719 58.808594 169.925781 L 58.78125 169.816406 L 58.878906 169.769531 C 61.988281 168.207031 63.628906 164.75 62.875 161.355469 L 54.871094 125.492188 C 54.320312 123.03125 52.828125 120.957031 50.671875 119.65625 C 48.519531 118.351562 45.988281 117.992188 43.554688 118.644531 C 39.566406 119.71875 36.777344 123.355469 36.777344 127.484375 C 36.777344 128.414062 36.921875 129.339844 37.203125 130.242188 L 44.695312 153.964844 L 44.414062 153.832031 C 39.925781 151.707031 34.800781 150.582031 29.59375 150.582031 L 29.59375 150.574219 C 13.292969 150.214844 0.167969 139.070312 0.167969 125.421875 C 0.167969 118.699219 3.316406 112.378906 9.03125 107.628906 C 14.738281 102.878906 22.324219 100.265625 30.402344 100.265625 L 61.734375 100.265625 L 61.738281 100.394531 C 62.417969 118.148438 68 138.199219 72.484375 154.308594 C 76.511719 168.777344 79.988281 181.269531 78.703125 187.507812 C 78.054688 190.632812 77.078125 193.839844 76.035156 197.234375 C 73.71875 204.804688 71.320312 212.636719 72.769531 219.746094 C 74.40625 227.789062 80.890625 233.6875 92.59375 237.792969 C 105.796875 242.417969 127.855469 236.238281 144.039062 230.238281 C 163.402344 223.058594 185.203125 212.175781 203.855469 200.378906 L 203.886719 200.355469 L 242.390625 200.355469 C 259.066406 200.355469 272.628906 211.640625 272.628906 225.515625 C 272.628906 232.238281 269.480469 238.558594 263.761719 243.308594 C 258.058594 248.054688 250.464844 250.671875 242.390625 250.671875 Z M 30.402344 200.617188 L 30.402344 200.625 C 22.394531 200.625 14.871094 203.214844 9.207031 207.921875 C 3.550781 212.625 0.4375 218.871094 0.4375 225.515625 C 0.4375 239.234375 13.882812 250.398438 30.402344 250.398438 L 242.390625 250.398438 C 250.402344 250.398438 257.929688 247.808594 263.589844 243.101562 C 269.242188 238.402344 272.355469 232.152344 272.355469 225.515625 C 272.355469 211.792969 258.914062 200.628906 242.390625 200.628906 L 203.964844 200.628906 C 185.308594 212.429688 163.5 223.3125 144.128906 230.492188 C 127.90625 236.507812 105.78125 242.703125 92.5 238.046875 C 80.699219 233.910156 74.160156 227.941406 72.5 219.800781 C 71.042969 212.628906 73.449219 204.761719 75.773438 197.152344 C 76.8125 193.765625 77.792969 190.5625 78.433594 187.453125 C 79.707031 181.28125 76.238281 168.816406 72.21875 154.382812 C 67.742188 138.296875 62.171875 118.289062 61.472656 100.535156 L 30.402344 100.535156 C 22.390625 100.535156 14.863281 103.128906 9.207031 107.835938 C 3.550781 112.535156 0.4375 118.777344 0.4375 125.421875 C 0.4375 139.144531 13.882812 150.308594 30.402344 150.308594 L 30.402344 150.316406 C 35.261719 150.425781 40.027344 151.503906 44.25 153.453125 L 36.941406 130.316406 C 36.652344 129.390625 36.5 128.433594 36.5 127.476562 C 36.5 123.226562 39.371094 119.484375 43.484375 118.378906 C 45.988281 117.707031 48.589844 118.074219 50.8125 119.417969 C 53.03125 120.761719 54.566406 122.898438 55.132812 125.429688 L 63.132812 161.292969 C 63.910156 164.773438 62.253906 168.320312 59.097656 169.957031 C 59.511719 171.484375 59.753906 173.070312 59.8125 174.664062 C 61.550781 174.457031 63.214844 174.832031 64.75 175.769531 C 66.652344 176.929688 67.945312 178.75 68.601562 181.183594 C 69.253906 183.613281 69.050781 185.839844 67.988281 187.804688 C 66.925781 189.765625 65.265625 191.0625 63.050781 191.65625 C 60.835938 192.253906 58.75 191.964844 56.847656 190.796875 C 56.121094 190.355469 55.480469 189.8125 54.941406 189.183594 C 53.785156 190.660156 52.445312 192.027344 50.964844 193.261719 C 45.445312 197.847656 38.171875 200.445312 30.402344 200.613281 Z M 30.402344 200.617188 " fill-opacity="1" fill-rule="nonzero"/></g><g clip-path="url(#ec5dbedd2e)"><path fill="#b1bec6" d="M 272.492188 125.421875 C 272.492188 132.332031 269.121094 138.585938 263.675781 143.113281 C 258.230469 147.644531 250.699219 150.441406 242.390625 150.441406 L 238.714844 150.441406 C 235.734375 142.601562 227.960938 136.316406 216.429688 132.378906 C 210.007812 130.191406 204.671875 125.375 199.761719 118.980469 L 222.09375 118.980469 C 229.6875 118.980469 234.433594 110.753906 230.636719 104.179688 L 226.9375 97.769531 C 230.984375 99.449219 235.546875 100.394531 240.375 100.394531 L 242.394531 100.394531 C 259.019531 100.394531 272.496094 111.601562 272.496094 125.417969 Z M 272.492188 125.421875 " fill-opacity="1" fill-rule="nonzero"/><path fill="#b1bec6" d="M 242.390625 150.578125 L 238.617188 150.578125 L 238.585938 150.492188 C 235.609375 142.671875 227.933594 136.449219 216.386719 132.507812 C 210.46875 130.492188 205.148438 126.222656 199.652344 119.066406 L 199.484375 118.847656 L 222.089844 118.847656 C 225.609375 118.847656 228.757812 117.03125 230.515625 113.984375 C 232.277344 110.933594 232.277344 107.296875 230.519531 104.25 L 226.613281 97.492188 L 226.984375 97.644531 C 231.160156 99.382812 235.664062 100.261719 240.371094 100.261719 L 242.386719 100.261719 C 259.0625 100.261719 272.625 111.546875 272.625 125.421875 C 272.625 132.144531 269.476562 138.464844 263.761719 143.222656 C 258.054688 147.96875 250.464844 150.582031 242.386719 150.582031 Z M 238.804688 150.308594 L 242.390625 150.308594 C 250.402344 150.308594 257.929688 147.714844 263.589844 143.007812 C 269.242188 138.308594 272.355469 132.058594 272.355469 125.417969 C 272.355469 111.695312 258.914062 100.53125 242.390625 100.53125 L 240.375 100.53125 C 235.769531 100.53125 231.355469 99.695312 227.25 98.046875 L 230.753906 104.113281 C 232.5625 107.246094 232.5625 110.988281 230.753906 114.121094 C 228.945312 117.25 225.707031 119.121094 222.09375 119.121094 L 200.039062 119.121094 C 205.441406 126.097656 210.667969 130.273438 216.472656 132.253906 C 228.058594 136.207031 235.777344 142.449219 238.804688 150.308594 Z M 238.804688 150.308594 " fill-opacity="1" fill-rule="nonzero"/></g><g clip-path="url(#087dbd7de2)"><path fill="#b1bec6" d="M 0.300781 25.328125 C 0.300781 18.417969 3.671875 12.164062 9.117188 7.636719 C 14.566406 3.105469 22.09375 0.304688 30.402344 0.304688 L 242.390625 0.304688 C 259.015625 0.304688 272.492188 11.511719 272.492188 25.328125 C 272.492188 32.238281 269.121094 38.492188 263.675781 43.019531 C 258.230469 47.546875 250.699219 50.347656 242.390625 50.347656 L 240.375 50.347656 C 232.0625 50.347656 224.53125 53.152344 219.085938 57.683594 C 215.070312 61.019531 212.1875 65.292969 210.949219 70.070312 L 186.785156 28.21875 C 182.984375 21.640625 173.492188 21.640625 169.695312 28.21875 L 155.492188 52.820312 C 142.109375 40.578125 124.136719 37.011719 107.402344 40.640625 C 106.082031 33.90625 103.492188 23.304688 99.34375 16.730469 C 92.886719 6.496094 77.175781 9.417969 74.617188 19.777344 C 72.722656 27.4375 82.242188 41.933594 87.320312 48.945312 C 86.609375 49.398438 85.917969 49.863281 85.230469 50.351562 L 30.402344 50.351562 C 13.777344 50.351562 0.300781 39.148438 0.300781 25.328125 Z M 0.300781 25.328125 " fill-opacity="1" fill-rule="nonzero"/><path fill="#b1bec6" d="M 210.996094 70.429688 L 210.832031 70.144531 L 186.667969 28.289062 C 184.910156 25.242188 181.757812 23.421875 178.242188 23.421875 C 174.722656 23.421875 171.574219 25.242188 169.816406 28.289062 L 155.53125 53.039062 L 155.40625 52.925781 C 142.746094 41.339844 125.257812 36.914062 107.4375 40.773438 L 107.300781 40.804688 L 107.273438 40.667969 C 106.089844 34.644531 103.480469 23.535156 99.234375 16.804688 C 96.28125 12.128906 90.957031 9.789062 85.335938 10.699219 C 80.0625 11.554688 75.910156 15.132812 74.75 19.8125 C 72.902344 27.292969 81.902344 41.230469 87.429688 48.867188 L 87.515625 48.984375 L 87.390625 49.066406 C 86.691406 49.515625 85.992188 49.984375 85.308594 50.464844 L 85.273438 50.492188 L 30.402344 50.492188 C 13.730469 50.488281 0.167969 39.203125 0.167969 25.328125 C 0.167969 18.605469 3.316406 12.285156 9.03125 7.53125 C 14.738281 2.785156 22.328125 0.171875 30.402344 0.171875 L 242.390625 0.171875 C 259.066406 0.171875 272.628906 11.457031 272.628906 25.328125 C 272.628906 32.054688 269.480469 38.375 263.761719 43.128906 C 258.050781 47.875 250.460938 50.488281 242.390625 50.488281 L 240.375 50.488281 C 232.363281 50.488281 224.835938 53.078125 219.171875 57.789062 C 215.085938 61.179688 212.285156 65.441406 211.082031 70.105469 Z M 178.238281 23.152344 C 181.855469 23.152344 185.09375 25.023438 186.902344 28.152344 L 210.902344 69.722656 C 212.167969 65.121094 214.960938 60.929688 219 57.578125 C 224.710938 52.832031 232.296875 50.214844 240.375 50.214844 L 242.390625 50.214844 C 250.398438 50.214844 257.925781 47.625 263.589844 42.917969 C 269.242188 38.21875 272.355469 31.972656 272.355469 25.328125 C 272.355469 11.605469 258.914062 0.441406 242.390625 0.441406 L 30.402344 0.441406 C 22.394531 0.441406 14.863281 3.035156 9.207031 7.742188 C 3.550781 12.445312 0.4375 18.691406 0.4375 25.328125 C 0.4375 39.050781 13.882812 50.214844 30.402344 50.214844 L 85.1875 50.214844 C 85.820312 49.765625 86.472656 49.324219 87.125 48.90625 C 81.5625 41.203125 72.625 27.292969 74.484375 19.742188 C 75.667969 14.953125 79.910156 11.300781 85.289062 10.429688 C 91.019531 9.5 96.449219 11.886719 99.460938 16.65625 C 103.492188 23.046875 106.0625 33.109375 107.511719 40.476562 C 125.316406 36.660156 142.777344 41.074219 155.464844 52.605469 L 169.578125 28.148438 C 171.386719 25.019531 174.625 23.148438 178.238281 23.148438 Z M 178.238281 23.152344 " fill-opacity="1" fill-rule="nonzero"/></g><path fill="#b1bec6" d="M 70.050781 65.910156 C 68.753906 67.867188 67.5625 69.925781 66.492188 72.078125 C 63.570312 77.941406 62.109375 84.671875 61.675781 91.886719 C 60.277344 92.273438 58.804688 92.480469 57.28125 92.480469 C 48.25 92.480469 40.925781 85.160156 40.925781 76.125 C 40.925781 67.089844 48.25 59.769531 57.28125 59.769531 C 62.445312 59.769531 67.054688 62.164062 70.050781 65.90625 Z M 70.050781 65.910156 " fill-opacity="1" fill-rule="nonzero"/><path fill="#b1bec6" d="M 57.28125 92.617188 C 48.1875 92.617188 40.789062 85.21875 40.789062 76.125 C 40.789062 67.027344 48.1875 59.632812 57.28125 59.632812 C 62.316406 59.632812 67.007812 61.890625 70.15625 65.824219 L 70.21875 65.902344 L 70.164062 65.984375 C 68.871094 67.933594 67.675781 70.003906 66.613281 72.136719 C 63.886719 77.613281 62.273438 84.257812 61.8125 91.890625 L 61.804688 91.988281 L 61.714844 92.015625 C 60.28125 92.417969 58.789062 92.617188 57.28125 92.617188 Z M 57.28125 59.90625 C 48.335938 59.90625 41.058594 67.183594 41.058594 76.125 C 41.058594 85.070312 48.335938 92.347656 57.28125 92.347656 C 58.730469 92.347656 60.164062 92.15625 61.546875 91.78125 C 62.011719 84.152344 63.636719 77.503906 66.367188 72.019531 C 67.417969 69.910156 68.601562 67.855469 69.882812 65.921875 C 66.789062 62.097656 62.199219 59.910156 57.28125 59.910156 Z M 57.28125 59.90625 " fill-opacity="1" fill-rule="nonzero"/></g></g></g></g><path fill="#b1bec6" d="M 267.425781 194.382812 C 261.007812 192.191406 255.671875 187.375 250.761719 180.980469 L 185.390625 180.980469 C 177.792969 180.980469 173.046875 172.757812 176.847656 166.179688 L 206.496094 114.824219 C 193.113281 102.578125 175.136719 99.011719 158.40625 102.640625 C 151.34375 104.164062 144.503906 106.972656 138.320312 110.945312 C 129.699219 116.488281 122.359375 124.300781 117.492188 134.078125 C 100.433594 168.34375 133.132812 232.207031 129.570312 249.480469 C 126.007812 266.75 111.484375 288.675781 143.550781 299.917969 C 175.613281 311.152344 266.882812 260.992188 282.777344 240.433594 C 298.675781 219.878906 290.730469 202.335938 267.433594 194.382812 Z M 220.976562 276.59375 C 178.203125 296.246094 138.53125 301.3125 132.371094 287.898438 C 127.136719 276.5 147.78125 255.429688 180.359375 237.296875 C 186.113281 234.089844 192.242188 230.976562 198.664062 228.023438 C 205.089844 225.070312 211.441406 222.449219 217.625 220.167969 C 252.601562 207.265625 282.039062 205.320312 287.273438 216.714844 C 293.4375 230.125 263.753906 256.933594 220.976562 276.59375 Z M 220.976562 276.59375 " fill-opacity="0.5" fill-rule="nonzero"/><path fill="#b1bec6" d="M 154.660156 302.355469 C 150.253906 302.355469 146.453125 301.800781 143.277344 300.6875 C 116.253906 291.214844 121.496094 274.074219 126.128906 258.953125 C 127.160156 255.578125 128.132812 252.394531 128.769531 249.320312 C 130.011719 243.304688 126.558594 230.914062 122.566406 216.566406 C 118.882812 203.328125 114.707031 188.324219 112.777344 173.722656 C 110.535156 156.699219 111.835938 143.613281 116.761719 133.71875 C 121.492188 124.214844 128.792969 116.105469 137.878906 110.261719 C 144.128906 106.242188 150.976562 103.410156 158.230469 101.84375 C 176.359375 97.917969 194.152344 102.429688 207.046875 114.226562 L 207.53125 114.667969 L 177.554688 166.59375 C 175.917969 169.425781 175.917969 172.808594 177.554688 175.644531 C 179.191406 178.480469 182.121094 180.171875 185.398438 180.171875 L 251.167969 180.171875 L 251.414062 180.488281 C 256.792969 187.492188 261.96875 191.660156 267.695312 193.613281 C 280.285156 197.910156 288.335938 204.828125 290.976562 213.621094 C 293.460938 221.890625 290.847656 231.335938 283.425781 240.933594 C 275.253906 251.503906 248.402344 269.128906 219.582031 282.835938 C 204.074219 290.210938 189.285156 295.816406 176.804688 299.046875 C 168.269531 301.253906 160.871094 302.359375 154.664062 302.359375 Z M 170.96875 102.089844 C 166.894531 102.089844 162.746094 102.53125 158.574219 103.4375 C 151.515625 104.960938 144.847656 107.71875 138.757812 111.628906 C 129.921875 117.316406 122.820312 125.199219 118.21875 134.441406 C 113.441406 144.035156 112.191406 156.8125 114.394531 173.5 C 116.304688 187.988281 120.464844 202.933594 124.136719 216.117188 C 128.355469 231.269531 131.683594 243.238281 130.367188 249.640625 C 129.714844 252.792969 128.730469 256.011719 127.683594 259.421875 C 123.058594 274.546875 118.269531 290.1875 143.8125 299.140625 C 146.804688 300.1875 150.4375 300.703125 154.632812 300.703125 C 169.777344 300.703125 192.3125 293.988281 218.871094 281.355469 C 247.027344 267.964844 274.222656 250.152344 282.128906 239.929688 C 289.214844 230.765625 291.730469 221.828125 289.40625 214.082031 C 286.921875 205.816406 279.230469 199.269531 267.164062 195.152344 C 261.203125 193.121094 255.859375 188.871094 250.359375 181.796875 L 185.390625 181.796875 C 181.527344 181.796875 178.066406 179.796875 176.132812 176.449219 C 174.203125 173.105469 174.203125 169.113281 176.132812 165.769531 L 205.453125 114.980469 C 195.988281 106.539062 183.867188 102.082031 170.96875 102.082031 Z M 170.96875 102.089844 " fill-opacity="1" fill-rule="nonzero"/><path fill="#b1bec6" d="M 220.980469 276.59375 C 178.207031 296.246094 138.535156 301.3125 132.375 287.898438 C 127.140625 276.5 147.785156 255.429688 180.359375 237.296875 C 180.347656 237.609375 180.339844 237.921875 180.339844 238.242188 C 180.339844 250.957031 190.648438 261.265625 203.359375 261.265625 C 216.074219 261.265625 226.382812 250.957031 226.382812 238.242188 C 226.382812 230.914062 222.957031 224.382812 217.625 220.167969 C 252.601562 207.265625 282.039062 205.320312 287.277344 216.714844 C 293.441406 230.125 263.757812 256.933594 220.980469 276.59375 Z M 220.980469 276.59375 " fill-opacity="1" fill-rule="nonzero"/><path fill="#b1bec6" d="M 152.019531 295.542969 C 141.425781 295.542969 134.539062 292.949219 132.25 287.957031 C 127.070312 276.683594 146.828125 255.804688 180.292969 237.175781 L 180.503906 237.058594 L 180.496094 237.300781 C 180.480469 237.609375 180.472656 237.925781 180.472656 238.242188 C 180.472656 250.863281 190.738281 261.128906 203.359375 261.128906 C 215.976562 261.128906 226.246094 250.863281 226.246094 238.242188 C 226.246094 231.195312 223.070312 224.648438 217.539062 220.277344 L 217.347656 220.128906 L 217.578125 220.042969 C 253.511719 206.785156 282.222656 205.394531 287.398438 216.660156 C 290.40625 223.203125 285.136719 233.0625 272.566406 244.414062 C 260.035156 255.734375 241.734375 267.207031 221.035156 276.71875 C 200.335938 286.230469 179.710938 292.644531 162.960938 294.78125 C 158.976562 295.292969 155.316406 295.542969 152.019531 295.542969 Z M 180.214844 237.535156 C 164.398438 246.355469 150.9375 256.183594 142.285156 265.21875 C 133.488281 274.402344 130.015625 282.4375 132.496094 287.84375 C 138.617188 301.167969 178.285156 296.066406 220.921875 276.472656 C 263.5625 256.878906 293.273438 230.101562 287.152344 216.777344 C 284.667969 211.375 276.308594 208.777344 263.609375 209.46875 C 251.121094 210.152344 234.894531 213.964844 217.898438 220.21875 C 223.378906 224.640625 226.515625 231.195312 226.515625 238.246094 C 226.515625 251.015625 216.125 261.40625 203.359375 261.40625 C 190.589844 261.40625 180.199219 251.015625 180.199219 238.246094 C 180.199219 238.007812 180.203125 237.769531 180.210938 237.535156 Z M 180.214844 237.535156 " fill-opacity="1" fill-rule="nonzero"/><path fill="#b1bec6" d="M 152.089844 296.214844 C 141.167969 296.214844 134.039062 293.484375 131.628906 288.238281 C 128.933594 282.371094 132.378906 274.179688 141.597656 264.558594 C 150.347656 255.417969 163.976562 245.480469 179.960938 236.582031 L 181.242188 235.867188 L 181.171875 237.332031 C 181.160156 237.632812 181.152344 237.9375 181.152344 238.238281 C 181.152344 250.484375 191.113281 260.445312 203.355469 260.445312 C 215.597656 260.445312 225.5625 250.484375 225.5625 238.238281 C 225.5625 231.402344 222.484375 225.046875 217.113281 220.808594 L 215.972656 219.90625 L 217.339844 219.402344 C 234.503906 213.070312 250.914062 209.199219 263.554688 208.511719 C 276.859375 207.789062 285.316406 210.503906 288.011719 216.371094 C 291.152344 223.210938 285.828125 233.347656 273.019531 244.917969 C 260.4375 256.28125 242.074219 267.792969 221.316406 277.332031 C 200.554688 286.871094 179.859375 293.308594 163.042969 295.453125 C 159.058594 295.960938 155.394531 296.210938 152.082031 296.210938 Z M 179.527344 238.699219 C 164.210938 247.34375 151.195312 256.894531 142.777344 265.6875 C 134.191406 274.65625 130.757812 282.421875 133.113281 287.558594 C 135.890625 293.605469 146.726562 295.894531 162.84375 293.835938 C 179.5 291.710938 200.023438 285.324219 220.640625 275.851562 C 241.253906 266.378906 259.472656 254.960938 271.933594 243.707031 C 283.992188 232.820312 289.3125 223.101562 286.535156 217.058594 C 284.175781 211.925781 276.050781 209.472656 263.648438 210.144531 C 251.492188 210.808594 235.765625 214.460938 219.234375 220.453125 C 224.3125 224.976562 227.199219 231.382812 227.199219 238.242188 C 227.199219 251.386719 216.503906 262.082031 203.359375 262.082031 C 190.21875 262.082031 179.773438 251.636719 179.527344 238.699219 Z M 179.527344 238.699219 " fill-opacity="1" fill-rule="nonzero"/><path fill="#b1bec6" d="M 152.089844 296.351562 C 141.042969 296.351562 133.925781 293.566406 131.503906 288.296875 C 128.785156 282.371094 132.242188 274.132812 141.496094 264.460938 C 150.257812 255.308594 163.894531 245.367188 179.894531 236.460938 L 181.390625 235.632812 L 181.3125 237.339844 C 181.296875 237.636719 181.289062 237.9375 181.289062 238.238281 C 181.289062 250.410156 191.1875 260.3125 203.359375 260.3125 C 215.527344 260.3125 225.425781 250.410156 225.425781 238.238281 C 225.425781 231.445312 222.367188 225.128906 217.035156 220.914062 L 215.699219 219.859375 L 217.292969 219.273438 C 234.472656 212.9375 250.898438 209.066406 263.550781 208.375 C 276.917969 207.648438 285.417969 210.394531 288.140625 216.3125 C 291.308594 223.210938 285.972656 233.40625 273.117188 245.015625 C 260.527344 256.390625 242.152344 267.910156 221.378906 277.457031 C 200.605469 287 179.894531 293.441406 163.066406 295.589844 C 159.109375 296.09375 155.417969 296.347656 152.089844 296.347656 Z M 181.09375 236.109375 L 180.027344 236.699219 C 164.050781 245.59375 150.4375 255.519531 141.695312 264.648438 C 132.519531 274.230469 129.082031 282.367188 131.753906 288.179688 C 134.128906 293.347656 141.15625 296.078125 152.089844 296.078125 C 155.40625 296.078125 159.085938 295.824219 163.03125 295.320312 C 179.832031 293.171875 200.511719 286.742188 221.261719 277.210938 C 242.007812 267.675781 260.359375 256.171875 272.933594 244.816406 C 285.691406 233.289062 291.007812 223.210938 287.890625 216.429688 C 285.222656 210.617188 276.8125 207.929688 263.566406 208.648438 C 250.941406 209.335938 234.542969 213.199219 217.390625 219.527344 L 216.253906 219.949219 L 217.203125 220.699219 C 222.605469 224.964844 225.703125 231.355469 225.703125 238.238281 C 225.703125 250.558594 215.679688 260.582031 203.359375 260.582031 C 191.042969 260.582031 181.019531 250.558594 181.019531 238.238281 C 181.019531 237.929688 181.027344 237.625 181.042969 237.320312 L 181.097656 236.101562 Z M 152.183594 294.707031 C 141.929688 294.707031 135.121094 292.257812 132.988281 287.613281 C 130.609375 282.421875 134.046875 274.601562 142.675781 265.59375 C 151.085938 256.8125 164.148438 247.21875 179.457031 238.578125 L 179.65625 238.46875 L 179.660156 238.695312 C 179.902344 251.515625 190.535156 261.945312 203.359375 261.945312 C 216.179688 261.945312 227.0625 251.3125 227.0625 238.242188 C 227.0625 231.484375 224.171875 225.035156 219.140625 220.554688 L 218.96875 220.398438 L 219.183594 220.320312 C 235.714844 214.332031 251.5 210.667969 263.636719 210.007812 C 276.097656 209.328125 284.273438 211.8125 286.652344 216.996094 C 289.457031 223.101562 284.125 232.875 272.019531 243.804688 C 259.550781 255.070312 241.320312 266.492188 220.691406 275.976562 C 200.066406 285.453125 179.527344 291.84375 162.855469 293.972656 C 158.984375 294.46875 155.414062 294.710938 152.183594 294.710938 Z M 179.390625 238.929688 C 164.191406 247.523438 151.222656 257.058594 142.871094 265.78125 C 134.324219 274.707031 130.902344 282.417969 133.238281 287.496094 C 135.988281 293.488281 146.773438 295.746094 162.824219 293.699219 C 179.464844 291.574219 199.976562 285.191406 220.578125 275.726562 C 241.183594 266.257812 259.390625 254.851562 271.839844 243.605469 C 283.847656 232.757812 289.15625 223.101562 286.410156 217.113281 C 284.078125 212.035156 275.992188 209.605469 263.652344 210.277344 C 251.597656 210.933594 235.917969 214.5625 219.492188 220.5 C 224.476562 225.027344 227.332031 231.476562 227.332031 238.238281 C 227.332031 251.457031 216.578125 262.214844 203.359375 262.214844 C 197.046875 262.214844 191.082031 259.769531 186.566406 255.335938 C 182.109375 250.957031 179.570312 245.136719 179.394531 238.925781 Z M 179.390625 238.929688 " fill-opacity="1" fill-rule="nonzero"/><g mask="url(#b3d6ca360c)"><g transform="matrix(1, 0, 0, 1, 180, 219)"><g clip-path="url(#e7d3dd800a)"><g clip-path="url(#fd7bfe3e10)"><path fill="#b1bec6" d="M 46.382812 19.242188 C 46.382812 31.957031 36.078125 42.265625 23.359375 42.265625 C 10.644531 42.265625 0.339844 31.957031 0.339844 19.242188 C 0.339844 18.921875 0.347656 18.609375 0.359375 18.296875 C 6.113281 15.089844 12.246094 11.976562 18.664062 9.023438 C 25.09375 6.070312 31.441406 3.449219 37.625 1.167969 C 42.957031 5.378906 46.382812 11.910156 46.382812 19.242188 Z M 46.382812 19.242188 " fill-opacity="1" fill-rule="nonzero"/><path fill="#b1bec6" d="M 23.359375 42.402344 C 10.589844 42.402344 0.199219 32.011719 0.199219 19.242188 C 0.199219 18.921875 0.207031 18.605469 0.222656 18.292969 L 0.222656 18.214844 L 0.292969 18.175781 C 6.125 14.925781 12.285156 11.808594 18.609375 8.898438 C 24.933594 5.992188 31.316406 3.347656 37.582031 1.039062 L 37.652344 1.015625 L 37.710938 1.058594 C 43.308594 5.480469 46.519531 12.105469 46.519531 19.238281 C 46.519531 32.007812 36.128906 42.398438 23.359375 42.398438 Z M 0.492188 18.378906 C 0.480469 18.664062 0.472656 18.953125 0.472656 19.242188 C 0.472656 31.863281 10.738281 42.128906 23.359375 42.128906 C 35.976562 42.128906 46.246094 31.863281 46.246094 19.242188 C 46.246094 12.222656 43.09375 5.691406 37.597656 1.324219 C 31.367188 3.625 25.015625 6.257812 18.71875 9.148438 C 12.425781 12.042969 6.292969 15.144531 0.488281 18.378906 Z M 0.492188 18.378906 " fill-opacity="1" fill-rule="nonzero"/></g></g></g></g><path fill="#b1bec6" d="M 203.359375 262.082031 C 190.214844 262.082031 179.519531 251.386719 179.519531 238.242188 C 179.519531 237.914062 179.527344 237.582031 179.542969 237.257812 L 179.5625 236.804688 L 179.960938 236.585938 C 185.808594 233.324219 191.984375 230.199219 198.324219 227.28125 C 204.664062 224.371094 211.0625 221.71875 217.34375 219.402344 L 217.773438 219.246094 L 218.132812 219.527344 C 223.894531 224.082031 227.199219 230.902344 227.199219 238.242188 C 227.199219 251.386719 216.503906 262.082031 203.359375 262.082031 Z M 181.160156 237.789062 C 181.15625 237.941406 181.152344 238.09375 181.152344 238.242188 C 181.152344 250.488281 191.117188 260.449219 203.359375 260.449219 C 215.601562 260.449219 225.5625 250.488281 225.5625 238.242188 C 225.5625 231.554688 222.621094 225.332031 217.472656 221.097656 C 211.375 223.359375 205.164062 225.9375 199.007812 228.769531 C 192.851562 231.597656 186.851562 234.632812 181.160156 237.789062 Z M 181.160156 237.789062 " fill-opacity="1" fill-rule="nonzero"/><path fill="#b1bec6" d="M 203.359375 262.21875 C 190.136719 262.21875 179.382812 251.464844 179.382812 238.242188 C 179.382812 237.910156 179.390625 237.578125 179.40625 237.253906 L 179.429688 236.722656 L 179.894531 236.464844 C 185.742188 233.207031 191.921875 230.074219 198.265625 227.160156 C 204.609375 224.242188 211.011719 221.59375 217.292969 219.277344 L 217.796875 219.089844 L 218.214844 219.421875 C 224.007812 224 227.332031 230.859375 227.332031 238.242188 C 227.332031 251.464844 216.578125 262.21875 203.359375 262.21875 Z M 179.695312 236.886719 L 179.679688 237.265625 C 179.664062 237.585938 179.65625 237.914062 179.65625 238.238281 C 179.65625 251.3125 190.289062 261.945312 203.359375 261.945312 C 216.429688 261.945312 227.0625 251.3125 227.0625 238.238281 C 227.0625 230.941406 223.777344 224.160156 218.046875 219.632812 L 217.746094 219.394531 L 217.386719 219.527344 C 211.109375 221.839844 204.714844 224.488281 198.378906 227.402344 C 192.039062 230.316406 185.867188 233.441406 180.023438 236.699219 L 179.691406 236.882812 Z M 203.359375 260.585938 C 191.039062 260.585938 181.015625 250.5625 181.015625 238.242188 C 181.015625 238.089844 181.015625 237.9375 181.023438 237.785156 L 181.023438 237.707031 L 181.09375 237.667969 C 186.785156 234.507812 192.792969 231.472656 198.949219 228.644531 C 205.105469 225.816406 211.324219 223.230469 217.429688 220.96875 L 217.5 220.941406 L 217.5625 220.992188 C 222.734375 225.25 225.703125 231.535156 225.703125 238.242188 C 225.703125 250.5625 215.679688 260.585938 203.359375 260.585938 Z M 181.292969 237.867188 C 181.292969 237.992188 181.289062 238.117188 181.289062 238.242188 C 181.289062 250.414062 191.1875 260.3125 203.359375 260.3125 C 215.527344 260.3125 225.425781 250.414062 225.425781 238.242188 C 225.425781 231.644531 222.519531 225.457031 217.445312 221.253906 C 211.375 223.507812 205.1875 226.078125 199.0625 228.890625 C 192.9375 231.707031 186.957031 234.726562 181.292969 237.867188 Z M 181.292969 237.867188 " fill-opacity="1" fill-rule="nonzero"/><path fill="#b1bec6" d="M 131.5625 248.375 C 131.453125 248.375 131.34375 248.355469 131.238281 248.308594 C 130.824219 248.128906 130.636719 247.648438 130.8125 247.234375 C 130.902344 247.027344 133.089844 242.109375 141.164062 234.757812 C 148.542969 228.035156 162.5 217.898438 187.089844 207.773438 C 187.507812 207.601562 187.984375 207.800781 188.15625 208.214844 C 188.328125 208.632812 188.128906 209.109375 187.714844 209.28125 C 141.175781 228.449219 132.402344 247.691406 132.316406 247.882812 C 132.183594 248.1875 131.882812 248.375 131.570312 248.375 Z M 131.5625 248.375 " fill-opacity="1" fill-rule="nonzero"/><path fill="#b1bec6" d="M 131.5625 248.511719 C 131.433594 248.511719 131.304688 248.484375 131.183594 248.433594 C 130.703125 248.222656 130.480469 247.664062 130.6875 247.183594 C 130.777344 246.976562 132.976562 242.03125 141.070312 234.660156 C 148.457031 227.929688 162.433594 217.78125 187.035156 207.648438 C 187.519531 207.449219 188.078125 207.683594 188.277344 208.167969 C 188.480469 208.652344 188.246094 209.210938 187.761719 209.410156 C 141.269531 228.558594 132.519531 247.746094 132.4375 247.9375 C 132.285156 248.285156 131.945312 248.511719 131.566406 248.511719 Z M 187.398438 207.847656 C 187.308594 207.847656 187.222656 207.863281 187.136719 207.898438 C 162.570312 218.019531 148.625 228.144531 141.253906 234.859375 C 133.199219 242.195312 131.027344 247.085938 130.941406 247.289062 C 130.789062 247.636719 130.949219 248.035156 131.292969 248.1875 C 131.632812 248.332031 132.042969 248.167969 132.1875 247.832031 C 132.273438 247.640625 141.066406 228.347656 187.660156 209.160156 C 187.828125 209.09375 187.957031 208.960938 188.027344 208.792969 C 188.097656 208.625 188.097656 208.4375 188.027344 208.273438 C 187.917969 208.011719 187.667969 207.851562 187.398438 207.851562 Z M 187.398438 207.847656 " fill-opacity="1" fill-rule="nonzero"/><path fill="#b1bec6" d="M 194.378906 207.28125 C 194.050781 207.28125 193.738281 207.082031 193.617188 206.757812 C 193.457031 206.335938 193.664062 205.863281 194.085938 205.703125 C 194.277344 205.632812 213.15625 198.46875 229.160156 196.859375 C 229.605469 196.816406 230.007812 197.144531 230.054688 197.59375 C 230.101562 198.042969 229.773438 198.441406 229.324219 198.488281 C 213.542969 200.074219 194.859375 207.160156 194.671875 207.234375 C 194.578125 207.269531 194.480469 207.289062 194.382812 207.289062 Z M 194.378906 207.28125 " fill-opacity="1" fill-rule="nonzero"/><path fill="#b1bec6" d="M 194.378906 207.417969 C 193.988281 207.417969 193.628906 207.171875 193.488281 206.804688 C 193.300781 206.316406 193.546875 205.761719 194.039062 205.574219 C 194.230469 205.5 213.191406 198.324219 229.144531 196.726562 C 229.667969 196.671875 230.136719 197.058594 230.1875 197.578125 C 230.238281 198.101562 229.859375 198.566406 229.335938 198.621094 C 213.53125 200.207031 194.90625 207.285156 194.71875 207.355469 C 194.609375 207.394531 194.496094 207.417969 194.378906 207.417969 Z M 229.238281 196.992188 C 229.214844 196.992188 229.195312 196.992188 229.171875 196.996094 C 213.25 198.59375 194.324219 205.757812 194.132812 205.828125 C 193.78125 205.960938 193.609375 206.355469 193.742188 206.707031 C 193.871094 207.046875 194.273438 207.234375 194.621094 207.097656 C 194.804688 207.027344 213.46875 199.941406 229.304688 198.347656 C 229.679688 198.308594 229.953125 197.972656 229.914062 197.601562 C 229.878906 197.25 229.582031 196.988281 229.238281 196.988281 Z M 229.238281 196.992188 " fill-opacity="1" fill-rule="nonzero"/><path fill="#b1bec6" d="M 123.8125 184.234375 C 123.460938 184.234375 123.136719 184.007812 123.03125 183.652344 C 117.589844 165.472656 120.015625 150.457031 123.003906 141.0625 C 126.25 130.863281 130.726562 125.046875 130.917969 124.804688 C 131.195312 124.449219 131.707031 124.386719 132.0625 124.664062 C 132.421875 124.941406 132.484375 125.453125 132.207031 125.8125 C 132.160156 125.867188 127.691406 131.683594 124.535156 141.628906 C 121.628906 150.789062 119.28125 165.4375 124.59375 183.183594 C 124.722656 183.617188 124.476562 184.070312 124.046875 184.199219 C 123.964844 184.222656 123.886719 184.234375 123.8125 184.234375 Z M 123.8125 184.234375 " fill-opacity="1" fill-rule="nonzero"/><path fill="#b1bec6" d="M 123.8125 184.371094 C 123.394531 184.371094 123.019531 184.089844 122.898438 183.691406 C 117.449219 165.476562 119.878906 150.429688 122.875 141.019531 C 126.128906 130.800781 130.621094 124.964844 130.8125 124.722656 C 131.136719 124.308594 131.734375 124.234375 132.148438 124.554688 C 132.5625 124.878906 132.636719 125.480469 132.3125 125.890625 C 132.269531 125.949219 127.808594 131.765625 124.667969 141.667969 C 121.769531 150.8125 119.425781 165.425781 124.726562 183.148438 C 124.800781 183.390625 124.773438 183.648438 124.652344 183.875 C 124.53125 184.097656 124.332031 184.261719 124.085938 184.332031 C 123.996094 184.359375 123.902344 184.375 123.8125 184.375 Z M 131.5625 124.625 C 131.363281 124.625 131.160156 124.714844 131.027344 124.886719 C 130.839844 125.128906 126.371094 130.925781 123.132812 141.101562 C 120.148438 150.476562 117.730469 165.464844 123.160156 183.613281 C 123.265625 183.960938 123.65625 184.175781 124.007812 184.070312 C 124.179688 184.019531 124.324219 183.902344 124.410156 183.738281 C 124.496094 183.578125 124.515625 183.398438 124.460938 183.222656 C 119.140625 165.4375 121.496094 150.761719 124.40625 141.582031 C 127.558594 131.636719 132.050781 125.78125 132.097656 125.722656 C 132.328125 125.425781 132.273438 125 131.976562 124.769531 C 131.851562 124.671875 131.703125 124.625 131.558594 124.625 Z M 131.5625 124.625 " fill-opacity="1" fill-rule="nonzero"/><path fill="#b1bec6" d="M 131.5625 214.660156 C 131.199219 214.660156 130.863281 214.414062 130.769531 214.042969 L 125.285156 192.117188 C 125.175781 191.679688 125.4375 191.234375 125.875 191.125 C 126.3125 191.015625 126.757812 191.28125 126.867188 191.71875 L 132.355469 213.644531 C 132.464844 214.085938 132.199219 214.527344 131.761719 214.636719 C 131.695312 214.652344 131.628906 214.660156 131.5625 214.660156 Z M 131.5625 214.660156 " fill-opacity="1" fill-rule="nonzero"/><path fill="#b1bec6" d="M 131.5625 214.796875 C 131.125 214.796875 130.746094 214.5 130.640625 214.078125 L 125.152344 192.148438 C 125.089844 191.902344 125.128906 191.644531 125.257812 191.425781 C 125.390625 191.210938 125.597656 191.054688 125.84375 190.992188 C 126.089844 190.929688 126.34375 190.96875 126.566406 191.097656 C 126.785156 191.230469 126.9375 191.4375 127 191.683594 L 132.488281 213.609375 C 132.550781 213.859375 132.511719 214.113281 132.382812 214.332031 C 132.25 214.550781 132.042969 214.707031 131.796875 214.769531 C 131.722656 214.785156 131.640625 214.796875 131.566406 214.796875 Z M 126.078125 191.234375 C 126.023438 191.234375 125.964844 191.242188 125.914062 191.257812 C 125.734375 191.300781 125.589844 191.410156 125.492188 191.566406 C 125.402344 191.722656 125.375 191.902344 125.417969 192.082031 L 130.902344 214.007812 C 130.992188 214.363281 131.371094 214.59375 131.730469 214.503906 C 131.90625 214.460938 132.054688 214.347656 132.148438 214.195312 C 132.242188 214.039062 132.269531 213.855469 132.222656 213.679688 L 126.738281 191.75 C 126.695312 191.574219 126.582031 191.425781 126.425781 191.332031 C 126.320312 191.265625 126.199219 191.234375 126.078125 191.234375 Z M 126.078125 191.234375 " fill-opacity="1" fill-rule="nonzero"/><g mask="url(#8f55c007a1)"><g transform="matrix(1, 0, 0, 1, 125, 71)"><g clip-path="url(#35d04f0b1e)"><g clip-path="url(#b665906f90)"><path fill="#b1bec6" d="M 33.402344 31.640625 C 26.339844 33.164062 19.5 35.972656 13.320312 39.945312 C 8.246094 32.933594 -1.277344 18.441406 0.617188 10.777344 C 3.175781 0.421875 18.886719 -2.503906 25.34375 7.730469 C 29.492188 14.304688 32.082031 24.90625 33.402344 31.640625 Z M 33.402344 31.640625 " fill-opacity="1" fill-rule="nonzero"/></g><g clip-path="url(#da866776de)"><path fill="#b1bec6" d="M 13.285156 40.128906 L 13.207031 40.027344 C 7.648438 32.351562 -1.394531 18.335938 0.480469 10.742188 C 1.667969 5.953125 5.90625 2.300781 11.289062 1.429688 C 17.019531 0.503906 22.449219 2.886719 25.457031 7.65625 C 29.511719 14.082031 32.089844 24.230469 33.535156 31.613281 L 33.558594 31.742188 L 33.429688 31.769531 C 26.289062 33.3125 19.546875 36.097656 13.390625 40.054688 L 13.28125 40.128906 Z M 13.71875 1.503906 C 12.933594 1.503906 12.136719 1.566406 11.335938 1.699219 C 6.058594 2.550781 1.902344 6.125 0.75 10.808594 C -1.15625 18.527344 8.867188 33.542969 13.355469 39.761719 C 19.472656 35.847656 26.164062 33.078125 33.242188 31.535156 C 31.796875 24.1875 29.238281 14.15625 25.230469 7.804688 C 22.699219 3.796875 18.425781 1.503906 13.71875 1.503906 Z M 13.71875 1.503906 " fill-opacity="1" fill-rule="nonzero"/></g></g></g></g><path fill="#b1bec6" d="M 138.113281 112.050781 L 137.660156 111.425781 C 132.035156 103.652344 122.886719 89.4375 124.828125 81.578125 C 126.074219 76.527344 130.535156 72.671875 136.183594 71.757812 C 142.1875 70.785156 147.878906 73.289062 151.039062 78.296875 C 155.148438 84.8125 157.746094 95.046875 159.207031 102.484375 L 159.363281 103.269531 L 158.578125 103.441406 C 151.515625 104.964844 144.851562 107.722656 138.761719 111.632812 Z M 138.644531 73.195312 C 137.878906 73.195312 137.144531 73.257812 136.441406 73.371094 C 131.363281 74.191406 127.515625 77.488281 126.40625 81.972656 C 124.621094 89.214844 133.941406 103.425781 138.53125 109.84375 C 144.378906 106.183594 150.734375 103.554688 157.445312 102.015625 C 156.207031 95.898438 153.660156 85.523438 149.652344 79.164062 C 146.859375 74.742188 142.457031 73.191406 138.640625 73.191406 Z M 138.644531 73.195312 " fill-opacity="1" fill-rule="nonzero"/><path fill="#b1bec6" d="M 138.078125 112.234375 L 137.546875 111.503906 C 131.910156 103.714844 122.738281 89.460938 124.691406 81.550781 C 125.953125 76.441406 130.457031 72.546875 136.164062 71.625 C 142.222656 70.644531 147.964844 73.171875 151.152344 78.222656 C 155.273438 84.757812 157.878906 95.007812 159.339844 102.457031 L 159.519531 103.375 L 158.605469 103.570312 C 151.5625 105.089844 144.910156 107.839844 138.835938 111.746094 L 138.078125 112.230469 Z M 138.722656 71.6875 C 137.894531 71.6875 137.054688 71.753906 136.203125 71.890625 C 130.605469 72.796875 126.191406 76.613281 124.953125 81.613281 C 123.027344 89.417969 132.152344 103.589844 137.765625 111.34375 L 138.144531 111.867188 L 138.6875 111.519531 C 144.789062 107.597656 151.472656 104.832031 158.546875 103.304688 L 159.199219 103.164062 L 159.070312 102.507812 C 157.613281 95.082031 155.015625 84.867188 150.921875 78.367188 C 148.238281 74.117188 143.710938 71.6875 138.722656 71.6875 Z M 138.496094 110.027344 L 138.421875 109.925781 C 134.164062 103.96875 124.457031 89.320312 126.277344 81.9375 C 127.398438 77.402344 131.285156 74.066406 136.421875 73.238281 C 137.144531 73.121094 137.890625 73.058594 138.644531 73.058594 C 143.292969 73.058594 147.351562 75.257812 149.769531 79.09375 C 153.839844 85.550781 156.410156 96.210938 157.578125 101.988281 L 157.605469 102.121094 L 157.476562 102.148438 C 150.785156 103.683594 144.433594 106.3125 138.601562 109.960938 L 138.492188 110.027344 Z M 138.644531 73.332031 C 137.90625 73.332031 137.175781 73.390625 136.464844 73.503906 C 131.4375 74.320312 127.636719 77.574219 126.542969 82.007812 C 124.753906 89.234375 134.292969 103.671875 138.570312 109.664062 C 144.359375 106.058594 150.65625 103.449219 157.289062 101.914062 C 156.109375 96.125 153.558594 85.613281 149.542969 79.242188 C 147.171875 75.488281 143.199219 73.335938 138.644531 73.335938 Z M 138.644531 73.332031 " fill-opacity="1" fill-rule="nonzero"/><g mask="url(#beec8a50c0)"><g transform="matrix(1, 0, 0, 1, 174, 84)"><g clip-path="url(#ba8e8cd342)"><path fill="#b1bec6" d="M 107.636719 82.179688 L 63.789062 6.21875 C 59.988281 -0.355469 50.492188 -0.355469 46.699219 6.21875 L 32.496094 30.824219 L 2.847656 82.179688 C -0.953125 88.757812 3.792969 96.980469 11.390625 96.980469 L 99.09375 96.980469 C 106.6875 96.980469 111.433594 88.757812 107.636719 82.179688 Z M 100.390625 87.867188 C 100.039062 88.464844 99.222656 89.46875 97.613281 89.46875 L 12.875 89.46875 C 11.261719 89.46875 10.441406 88.464844 10.09375 87.867188 C 9.753906 87.265625 9.289062 86.054688 10.09375 84.660156 L 52.464844 11.261719 C 53.269531 9.867188 54.550781 9.660156 55.242188 9.660156 C 55.9375 9.660156 57.214844 9.867188 58.019531 11.261719 L 100.390625 84.660156 C 101.195312 86.054688 100.738281 87.265625 100.390625 87.867188 Z M 100.390625 87.867188 " fill-opacity="1" fill-rule="nonzero"/><g clip-path="url(#ebe5fbff75)"><path fill="#b1bec6" d="M 99.089844 97.117188 L 11.386719 97.117188 C 7.769531 97.117188 4.53125 95.25 2.726562 92.113281 C 0.917969 88.984375 0.917969 85.242188 2.726562 82.113281 L 32.375 30.757812 L 46.578125 6.152344 C 48.382812 3.023438 51.621094 1.152344 55.234375 1.152344 C 58.851562 1.152344 62.089844 3.023438 63.898438 6.152344 L 107.75 82.113281 C 109.554688 85.242188 109.554688 88.984375 107.75 92.117188 C 105.941406 95.25 102.703125 97.117188 99.089844 97.117188 Z M 55.238281 1.421875 C 51.722656 1.421875 48.574219 3.242188 46.8125 6.289062 L 32.609375 30.890625 L 2.960938 82.25 C 1.203125 85.296875 1.199219 88.933594 2.960938 91.980469 C 4.71875 95.027344 7.871094 96.847656 11.390625 96.847656 L 99.09375 96.847656 C 102.609375 96.847656 105.757812 95.027344 107.519531 91.980469 C 109.277344 88.933594 109.277344 85.296875 107.519531 82.25 L 63.667969 6.289062 C 61.90625 3.242188 58.757812 1.421875 55.242188 1.421875 Z M 97.609375 89.601562 L 12.871094 89.601562 C 11.195312 89.601562 10.335938 88.554688 9.972656 87.929688 C 9.613281 87.304688 9.132812 86.039062 9.972656 84.589844 L 52.34375 11.191406 C 53.179688 9.738281 54.515625 9.519531 55.242188 9.519531 C 55.964844 9.519531 57.296875 9.738281 58.132812 11.191406 L 100.503906 84.589844 C 101.34375 86.046875 100.867188 87.308594 100.503906 87.929688 C 100.140625 88.554688 99.285156 89.601562 97.609375 89.601562 Z M 55.242188 9.792969 C 54.578125 9.792969 53.347656 9.992188 52.578125 11.328125 L 10.210938 84.722656 C 9.441406 86.058594 9.878906 87.21875 10.210938 87.792969 C 10.542969 88.367188 11.332031 89.332031 12.871094 89.332031 L 97.609375 89.332031 C 99.148438 89.332031 99.933594 88.371094 100.269531 87.792969 C 100.601562 87.222656 101.042969 86.066406 100.269531 84.722656 L 57.898438 11.328125 C 57.128906 9.992188 55.902344 9.792969 55.242188 9.792969 Z M 55.242188 9.792969 " fill-opacity="1" fill-rule="nonzero"/></g></g></g></g><path fill="#b1bec6" d="M 273.089844 181.800781 L 185.386719 181.800781 C 181.527344 181.800781 178.066406 179.804688 176.136719 176.457031 C 174.207031 173.113281 174.207031 169.117188 176.136719 165.773438 L 205.785156 114.414062 L 219.988281 89.8125 C 221.917969 86.46875 225.375 84.472656 229.234375 84.472656 C 233.097656 84.472656 236.558594 86.464844 238.488281 89.8125 L 282.34375 165.773438 C 284.273438 169.117188 284.273438 173.113281 282.34375 176.460938 C 280.410156 179.804688 276.953125 181.800781 273.09375 181.800781 Z M 229.238281 86.105469 C 225.964844 86.105469 223.039062 87.796875 221.40625 90.628906 L 207.203125 115.230469 L 177.554688 166.589844 C 175.917969 169.421875 175.917969 172.808594 177.554688 175.640625 C 179.191406 178.476562 182.121094 180.167969 185.394531 180.167969 L 273.097656 180.167969 C 276.363281 180.167969 279.292969 178.476562 280.929688 175.644531 C 282.566406 172.808594 282.570312 169.421875 280.929688 166.589844 L 237.078125 90.628906 C 235.445312 87.792969 232.511719 86.105469 229.242188 86.105469 Z M 229.238281 86.105469 " fill-opacity="1" fill-rule="nonzero"/><path fill="#b1bec6" d="M 273.089844 181.9375 L 185.386719 181.9375 C 181.476562 181.9375 177.972656 179.914062 176.015625 176.527344 C 174.058594 173.136719 174.0625 169.089844 176.015625 165.707031 L 205.667969 114.347656 L 219.867188 89.742188 C 221.820312 86.359375 225.320312 84.335938 229.234375 84.335938 C 233.148438 84.335938 236.648438 86.359375 238.605469 89.742188 L 282.460938 165.707031 C 284.414062 169.09375 284.414062 173.140625 282.460938 176.527344 C 280.503906 179.914062 277.003906 181.9375 273.09375 181.9375 Z M 229.238281 84.605469 C 225.425781 84.605469 222.011719 86.578125 220.105469 89.878906 L 205.90625 114.484375 L 176.257812 165.839844 C 174.347656 169.144531 174.347656 173.089844 176.257812 176.390625 C 178.160156 179.691406 181.578125 181.664062 185.390625 181.664062 L 273.09375 181.664062 C 276.902344 181.664062 280.316406 179.695312 282.226562 176.394531 C 284.132812 173.089844 284.132812 169.144531 282.226562 165.839844 L 238.371094 89.878906 C 236.464844 86.578125 233.050781 84.605469 229.238281 84.605469 Z M 273.089844 180.304688 L 185.386719 180.304688 C 182.066406 180.304688 179.09375 178.585938 177.433594 175.710938 C 175.773438 172.832031 175.773438 169.398438 177.433594 166.523438 L 207.082031 115.164062 L 221.28125 90.5625 C 222.941406 87.6875 225.914062 85.96875 229.234375 85.96875 C 232.554688 85.96875 235.527344 87.6875 237.1875 90.5625 L 281.039062 166.523438 C 282.699219 169.398438 282.695312 172.835938 281.039062 175.710938 C 279.378906 178.585938 276.40625 180.304688 273.085938 180.304688 Z M 229.234375 86.242188 C 226.011719 86.242188 223.128906 87.90625 221.519531 90.695312 L 207.320312 115.300781 L 177.667969 166.65625 C 176.058594 169.449219 176.058594 172.78125 177.667969 175.574219 C 179.28125 178.367188 182.164062 180.03125 185.386719 180.03125 L 273.089844 180.03125 C 276.3125 180.03125 279.195312 178.367188 280.808594 175.574219 C 282.417969 172.78125 282.421875 169.449219 280.808594 166.65625 L 236.957031 90.695312 C 235.347656 87.90625 232.457031 86.242188 229.234375 86.242188 Z M 229.234375 86.242188 " fill-opacity="1" fill-rule="nonzero"/><g mask="url(#eb7b24fee4)"><g transform="matrix(1, 0, 0, 1, 183, 93)"><g clip-path="url(#80de40e1d4)"><g clip-path="url(#88baf6f03d)"><path fill="#b1bec6" d="M 91.386719 78.867188 C 91.039062 79.464844 90.21875 80.46875 88.609375 80.46875 L 3.871094 80.46875 C 2.257812 80.46875 1.4375 79.464844 1.09375 78.867188 C 0.75 78.265625 0.289062 77.054688 1.09375 75.660156 L 43.460938 2.261719 C 44.269531 0.867188 45.546875 0.660156 46.242188 0.660156 C 46.933594 0.660156 48.210938 0.867188 49.015625 2.261719 L 91.386719 75.660156 C 92.191406 77.054688 91.734375 78.265625 91.386719 78.867188 Z M 91.386719 78.867188 " fill-opacity="1" fill-rule="nonzero"/><path fill="#b1bec6" d="M 88.609375 80.605469 L 3.871094 80.605469 C 2.195312 80.605469 1.335938 79.558594 0.972656 78.933594 C 0.613281 78.308594 0.132812 77.042969 0.972656 75.589844 L 43.34375 2.195312 C 44.179688 0.738281 45.515625 0.523438 46.242188 0.523438 C 46.964844 0.523438 48.296875 0.738281 49.132812 2.195312 L 91.503906 75.589844 C 92.34375 77.050781 91.867188 78.308594 91.503906 78.933594 C 91.140625 79.558594 90.285156 80.605469 88.609375 80.605469 Z M 46.242188 0.792969 C 45.578125 0.792969 44.347656 0.992188 43.578125 2.328125 L 1.210938 75.726562 C 0.441406 77.0625 0.878906 78.222656 1.210938 78.796875 C 1.542969 79.371094 2.332031 80.332031 3.871094 80.332031 L 88.609375 80.332031 C 90.148438 80.332031 90.933594 79.371094 91.269531 78.796875 C 91.601562 78.226562 92.042969 77.070312 91.269531 75.726562 L 48.898438 2.328125 C 48.128906 0.992188 46.902344 0.792969 46.242188 0.792969 Z M 46.242188 0.792969 " fill-opacity="1" fill-rule="nonzero"/></g></g></g></g><path fill="#b1bec6" d="M 271.609375 174.285156 L 186.871094 174.285156 C 184.855469 174.285156 183.820312 173.023438 183.386719 172.277344 C 182.648438 170.996094 182.648438 169.527344 183.386719 168.253906 L 225.753906 94.855469 C 226.492188 93.578125 227.761719 92.84375 229.242188 92.84375 C 230.71875 92.84375 231.988281 93.578125 232.726562 94.855469 L 275.09375 168.253906 C 276.144531 170.074219 275.441406 171.675781 275.09375 172.28125 C 274.660156 173.03125 273.628906 174.289062 271.613281 174.289062 Z M 229.242188 94.476562 C 228.609375 94.476562 227.738281 94.683594 227.167969 95.671875 L 184.796875 169.066406 C 184.230469 170.050781 184.484375 170.914062 184.796875 171.457031 C 185.113281 172 185.730469 172.648438 186.871094 172.648438 L 271.605469 172.648438 C 272.746094 172.648438 273.359375 172 273.679688 171.453125 C 273.996094 170.910156 274.25 170.054688 273.679688 169.0625 L 231.308594 95.667969 C 230.742188 94.679688 229.871094 94.472656 229.242188 94.472656 Z M 229.242188 94.476562 " fill-opacity="1" fill-rule="nonzero"/><path fill="#b1bec6" d="M 271.609375 174.421875 L 186.871094 174.421875 C 184.785156 174.421875 183.71875 173.121094 183.269531 172.34375 C 182.507812 171.019531 182.507812 169.503906 183.269531 168.183594 L 225.636719 94.785156 C 226.398438 93.464844 227.714844 92.707031 229.242188 92.707031 C 230.773438 92.707031 232.082031 93.460938 232.84375 94.785156 L 275.214844 168.183594 C 276.300781 170.066406 275.574219 171.722656 275.214844 172.34375 C 274.761719 173.121094 273.695312 174.421875 271.613281 174.421875 Z M 229.242188 92.976562 C 227.8125 92.976562 226.585938 93.6875 225.871094 94.921875 L 183.503906 168.320312 C 182.792969 169.550781 182.792969 170.96875 183.503906 172.207031 C 183.925781 172.933594 184.921875 174.148438 186.871094 174.148438 L 271.609375 174.148438 C 273.554688 174.148438 274.554688 172.933594 274.972656 172.207031 C 275.3125 171.625 275.992188 170.078125 274.972656 168.320312 L 232.605469 94.925781 C 231.890625 93.6875 230.664062 92.980469 229.238281 92.980469 Z M 271.609375 172.789062 L 186.871094 172.789062 C 185.667969 172.789062 185.015625 172.101562 184.679688 171.527344 C 184.347656 170.949219 184.078125 170.042969 184.679688 169 L 227.050781 95.605469 C 227.652344 94.5625 228.574219 94.34375 229.242188 94.34375 C 229.90625 94.34375 230.824219 94.558594 231.429688 95.605469 L 273.796875 169 C 274.402344 170.050781 274.132812 170.953125 273.796875 171.523438 C 273.464844 172.101562 272.808594 172.792969 271.609375 172.792969 Z M 229.242188 94.613281 C 228.644531 94.613281 227.824219 94.808594 227.285156 95.738281 L 184.917969 169.136719 C 184.382812 170.066406 184.621094 170.875 184.917969 171.390625 C 185.214844 171.902344 185.796875 172.511719 186.871094 172.511719 L 271.609375 172.511719 C 272.683594 172.511719 273.265625 171.898438 273.5625 171.382812 C 273.859375 170.871094 274.101562 170.066406 273.5625 169.132812 L 231.191406 95.734375 C 230.65625 94.804688 229.835938 94.609375 229.242188 94.609375 Z M 229.242188 94.613281 " fill-opacity="1" fill-rule="nonzero"/><path fill="#b1bec6" d="M 243.992188 152.5 C 245.148438 153.652344 245.148438 155.511719 243.996094 156.660156 L 242.070312 158.585938 C 240.917969 159.738281 239.054688 159.738281 237.90625 158.585938 L 229.234375 149.914062 L 220.5625 158.585938 C 219.414062 159.738281 217.550781 159.738281 216.40625 158.585938 L 214.476562 156.660156 C 213.324219 155.507812 213.324219 153.644531 214.476562 152.5 L 223.148438 143.828125 L 214.476562 135.152344 C 213.328125 134.007812 213.328125 132.144531 214.476562 130.992188 L 216.40625 129.066406 C 217.550781 127.914062 219.414062 127.914062 220.5625 129.066406 L 229.234375 137.738281 L 237.90625 129.066406 C 239.054688 127.914062 240.917969 127.914062 242.070312 129.066406 L 243.996094 130.992188 C 245.148438 132.140625 245.148438 134.003906 243.992188 135.152344 L 235.324219 143.828125 Z M 243.992188 152.5 " fill-opacity="1" fill-rule="nonzero"/><path fill="#b1bec6" d="M 239.988281 159.582031 C 239.167969 159.582031 238.394531 159.261719 237.8125 158.679688 L 229.234375 150.101562 L 220.660156 158.679688 C 220.078125 159.261719 219.304688 159.582031 218.484375 159.582031 L 218.480469 159.582031 C 217.660156 159.582031 216.890625 159.261719 216.308594 158.679688 L 214.382812 156.75 C 213.800781 156.167969 213.476562 155.394531 213.476562 154.574219 C 213.476562 153.75 213.796875 152.980469 214.375 152.398438 L 222.953125 143.820312 L 214.375 135.242188 C 213.796875 134.664062 213.476562 133.890625 213.476562 133.066406 C 213.476562 132.246094 213.800781 131.472656 214.382812 130.890625 L 216.308594 128.964844 C 216.890625 128.378906 217.660156 128.0625 218.480469 128.058594 L 218.484375 128.058594 C 219.304688 128.058594 220.078125 128.378906 220.660156 128.964844 L 229.234375 137.539062 L 237.8125 128.964844 C 238.394531 128.378906 239.167969 128.058594 239.988281 128.058594 C 240.8125 128.058594 241.585938 128.378906 242.167969 128.964844 L 244.09375 130.890625 C 244.675781 131.46875 244.996094 132.242188 244.996094 133.0625 C 244.996094 133.886719 244.675781 134.660156 244.089844 135.242188 L 235.515625 143.820312 L 244.089844 152.398438 C 244.675781 152.980469 244.996094 153.753906 244.996094 154.578125 C 244.996094 155.402344 244.675781 156.171875 244.089844 156.75 L 242.164062 158.679688 C 241.582031 159.261719 240.808594 159.582031 239.988281 159.582031 Z M 229.234375 149.71875 L 238.003906 158.488281 C 238.535156 159.019531 239.242188 159.3125 239.988281 159.3125 C 240.738281 159.3125 241.441406 159.019531 241.972656 158.488281 L 243.902344 156.5625 C 244.433594 156.03125 244.722656 155.328125 244.722656 154.582031 C 244.722656 153.835938 244.429688 153.125 243.894531 152.59375 L 235.132812 143.824219 L 243.894531 135.054688 C 244.429688 134.523438 244.722656 133.816406 244.722656 133.066406 C 244.722656 132.3125 244.433594 131.613281 243.902344 131.085938 L 241.972656 129.160156 C 241.441406 128.628906 240.738281 128.335938 239.988281 128.335938 C 239.242188 128.335938 238.535156 128.628906 238.003906 129.160156 L 229.234375 137.929688 L 220.472656 129.160156 C 219.941406 128.628906 219.234375 128.335938 218.488281 128.335938 C 217.738281 128.335938 217.035156 128.632812 216.507812 129.160156 L 214.582031 131.085938 C 214.050781 131.617188 213.757812 132.324219 213.757812 133.070312 C 213.757812 133.820312 214.046875 134.523438 214.574219 135.054688 L 223.34375 143.824219 L 214.574219 152.59375 C 214.046875 153.121094 213.757812 153.828125 213.757812 154.578125 C 213.757812 155.324219 214.050781 156.03125 214.582031 156.5625 L 216.507812 158.488281 C 217.035156 159.019531 217.738281 159.3125 218.488281 159.3125 C 219.234375 159.3125 219.941406 159.019531 220.472656 158.488281 Z M 229.234375 149.71875 " fill-opacity="1" fill-rule="nonzero"/><g mask="url(#f405f3167f)"><g transform="matrix(1, 0, 0, 1, 68, 179)"><g clip-path="url(#5050916835)"><path fill="#b1bec6" d="M 36.132812 68.351562 C 35.488281 65.945312 35.6875 63.773438 36.734375 61.832031 C 37.785156 59.894531 39.402344 58.632812 41.589844 58.042969 C 43.777344 57.457031 45.808594 57.738281 47.6875 58.886719 C 49.566406 60.039062 50.828125 61.816406 51.476562 64.222656 C 52.125 66.628906 51.925781 68.800781 50.875 70.742188 C 49.828125 72.679688 48.210938 73.941406 46.023438 74.53125 C 43.835938 75.117188 41.800781 74.835938 39.925781 73.6875 C 38.046875 72.535156 36.785156 70.757812 36.136719 68.351562 Z M 40.488281 53.441406 C 36.507812 54.511719 32.386719 52.257812 31.144531 48.324219 L 20.078125 13.285156 C 18.484375 8.242188 21.417969 2.890625 26.523438 1.515625 C 31.628906 0.140625 36.851562 3.300781 38 8.460938 L 46.003906 44.324219 C 46.902344 48.351562 44.472656 52.367188 40.488281 53.441406 Z M 40.488281 53.441406 " fill-opacity="1" fill-rule="nonzero"/><path fill="#b1bec6" d="M 43.859375 74.960938 C 42.453125 74.960938 41.109375 74.578125 39.851562 73.804688 C 37.949219 72.636719 36.652344 70.816406 36 68.386719 C 35.347656 65.953125 35.554688 63.730469 36.613281 61.769531 C 37.675781 59.808594 39.335938 58.507812 41.550781 57.914062 C 43.765625 57.316406 45.851562 57.605469 47.757812 58.769531 C 49.65625 59.9375 50.953125 61.757812 51.605469 64.1875 C 52.257812 66.617188 52.050781 68.84375 50.992188 70.804688 C 49.933594 72.765625 48.269531 74.0625 46.054688 74.660156 C 45.308594 74.863281 44.578125 74.960938 43.863281 74.960938 Z M 43.738281 57.886719 C 43.046875 57.886719 42.339844 57.984375 41.617188 58.175781 C 39.480469 58.753906 37.875 60.007812 36.851562 61.902344 C 35.824219 63.800781 35.625 65.957031 36.261719 68.316406 C 36.898438 70.679688 38.152344 72.449219 39.992188 73.570312 C 41.828125 74.695312 43.84375 74.976562 45.980469 74.398438 C 48.121094 73.824219 49.726562 72.570312 50.75 70.675781 C 51.777344 68.777344 51.976562 66.617188 51.339844 64.257812 C 50.703125 61.898438 49.449219 60.132812 47.609375 59.003906 C 46.394531 58.257812 45.097656 57.886719 43.738281 57.886719 Z M 38.46875 53.847656 C 35.128906 53.847656 32.0625 51.703125 31.007812 48.367188 L 19.941406 13.328125 C 19.160156 10.855469 19.417969 8.238281 20.664062 5.960938 C 21.910156 3.6875 23.976562 2.0625 26.484375 1.386719 C 28.988281 0.710938 31.589844 1.082031 33.808594 2.421875 C 36.03125 3.769531 37.5625 5.902344 38.128906 8.433594 L 46.132812 44.296875 C 47.050781 48.40625 44.582031 52.480469 40.519531 53.574219 C 39.832031 53.757812 39.144531 53.847656 38.46875 53.847656 Z M 28.953125 1.328125 C 28.152344 1.328125 27.347656 1.433594 26.554688 1.644531 C 24.121094 2.296875 22.113281 3.878906 20.902344 6.085938 C 19.691406 8.296875 19.445312 10.835938 20.203125 13.242188 L 31.269531 48.28125 C 32.496094 52.152344 36.527344 54.363281 40.449219 53.308594 C 44.371094 52.25 46.753906 48.316406 45.867188 44.351562 L 37.867188 8.488281 C 37.316406 6.027344 35.828125 3.957031 33.671875 2.648438 C 32.21875 1.769531 30.597656 1.320312 28.953125 1.320312 Z M 28.953125 1.328125 " fill-opacity="1" fill-rule="nonzero"/><g clip-path="url(#72b362305a)"><path fill="#b1bec6" d="M 21.398438 73.273438 C 20.59375 71.914062 20.347656 70.550781 20.65625 69.1875 C 20.96875 67.824219 21.742188 66.78125 22.980469 66.046875 C 24.21875 65.316406 25.507812 65.140625 26.851562 65.527344 C 28.199219 65.910156 29.273438 66.785156 30.074219 68.144531 C 30.882812 69.507812 31.125 70.867188 30.816406 72.230469 C 30.503906 73.597656 29.730469 74.644531 28.492188 75.375 C 27.253906 76.105469 25.964844 76.28125 24.621094 75.894531 C 23.277344 75.511719 22.203125 74.636719 21.398438 73.273438 Z M 21.527344 63.417969 C 19.273438 64.75 16.371094 64.070312 14.941406 61.878906 L 2.21875 42.335938 C 0.386719 39.523438 1.265625 35.75 4.15625 34.042969 C 7.046875 32.332031 10.777344 33.378906 12.359375 36.335938 L 23.351562 56.902344 C 24.582031 59.210938 23.78125 62.082031 21.527344 63.414062 Z M 21.527344 63.417969 " fill-opacity="1" fill-rule="nonzero"/></g><g clip-path="url(#4da0e52d06)"><path fill="#b1bec6" d="M 25.988281 76.226562 C 25.523438 76.226562 25.054688 76.15625 24.585938 76.023438 C 23.214844 75.632812 22.101562 74.730469 21.28125 73.347656 C 20.460938 71.960938 20.207031 70.550781 20.523438 69.160156 C 20.84375 67.765625 21.644531 66.679688 22.910156 65.929688 C 24.175781 65.183594 25.511719 65.003906 26.886719 65.398438 C 28.261719 65.789062 29.375 66.691406 30.191406 68.074219 C 31.011719 69.460938 31.265625 70.867188 30.949219 72.261719 C 30.628906 73.65625 29.828125 74.742188 28.5625 75.492188 C 27.730469 75.980469 26.867188 76.230469 25.988281 76.230469 Z M 25.488281 65.464844 C 24.652344 65.464844 23.835938 65.699219 23.050781 66.164062 C 21.851562 66.871094 21.09375 67.902344 20.792969 69.21875 C 20.488281 70.539062 20.734375 71.882812 21.515625 73.203125 C 22.300781 74.527344 23.355469 75.386719 24.660156 75.761719 C 25.960938 76.132812 27.226562 75.960938 28.421875 75.253906 C 29.621094 74.546875 30.378906 73.515625 30.683594 72.199219 C 30.984375 70.875 30.738281 69.539062 29.957031 68.210938 C 29.175781 66.886719 28.117188 66.027344 26.816406 65.65625 C 26.367188 65.527344 25.925781 65.464844 25.488281 65.464844 Z M 19.035156 64.238281 C 17.390625 64.238281 15.789062 63.429688 14.828125 61.953125 L 2.101562 42.410156 C 1.195312 41.019531 0.90625 39.363281 1.285156 37.746094 C 1.660156 36.128906 2.65625 34.773438 4.085938 33.925781 C 5.515625 33.078125 7.183594 32.859375 8.78125 33.308594 C 10.378906 33.757812 11.691406 34.808594 12.476562 36.273438 L 23.464844 56.839844 C 24.738281 59.21875 23.914062 62.160156 21.59375 63.535156 C 20.789062 64.011719 19.90625 64.238281 19.035156 64.238281 Z M 7.144531 33.355469 C 6.132812 33.355469 5.128906 33.628906 4.226562 34.160156 C 2.863281 34.96875 1.910156 36.261719 1.550781 37.808594 C 1.191406 39.351562 1.46875 40.933594 2.332031 42.261719 L 15.058594 61.804688 C 16.453125 63.945312 19.261719 64.601562 21.457031 63.304688 C 23.65625 62.003906 24.433594 59.222656 23.230469 56.972656 L 12.238281 36.40625 C 11.492188 35.007812 10.238281 34.003906 8.710938 33.578125 C 8.195312 33.433594 7.667969 33.359375 7.144531 33.359375 Z M 7.144531 33.355469 " fill-opacity="1" fill-rule="nonzero"/></g></g></g></g><path fill="#b1bec6" d="M 111.855469 254.644531 C 110.328125 254.644531 108.867188 254.222656 107.492188 253.378906 C 105.441406 252.121094 104.042969 250.164062 103.34375 247.558594 C 102.644531 244.957031 102.867188 242.5625 104.011719 240.445312 C 105.164062 238.308594 106.96875 236.898438 109.371094 236.253906 C 111.773438 235.609375 114.039062 235.921875 116.109375 237.191406 C 118.164062 238.449219 119.558594 240.410156 120.257812 243.011719 C 120.957031 245.613281 120.734375 248.007812 119.589844 250.128906 C 118.433594 252.261719 116.632812 253.671875 114.230469 254.316406 C 113.421875 254.535156 112.628906 254.644531 111.855469 254.644531 Z M 111.757812 237.558594 C 111.125 237.558594 110.472656 237.648438 109.796875 237.832031 C 107.816406 238.363281 106.394531 239.472656 105.449219 241.21875 C 104.496094 242.984375 104.320312 244.917969 104.917969 247.136719 C 105.515625 249.355469 106.636719 250.941406 108.34375 251.988281 C 110.039062 253.023438 111.828125 253.269531 113.804688 252.738281 C 115.785156 252.203125 117.203125 251.097656 118.152344 249.347656 C 119.105469 247.585938 119.277344 245.648438 118.683594 243.433594 C 118.085938 241.21875 116.964844 239.628906 115.257812 238.582031 C 114.140625 237.898438 112.984375 237.558594 111.757812 237.558594 Z M 106.46875 233.523438 C 102.839844 233.523438 99.507812 231.195312 98.359375 227.566406 L 87.292969 192.53125 C 86.457031 189.875 86.730469 187.070312 88.066406 184.628906 C 89.402344 182.1875 91.617188 180.445312 94.304688 179.726562 C 96.992188 179.003906 99.78125 179.398438 102.164062 180.839844 C 104.542969 182.277344 106.1875 184.566406 106.792969 187.285156 L 114.796875 223.148438 C 115.792969 227.613281 113.109375 232.039062 108.695312 233.230469 C 107.949219 233.433594 107.203125 233.527344 106.46875 233.527344 Z M 96.953125 181.003906 C 96.210938 181.003906 95.46875 181.101562 94.730469 181.300781 C 92.476562 181.90625 90.621094 183.367188 89.5 185.414062 C 88.378906 187.460938 88.148438 189.8125 88.851562 192.039062 L 99.917969 227.074219 C 101.03125 230.601562 104.699219 232.613281 108.273438 231.652344 C 111.84375 230.691406 114.007812 227.109375 113.203125 223.5 L 105.203125 187.636719 C 104.691406 185.363281 103.316406 183.441406 101.320312 182.234375 C 99.976562 181.421875 98.476562 181.003906 96.953125 181.003906 Z M 96.953125 181.003906 " fill-opacity="1" fill-rule="nonzero"/><path fill="#b1bec6" d="M 111.855469 254.78125 C 110.300781 254.78125 108.8125 254.347656 107.421875 253.496094 C 105.335938 252.21875 103.921875 250.234375 103.210938 247.59375 C 102.5 244.957031 102.734375 242.53125 103.894531 240.378906 C 105.066406 238.210938 106.898438 236.78125 109.339844 236.121094 C 111.777344 235.464844 114.082031 235.785156 116.179688 237.070312 C 118.265625 238.347656 119.683594 240.335938 120.390625 242.972656 C 121.101562 245.609375 120.871094 248.039062 119.710938 250.191406 C 118.535156 252.359375 116.703125 253.792969 114.265625 254.449219 C 113.449219 254.667969 112.636719 254.777344 111.855469 254.777344 Z M 111.746094 236.0625 C 110.984375 236.0625 110.203125 236.171875 109.40625 236.386719 C 107.042969 237.023438 105.265625 238.40625 104.132812 240.507812 C 103.003906 242.597656 102.78125 244.957031 103.472656 247.527344 C 104.164062 250.097656 105.539062 252.027344 107.5625 253.265625 C 109.589844 254.507812 111.839844 254.820312 114.195312 254.1875 C 116.558594 253.550781 118.332031 252.164062 119.46875 250.0625 C 120.597656 247.972656 120.820312 245.613281 120.128906 243.046875 C 119.4375 240.476562 118.0625 238.546875 116.039062 237.308594 C 114.6875 236.480469 113.25 236.066406 111.746094 236.066406 Z M 111.84375 253.148438 C 110.59375 253.148438 109.414062 252.804688 108.273438 252.101562 C 106.535156 251.035156 105.394531 249.425781 104.789062 247.171875 C 104.179688 244.917969 104.359375 242.953125 105.328125 241.15625 C 106.292969 239.371094 107.742188 238.242188 109.761719 237.699219 C 110.445312 237.511719 111.117188 237.417969 111.757812 237.417969 C 113.011719 237.417969 114.179688 237.761719 115.328125 238.460938 C 117.066406 239.53125 118.207031 241.144531 118.8125 243.394531 C 119.421875 245.644531 119.242188 247.613281 118.273438 249.410156 C 117.308594 251.195312 115.859375 252.328125 113.839844 252.867188 C 113.152344 253.054688 112.488281 253.144531 111.84375 253.144531 Z M 111.757812 237.695312 C 111.140625 237.695312 110.492188 237.785156 109.832031 237.960938 C 107.890625 238.484375 106.496094 239.570312 105.570312 241.285156 C 104.632812 243.015625 104.464844 244.917969 105.050781 247.101562 C 105.640625 249.285156 106.738281 250.84375 108.417969 251.871094 C 110.078125 252.886719 111.828125 253.128906 113.773438 252.605469 C 115.714844 252.085938 117.105469 251 118.035156 249.285156 C 118.972656 247.550781 119.140625 245.648438 118.550781 243.46875 C 117.964844 241.289062 116.863281 239.726562 115.183594 238.695312 C 114.082031 238.019531 112.960938 237.691406 111.757812 237.691406 Z M 106.46875 233.660156 C 102.683594 233.660156 99.375 231.230469 98.234375 227.609375 L 87.167969 192.570312 C 86.316406 189.882812 86.59375 187.039062 87.949219 184.566406 C 89.304688 182.089844 91.550781 180.328125 94.273438 179.59375 C 96.996094 178.863281 99.824219 179.261719 102.238281 180.722656 C 104.648438 182.179688 106.316406 184.503906 106.929688 187.253906 L 114.933594 223.117188 C 115.945312 227.652344 113.222656 232.152344 108.734375 233.359375 C 107.992188 233.558594 107.230469 233.664062 106.46875 233.664062 Z M 96.953125 179.507812 C 96.082031 179.507812 95.207031 179.621094 94.339844 179.855469 C 91.691406 180.570312 89.503906 182.285156 88.1875 184.695312 C 86.871094 187.105469 86.597656 189.871094 87.425781 192.488281 L 98.492188 227.527344 C 99.601562 231.035156 102.804688 233.386719 106.46875 233.386719 C 107.203125 233.386719 107.941406 233.289062 108.660156 233.097656 C 113.007812 231.925781 115.644531 227.566406 114.664062 223.175781 L 106.664062 187.3125 C 106.0625 184.632812 104.441406 182.375 102.09375 180.953125 C 100.515625 179.996094 98.75 179.507812 96.957031 179.507812 Z M 106.46875 232.027344 C 103.476562 232.027344 100.734375 230.109375 99.789062 227.117188 L 88.722656 192.078125 C 88.011719 189.820312 88.242188 187.429688 89.382812 185.347656 C 90.519531 183.269531 92.410156 181.785156 94.699219 181.171875 C 96.964844 180.558594 99.382812 180.902344 101.390625 182.117188 C 103.417969 183.34375 104.820312 185.292969 105.335938 187.609375 L 113.335938 223.472656 C 114.160156 227.152344 111.949219 230.800781 108.308594 231.78125 C 107.691406 231.949219 107.074219 232.027344 106.46875 232.027344 Z M 96.953125 181.140625 C 96.21875 181.140625 95.484375 181.238281 94.765625 181.429688 C 92.550781 182.027344 90.722656 183.464844 89.617188 185.480469 C 88.515625 187.492188 88.289062 189.808594 88.980469 191.996094 L 100.046875 227.035156 C 101.140625 230.492188 104.738281 232.460938 108.234375 231.519531 C 111.734375 230.574219 113.859375 227.066406 113.070312 223.527344 L 105.066406 187.664062 C 104.566406 185.425781 103.210938 183.535156 101.246094 182.347656 C 99.941406 181.558594 98.453125 181.140625 96.949219 181.140625 Z M 96.953125 181.140625 " fill-opacity="1" fill-rule="nonzero"/><path fill="#b1bec6" d="M 93.992188 255.910156 C 93.46875 255.910156 92.933594 255.832031 92.398438 255.679688 C 90.851562 255.238281 89.609375 254.230469 88.695312 252.691406 C 87.785156 251.152344 87.503906 249.574219 87.863281 248.007812 C 88.226562 246.421875 89.132812 245.1875 90.566406 244.34375 C 91.996094 243.496094 93.515625 243.292969 95.078125 243.738281 C 96.625 244.179688 97.867188 245.1875 98.78125 246.722656 C 99.691406 248.265625 99.972656 249.839844 99.613281 251.410156 C 99.25 252.992188 98.34375 254.226562 96.910156 255.074219 C 95.972656 255.628906 94.996094 255.90625 93.996094 255.90625 Z M 93.480469 245.144531 C 92.769531 245.144531 92.078125 245.34375 91.394531 245.75 C 90.351562 246.367188 89.714844 247.226562 89.457031 248.371094 C 89.191406 249.535156 89.402344 250.675781 90.101562 251.859375 C 90.800781 253.046875 91.699219 253.78125 92.847656 254.109375 C 93.976562 254.433594 95.03125 254.289062 96.078125 253.671875 C 97.121094 253.054688 97.757812 252.195312 98.019531 251.050781 C 98.28125 249.886719 98.074219 248.746094 97.371094 247.558594 C 96.671875 246.375 95.773438 245.636719 94.625 245.3125 C 94.234375 245.199219 93.855469 245.144531 93.476562 245.144531 Z M 87.035156 243.921875 C 85.167969 243.921875 83.351562 243.003906 82.257812 241.324219 L 69.535156 221.78125 C 68.527344 220.230469 68.203125 218.386719 68.621094 216.589844 C 69.042969 214.789062 70.152344 213.28125 71.742188 212.339844 C 73.332031 211.398438 75.1875 211.15625 76.96875 211.652344 C 78.746094 212.152344 80.207031 213.324219 81.078125 214.953125 L 92.066406 235.519531 C 93.511719 238.222656 92.578125 241.558594 89.941406 243.121094 C 89.023438 243.660156 88.023438 243.917969 87.03125 243.917969 Z M 75.144531 213.035156 C 74.25 213.035156 73.367188 213.277344 72.570312 213.746094 C 71.367188 214.460938 70.53125 215.601562 70.210938 216.960938 C 69.894531 218.324219 70.136719 219.71875 70.898438 220.890625 L 83.625 240.433594 C 84.816406 242.265625 87.226562 242.828125 89.109375 241.714844 C 90.992188 240.601562 91.65625 238.21875 90.628906 236.292969 L 79.636719 215.726562 C 78.980469 214.492188 77.875 213.605469 76.527344 213.230469 C 76.070312 213.101562 75.605469 213.039062 75.144531 213.039062 Z M 75.144531 213.035156 " fill-opacity="1" fill-rule="nonzero"/><path fill="#b1bec6" d="M 93.992188 256.046875 C 93.457031 256.046875 92.90625 255.964844 92.359375 255.808594 C 90.777344 255.355469 89.507812 254.332031 88.578125 252.757812 C 87.652344 251.1875 87.363281 249.578125 87.730469 247.976562 C 88.101562 246.355469 89.03125 245.09375 90.496094 244.226562 C 91.960938 243.359375 93.511719 243.148438 95.113281 243.605469 C 96.695312 244.058594 97.964844 245.085938 98.894531 246.65625 C 99.824219 248.226562 100.109375 249.835938 99.742188 251.4375 C 99.375 253.0625 98.441406 254.320312 96.980469 255.191406 C 96.019531 255.757812 95.015625 256.042969 93.992188 256.042969 Z M 93.480469 243.644531 C 92.503906 243.644531 91.546875 243.917969 90.632812 244.460938 C 89.230469 245.285156 88.34375 246.488281 87.992188 248.035156 C 87.640625 249.570312 87.917969 251.109375 88.808594 252.621094 C 89.703125 254.132812 90.921875 255.113281 92.433594 255.546875 C 93.953125 255.984375 95.445312 255.78125 96.839844 254.957031 C 98.238281 254.128906 99.125 252.925781 99.480469 251.378906 C 99.828125 249.847656 99.554688 248.304688 98.660156 246.796875 C 97.769531 245.285156 96.546875 244.300781 95.039062 243.867188 C 94.511719 243.71875 93.996094 243.644531 93.480469 243.644531 Z M 93.992188 254.410156 C 93.605469 254.410156 93.210938 254.355469 92.808594 254.238281 C 91.628906 253.898438 90.703125 253.144531 89.984375 251.925781 C 89.265625 250.710938 89.046875 249.535156 89.320312 248.339844 C 89.589844 247.15625 90.246094 246.269531 91.324219 245.628906 C 92.40625 244.992188 93.496094 244.84375 94.664062 245.179688 C 95.847656 245.515625 96.773438 246.273438 97.492188 247.488281 C 98.207031 248.707031 98.425781 249.878906 98.15625 251.078125 C 97.886719 252.261719 97.230469 253.144531 96.148438 253.785156 C 95.445312 254.203125 94.730469 254.410156 93.996094 254.410156 Z M 93.480469 245.277344 C 92.792969 245.277344 92.128906 245.472656 91.464844 245.867188 C 90.453125 246.464844 89.839844 247.292969 89.585938 248.402344 C 89.328125 249.527344 89.535156 250.636719 90.21875 251.789062 C 90.902344 252.945312 91.773438 253.660156 92.882812 253.976562 C 93.972656 254.285156 94.996094 254.152344 96.007812 253.550781 C 97.015625 252.953125 97.632812 252.125 97.886719 251.015625 C 98.140625 249.890625 97.933594 248.78125 97.253906 247.628906 C 96.570312 246.472656 95.699219 245.757812 94.589844 245.441406 C 94.214844 245.335938 93.839844 245.28125 93.480469 245.28125 Z M 87.035156 244.054688 C 85.054688 244.054688 83.226562 243.0625 82.144531 241.398438 L 69.417969 221.855469 C 68.390625 220.273438 68.0625 218.394531 68.488281 216.554688 C 68.917969 214.722656 70.046875 213.179688 71.671875 212.21875 C 73.292969 211.257812 75.1875 211.011719 77.003906 211.519531 C 78.816406 212.03125 80.308594 213.222656 81.195312 214.886719 L 92.1875 235.453125 C 93.664062 238.21875 92.710938 241.640625 90.011719 243.234375 C 89.105469 243.769531 88.078125 244.050781 87.035156 244.050781 Z M 75.144531 211.539062 C 73.984375 211.539062 72.839844 211.851562 71.808594 212.460938 C 70.25 213.378906 69.167969 214.859375 68.753906 216.621094 C 68.339844 218.386719 68.65625 220.191406 69.644531 221.710938 L 82.371094 241.253906 C 83.40625 242.839844 85.144531 243.785156 87.03125 243.785156 C 88.027344 243.785156 89.007812 243.515625 89.867188 243.003906 C 92.445312 241.484375 93.355469 238.226562 91.945312 235.585938 L 80.953125 215.019531 C 80.101562 213.421875 78.671875 212.277344 76.929688 211.789062 C 76.339844 211.621094 75.738281 211.539062 75.140625 211.539062 Z M 87.035156 242.421875 C 85.65625 242.421875 84.316406 241.746094 83.511719 240.507812 L 70.785156 220.964844 C 70 219.761719 69.75 218.328125 70.078125 216.929688 C 70.40625 215.53125 71.265625 214.359375 72.5 213.628906 C 73.722656 212.902344 75.191406 212.710938 76.5625 213.09375 C 77.945312 213.480469 79.078125 214.390625 79.753906 215.65625 L 90.746094 236.226562 C 91.808594 238.21875 91.121094 240.679688 89.175781 241.828125 C 88.503906 242.226562 87.765625 242.417969 87.035156 242.417969 Z M 75.144531 213.171875 C 74.273438 213.171875 73.40625 213.414062 72.640625 213.863281 C 71.472656 214.554688 70.65625 215.667969 70.34375 216.996094 C 70.035156 218.320312 70.273438 219.675781 71.015625 220.816406 L 83.738281 240.359375 C 84.894531 242.132812 87.21875 242.675781 89.039062 241.597656 C 90.855469 240.523438 91.503906 238.21875 90.503906 236.355469 L 79.515625 215.789062 C 78.871094 214.589844 77.796875 213.726562 76.488281 213.359375 C 76.046875 213.234375 75.59375 213.171875 75.144531 213.171875 Z M 75.144531 213.171875 " fill-opacity="1" fill-rule="nonzero"/></svg>